<svg width="300" height="210" viewBox="0 0 300 210" fill="none" xmlns="http://www.w3.org/2000/svg">
<g clip-path="url(#clip0)">
<path d="M126.696 196.271C196.668 196.271 253.392 193.403 253.392 189.866C253.392 186.329 196.668 183.462 126.696 183.462C56.7237 183.462 0 186.329 0 189.866C0 193.403 56.7237 196.271 126.696 196.271Z" fill="#3A3A3A"/>
<path d="M250.423 203.271C277.804 203.271 300 202.149 300 200.764C300 199.38 277.804 198.258 250.423 198.258C223.043 198.258 200.847 199.38 200.847 200.764C200.847 202.149 223.043 203.271 250.423 203.271Z" fill="#3A3A3A"/>
<path d="M110.283 209.636C137.663 209.636 159.86 208.514 159.86 207.13C159.86 205.746 137.663 204.624 110.283 204.624C82.9024 204.624 60.7062 205.746 60.7062 207.13C60.7062 208.514 82.9024 209.636 110.283 209.636Z" fill="#3A3A3A"/>
<path d="M231.974 131.829L236.422 128.737L245.642 116.87C245.905 116.531 246.022 116.102 245.969 115.677C245.915 115.252 245.695 114.865 245.357 114.602C245.019 114.339 244.59 114.222 244.164 114.275C243.739 114.328 243.352 114.548 243.09 114.887L233.87 126.754L231.974 131.829Z" fill="#3A3A3A"/>
<path d="M271.68 19.0149C271.68 19.0149 266.086 13.9993 258.562 23.4519C251.039 32.9044 239.272 37.5343 236.571 41.1995C236.571 41.1995 247.76 36.5697 251.618 34.6406C255.476 32.7115 255.283 33.0973 255.283 33.0973C255.283 33.0973 250.074 36.7626 249.11 40.4279C248.145 44.0932 248.917 47.1797 247.181 50.845C245.445 54.5103 280.361 53.3528 280.361 53.3528C280.361 53.3528 283.834 47.3727 282.869 41.1995C281.905 35.0264 282.483 19.7866 271.68 19.0149Z" fill="#3A3A3A"/>
<path d="M260.684 33.869C260.684 33.869 262.035 43.3216 256.248 45.4436C250.46 47.5656 252.582 50.4592 252.582 50.4592L261.263 54.7032L270.523 51.8096L273.609 47.1798C273.609 47.1798 268.594 46.0223 269.944 42.5499C271.295 39.0775 271.68 37.9201 271.68 37.9201L260.684 33.869Z" fill="#FFB9B9"/>
<path opacity="0.1" d="M260.684 33.869C260.684 33.869 262.035 43.3216 256.248 45.4436C250.46 47.5656 252.582 50.4592 252.582 50.4592L261.263 54.7032L270.523 51.8096L273.609 47.1798C273.609 47.1798 268.594 46.0223 269.944 42.5499C271.295 39.0775 271.68 37.9201 271.68 37.9201L260.684 33.869Z" fill="black"/>
<path d="M284.991 60.8763C284.991 60.8763 283.641 78.624 284.027 79.3957C284.412 80.1673 284.027 106.982 284.027 106.982C284.027 106.982 286.727 121.45 283.255 122.222C279.783 122.993 280.554 106.017 280.554 106.017L277.082 83.6397L277.468 61.4551L284.991 60.8763Z" fill="#FFB9B9"/>
<path opacity="0.1" d="M284.991 60.8763C284.991 60.8763 283.641 78.624 284.027 79.3957C284.412 80.1673 284.027 106.982 284.027 106.982C284.027 106.982 286.727 121.45 283.255 122.222C279.783 122.993 280.554 106.017 280.554 106.017L277.082 83.6397L277.468 61.4551L284.991 60.8763Z" fill="black"/>
<path d="M247.374 114.312C247.374 114.312 241.008 138.426 241.201 150.193C241.393 161.961 243.901 178.358 243.901 178.358C243.901 178.358 244.287 185.496 243.708 186.268C243.13 187.039 246.602 190.319 246.602 190.319L250.267 188.197L251.618 186.653V185.303C251.618 185.303 249.496 178.744 251.232 173.536C252.968 168.327 253.933 155.209 252.196 151.158L264.157 115.663L247.374 114.312Z" fill="#FFB9B9"/>
<path d="M246.988 187.232C246.988 187.232 244.673 184.338 243.13 185.303C241.586 186.268 239.079 192.827 239.079 192.827C239.079 192.827 230.398 201.122 236.571 201.507C242.744 201.893 245.445 199.771 246.216 198.228C246.988 196.685 254.126 192.634 254.126 192.634C254.126 192.634 253.354 185.303 252.196 185.11C251.039 184.917 249.303 188.004 249.303 188.004L246.988 187.232Z" fill="#3A3A3A"/>
<path d="M268.401 115.856V139.776C268.423 142.679 268.617 145.577 268.98 148.457C269.558 152.701 265.7 184.338 265.7 184.338L266.086 189.933L270.909 189.547L271.487 184.724L278.432 163.504C278.432 163.504 280.747 150.579 279.59 145.757C278.432 140.934 285.57 110.068 285.57 110.068L268.401 115.856Z" fill="#FFB9B9"/>
<path d="M264.543 188.582L265.971 188.272C265.971 188.272 267.051 185.882 268.401 186.46C269.351 186.899 270.251 187.438 271.086 188.069L271.68 189.161C271.68 189.161 273.031 192.055 274.767 193.984C276.503 195.913 278.432 200.157 275.539 200.543C272.645 200.929 268.787 201.122 267.629 200.157C266.472 199.193 267.243 197.649 266.086 197.263C264.929 196.878 263.964 195.72 264.157 195.334C264.35 194.948 264.543 188.582 264.543 188.582Z" fill="#3A3A3A"/>
<path d="M268.401 41.1995C273.515 41.1995 277.661 37.0539 277.661 31.9399C277.661 26.8259 273.515 22.6802 268.401 22.6802C263.287 22.6802 259.141 26.8259 259.141 31.9399C259.141 37.0539 263.287 41.1995 268.401 41.1995Z" fill="#FFB9B9"/>
<path d="M252.196 46.9868L254.745 46.0972C254.745 46.0972 253.74 47.7585 259.141 48.723C264.543 49.6876 270.136 50.0291 272.645 46.8682C272.645 46.8682 273.609 46.4081 274.96 47.7585C276.31 49.1089 277.082 48.7231 277.082 48.7231L276.117 53.7387L274.188 62.9984L271.68 69.9431L264.543 68.3998L256.826 62.8055L253.933 55.282V48.3372L252.196 46.9868Z" fill="#43CFD9"/>
<path d="M275.731 49.6876L277.661 48.3372C277.661 48.3372 284.219 49.4947 284.605 52.5812L279.59 62.2267C280.613 64.9106 280.543 67.8884 279.397 70.5218C277.468 74.9587 277.661 75.9233 277.661 75.9233L276.31 81.7106L251.811 83.6397C251.811 83.6397 250.846 81.3248 250.46 80.9389C250.074 80.5531 250.074 79.2027 250.46 79.2027C250.846 79.2027 250.46 78.624 250.074 78.0453C249.689 77.4666 249.496 77.2737 250.074 76.502C250.653 75.7304 249.11 68.7856 249.11 68.7856V61.2622L242.551 52.5812C242.551 52.5812 244.866 49.1089 246.023 48.723C247.181 48.3372 252.687 46.8157 252.687 46.8157L253.933 48.6501L255.669 62.6125L258.177 71.1005L268.736 69.3064L272.838 62.4196L275.538 54.3174L275.731 49.6876Z" fill="#43CFD9"/>
<path d="M283.062 51.4238L284.605 52.5812C284.605 52.5812 285.956 63.3842 285.57 64.1558C285.184 64.9274 278.432 65.6991 278.239 65.3133C278.046 64.9274 283.062 51.4238 283.062 51.4238Z" fill="#43CFD9"/>
<path d="M241.201 63.1912C241.201 63.1912 242.551 80.9389 242.165 81.7106C241.779 82.4822 242.165 109.297 242.165 109.297C242.165 109.297 239.464 123.765 242.937 124.536C246.409 125.308 245.638 108.332 245.638 108.332L249.11 85.9546L248.724 63.77L241.201 63.1912Z" fill="#FFB9B9"/>
<path d="M251.232 46.0223L253.161 58.7543C253.161 58.7543 251.425 77.6595 251.811 81.5177L252.196 82.6751C252.196 82.6751 251.425 82.2893 251.232 83.0609C251.039 83.8326 251.232 86.3404 251.232 86.3404C251.232 86.3404 250.074 87.4979 249.689 93.8639C249.303 100.23 244.673 115.47 246.409 116.048C248.145 116.627 258.562 119.521 264.157 118.942C269.751 118.363 289.814 111.612 289.621 109.875C289.428 108.139 279.783 83.6397 279.783 83.6397C279.783 83.6397 278.046 80.746 278.046 80.3602C278.046 79.9744 280.361 78.4311 279.783 76.8878C279.204 75.3446 276.117 59.1402 276.117 59.1402L278.239 47.5656L275.346 46.7939L273.224 57.9827C273.224 57.9827 264.928 62.0338 256.248 58.3685L254.318 45.2507L251.232 46.0223Z" fill="#3A3A3A"/>
<path d="M244.094 52.0025L242.551 52.5812C242.551 52.5812 239.657 64.7345 240.429 64.7345C241.201 64.7345 250.46 65.892 250.46 65.5062C250.46 65.1203 248.724 55.6678 248.724 55.6678L244.094 52.0025Z" fill="#43CFD9"/>
<path d="M261.07 23.8377C261.07 23.8377 275.346 33.6761 279.204 29.2392C283.062 24.8022 272.452 20.9441 272.452 20.9441L263.578 19.9795L261.07 23.8377Z" fill="#3A3A3A"/>
<path d="M38.8755 -3.8147e-06V188.234H200.657V-3.8147e-06H38.8755ZM47.5076 172.641C46.9569 172.641 46.4185 172.477 45.9606 172.171C45.5027 171.865 45.1458 171.431 44.935 170.922C44.7243 170.413 44.6691 169.853 44.7766 169.313C44.884 168.773 45.1492 168.277 45.5386 167.887C45.9281 167.498 46.4242 167.233 46.9644 167.125C47.5045 167.018 48.0644 167.073 48.5732 167.284C49.082 167.494 49.5169 167.851 49.8228 168.309C50.1288 168.767 50.2921 169.305 50.2921 169.856C50.2921 170.595 49.9987 171.303 49.4765 171.825C48.9543 172.347 48.2461 172.641 47.5076 172.641ZM47.5076 158.997C46.9569 158.997 46.4185 158.833 45.9606 158.527C45.5027 158.221 45.1458 157.786 44.935 157.278C44.7243 156.769 44.6691 156.209 44.7766 155.669C44.884 155.129 45.1492 154.632 45.5386 154.243C45.9281 153.854 46.4242 153.588 46.9644 153.481C47.5045 153.374 48.0644 153.429 48.5732 153.639C49.082 153.85 49.5169 154.207 49.8228 154.665C50.1288 155.123 50.2921 155.661 50.2921 156.212C50.2921 156.951 49.9987 157.659 49.4765 158.181C48.9543 158.703 48.2461 158.997 47.5076 158.997ZM47.5076 145.631C46.9569 145.631 46.4185 145.468 45.9606 145.162C45.5027 144.856 45.1458 144.421 44.935 143.912C44.7243 143.403 44.6691 142.843 44.7766 142.303C44.884 141.763 45.1492 141.267 45.5386 140.877C45.9281 140.488 46.4242 140.223 46.9644 140.115C47.5045 140.008 48.0644 140.063 48.5732 140.274C49.082 140.484 49.5169 140.841 49.8228 141.299C50.1288 141.757 50.2921 142.296 50.2921 142.846C50.2921 143.585 49.9987 144.293 49.4765 144.815C48.9543 145.337 48.2461 145.631 47.5076 145.631ZM47.5076 131.987C46.9569 131.987 46.4185 131.823 45.9606 131.517C45.5027 131.211 45.1458 130.777 44.935 130.268C44.7243 129.759 44.6691 129.199 44.7766 128.659C44.884 128.119 45.1492 127.623 45.5386 127.233C45.9281 126.844 46.4242 126.579 46.9644 126.471C47.5045 126.364 48.0644 126.419 48.5732 126.63C49.082 126.84 49.5169 127.197 49.8228 127.655C50.1288 128.113 50.2921 128.651 50.2921 129.202C50.2921 129.941 49.9987 130.649 49.4765 131.171C48.9543 131.693 48.2461 131.987 47.5076 131.987ZM47.5076 118.342C46.9569 118.342 46.4185 118.179 45.9606 117.873C45.5027 117.567 45.1458 117.132 44.935 116.624C44.7243 116.115 44.6691 115.555 44.7766 115.015C44.884 114.475 45.1492 113.978 45.5386 113.589C45.9281 113.2 46.4242 112.934 46.9644 112.827C47.5045 112.719 48.0644 112.775 48.5732 112.985C49.082 113.196 49.5169 113.553 49.8228 114.011C50.1288 114.469 50.2921 115.007 50.2921 115.558C50.2921 116.296 49.9987 117.005 49.4765 117.527C48.9543 118.049 48.2461 118.342 47.5076 118.342ZM47.5076 104.977C46.9569 104.977 46.4185 104.813 45.9606 104.507C45.5027 104.201 45.1458 103.767 44.935 103.258C44.7243 102.749 44.6691 102.189 44.7766 101.649C44.884 101.109 45.1492 100.613 45.5386 100.223C45.9281 99.8338 46.4242 99.5686 46.9644 99.4612C47.5045 99.3537 48.0644 99.4089 48.5732 99.6196C49.082 99.8304 49.5169 100.187 49.8228 100.645C50.1288 101.103 50.2921 101.641 50.2921 102.192C50.2921 102.931 49.9987 103.639 49.4765 104.161C48.9543 104.683 48.2461 104.977 47.5076 104.977ZM47.5076 91.3325C46.9569 91.3325 46.4185 91.1692 45.9606 90.8632C45.5027 90.5573 45.1458 90.1224 44.935 89.6136C44.7243 89.1048 44.6691 88.5449 44.7766 88.0048C44.884 87.4646 45.1492 86.9685 45.5386 86.579C45.9281 86.1896 46.4242 85.9244 46.9644 85.817C47.5045 85.7095 48.0644 85.7647 48.5732 85.9754C49.082 86.1862 49.5169 86.5431 49.8228 87.001C50.1288 87.4589 50.2921 87.9973 50.2921 88.548C50.2921 89.2865 49.9987 89.9948 49.4765 90.5169C48.9543 91.0392 48.2461 91.3325 47.5076 91.3325ZM47.5076 77.6883C46.9569 77.6883 46.4185 77.525 45.9606 77.2191C45.5027 76.9131 45.1458 76.4782 44.935 75.9694C44.7243 75.4606 44.6691 74.9007 44.7766 74.3606C44.884 73.8204 45.1492 73.3243 45.5386 72.9348C45.9281 72.5454 46.4242 72.2802 46.9644 72.1728C47.5045 72.0653 48.0644 72.1205 48.5732 72.3312C49.082 72.542 49.5169 72.8989 49.8228 73.3568C50.1288 73.8147 50.2921 74.3531 50.2921 74.9038C50.2921 75.6423 49.9987 76.3506 49.4765 76.8728C48.9543 77.395 48.2461 77.6883 47.5076 77.6883ZM47.5076 64.3226C46.9569 64.3226 46.4185 64.1593 45.9606 63.8533C45.5027 63.5474 45.1458 63.1125 44.935 62.6037C44.7243 62.0949 44.6691 61.535 44.7766 60.9948C44.884 60.4547 45.1492 59.9585 45.5386 59.5691C45.9281 59.1797 46.4242 58.9145 46.9644 58.807C47.5045 58.6996 48.0644 58.7547 48.5732 58.9655C49.082 59.1763 49.5169 59.5332 49.8228 59.9911C50.1288 60.449 50.2921 60.9873 50.2921 61.5381C50.2921 62.2766 49.9987 62.9848 49.4765 63.507C48.9543 64.0292 48.2461 64.3226 47.5076 64.3226ZM47.5076 50.6784C46.9569 50.6784 46.4185 50.5151 45.9606 50.2091C45.5027 49.9032 45.1458 49.4683 44.935 48.9595C44.7243 48.4507 44.6691 47.8908 44.7766 47.3506C44.884 46.8105 45.1492 46.3143 45.5386 45.9249C45.9281 45.5355 46.4242 45.2703 46.9644 45.1629C47.5045 45.0554 48.0644 45.1106 48.5732 45.3213C49.082 45.5321 49.5169 45.889 49.8228 46.3469C50.1288 46.8048 50.2921 47.3432 50.2921 47.8939C50.2921 48.6324 49.9987 49.3406 49.4765 49.8628C48.9543 50.385 48.2461 50.6784 47.5076 50.6784ZM47.5076 37.0342C46.9569 37.0342 46.4185 36.8709 45.9606 36.5649C45.5027 36.259 45.1458 35.8241 44.935 35.3153C44.7243 34.8065 44.6691 34.2466 44.7766 33.7065C44.884 33.1663 45.1492 32.6702 45.5386 32.2807C45.9281 31.8913 46.4242 31.6261 46.9644 31.5187C47.5045 31.4112 48.0644 31.4664 48.5732 31.6771C49.082 31.8879 49.5169 32.2448 49.8228 32.7027C50.1288 33.1606 50.2921 33.699 50.2921 34.2497C50.2921 34.9882 49.9987 35.6965 49.4765 36.2187C48.9543 36.7409 48.2461 37.0342 47.5076 37.0342ZM47.5076 23.9469C46.9569 23.9469 46.4185 23.7836 45.9606 23.4777C45.5027 23.1717 45.1458 22.7368 44.935 22.228C44.7243 21.7192 44.6691 21.1593 44.7766 20.6192C44.884 20.079 45.1492 19.5829 45.5386 19.1935C45.9281 18.804 46.4242 18.5388 46.9644 18.4314C47.5045 18.3239 48.0644 18.3791 48.5732 18.5898C49.082 18.8006 49.5169 19.1575 49.8228 19.6154C50.1288 20.0733 50.2921 20.6117 50.2921 21.1624C50.2921 21.9009 49.9987 22.6092 49.4765 23.1314C48.9543 23.6536 48.2461 23.9469 47.5076 23.9469Z" fill="#F2F2F2"/>
<path opacity="0.3" d="M200.657 14.2952V13.7383H58.0209V0H57.464V13.7383H38.8756V14.2952H57.464V27.2884H38.8756V27.8453H57.464V40.8384H38.8756V41.3954H57.464V54.3882H38.8756V54.9451H57.464V67.938H38.8756V68.4949H57.464V81.4881H38.8756V82.045H57.464V95.0379H38.8756V95.5948H57.464V108.588H38.8756V109.145H57.464V122.138H38.8756V122.695H57.464V135.688H38.8756V136.244H57.464V149.238H38.8756V149.795H57.464V162.787H38.8756V163.344H57.464V176.337H38.8756V176.894H57.464V188.234H58.0209V176.894H200.657V176.337H58.0209V163.344H200.657V162.787H58.0209V149.795H200.657V149.238H58.0209V136.244H200.657V135.688H58.0209V122.695H200.657V122.138H58.0209V109.145H200.657V108.588H58.0209V95.5948H200.657V95.0379H58.0209V82.045H200.657V81.4881H58.0209V68.4949H200.657V67.938H58.0209V54.9451H200.657V54.3882H58.0209V41.3954H200.657V40.8384H58.0209V27.8453H200.657V27.2884H58.0209V14.2952H200.657Z" fill="#3A3A3A"/>
<path d="M75.0149 48.2221C73.3326 49.5252 71.5251 50.6582 69.6191 51.6043C68.3873 52.2156 67.0205 52.7598 65.6695 52.5034C64.3184 52.247 63.1053 50.8663 63.5179 49.5545C63.661 49.1716 63.9023 48.833 64.2175 48.5727C64.5328 48.3124 64.9109 48.1396 65.314 48.0715C66.1251 47.9467 66.955 48.0664 67.6976 48.4155C69.0575 48.9981 70.1924 50.005 70.9327 51.2859C71.3102 51.9433 71.6061 52.6972 72.2329 53.1235C72.738 53.4104 73.3037 53.5741 73.8839 53.6013C75.2494 53.772 76.6506 53.941 77.9884 53.6182C79.3261 53.2954 80.6077 52.3698 80.949 51.0367" stroke="#3A3A3A" stroke-width="2" stroke-miterlimit="10"/>
<path d="M85.3355 41.8693C85.4413 45.959 85.3841 50.0486 85.1639 54.1382L88.0659 53.5899C89.1356 53.3878 90.3526 53.079 90.836 52.1036C91.2867 51.1942 90.8578 50.0462 90.1075 49.3628C89.3571 48.6793 88.3573 48.3531 87.3901 48.0454L85.8059 47.5412" stroke="#3A3A3A" stroke-width="2" stroke-miterlimit="10"/>
<path d="M100.977 46.378C99.9176 46.2312 98.8366 46.0906 97.7837 46.2794C96.7308 46.4681 95.6919 47.0413 95.2065 47.9945C94.3099 49.7552 95.6836 51.9233 97.4245 52.8577C98.8736 53.6294 100.544 53.8807 102.156 53.5699" stroke="#3A3A3A" stroke-width="2" stroke-miterlimit="10"/>
<path d="M77.6792 32.3706C75.0145 34.876 72.3499 34.876 69.6852 32.3706C68.6043 31.3333 67.7467 30.086 67.1651 28.7053C66.5836 27.3246 66.2903 25.8396 66.3032 24.3415V-3.8147e-06H81.0612V24.3415C81.0742 25.8396 80.7808 27.3246 80.1993 28.7053C79.6177 30.086 78.7601 31.3333 77.6792 32.3706Z" fill="#74D14C"/>
<path d="M160.197 118.824C160.197 141.61 146.654 149.565 129.944 149.565C129.557 149.565 129.169 149.56 128.785 149.551C128.011 149.535 127.243 149.499 126.485 149.446C111.404 148.379 99.6897 140.014 99.6897 118.824C99.6897 96.8988 127.708 69.2289 129.818 67.1767C129.818 67.1764 129.818 67.176 129.818 67.1757C129.819 67.1753 129.819 67.175 129.819 67.1747C129.819 67.1745 129.82 67.1743 129.82 67.1741C129.82 67.174 129.821 67.1739 129.821 67.1739C129.902 67.0932 129.944 67.0542 129.944 67.0542C129.944 67.0542 160.197 96.0412 160.197 118.824Z" fill="#74D14C"/>
<path d="M128.841 146.079L139.907 130.619L128.813 147.778L128.785 149.551C128.011 149.535 127.243 149.499 126.485 149.446L127.677 126.651L127.669 126.473L127.688 126.443L127.802 124.287L116.681 107.087L127.836 122.672L127.863 123.129L128.763 105.907L119.243 88.1331L128.88 102.886L129.818 67.1767L129.821 67.0542V67.1739L129.665 95.3311L139.144 84.1679L129.626 97.7564L129.375 113.177L138.227 98.3774L129.339 115.447L129.2 124.02L142.045 103.42L129.15 127.011L128.841 146.079Z" fill="#3A3A3A"/>
</g>
<defs>
<clipPath id="clip0">
<rect width="300" height="209.636" fill="white"/>
</clipPath>
</defs>
</svg>
