<svg width="300" height="214" viewBox="0 0 300 214" fill="none" xmlns="http://www.w3.org/2000/svg">
<g clip-path="url(#clip0)">
<path opacity="0.1" d="M300 136.916C300.007 142.676 299.403 148.421 298.199 154.055C297.795 155.941 297.326 157.791 296.791 159.602C296.128 161.861 295.371 164.05 294.519 166.171C294.086 167.251 293.628 168.313 293.146 169.355C293.162 175.232 292.112 181.064 290.046 186.566C286.391 196.245 279.735 204.141 271.407 208.753C266.217 211.649 260.373 213.171 254.43 213.175H56.9501C46.395 213.175 36.6117 209.423 28.591 203.03C26.2459 201.154 24.0669 199.079 22.0781 196.828C19.3115 193.689 16.9096 190.246 14.9182 186.566C10.2978 178.071 7.63614 168.071 7.63614 157.369C2.80943 147.595 0 135.879 0 123.271C0 107.38 4.47267 92.8867 11.821 81.9114C13.3366 79.6425 15.0144 77.4863 16.8413 75.4596C18.606 73.4982 20.5259 71.6822 22.5824 70.0293C24.1947 68.7334 25.8971 67.5537 27.6766 66.499C28.4127 66.066 29.1513 65.6585 29.9027 65.279C30.5616 64.9394 31.2289 64.6227 31.9047 64.3289C32.7147 63.9723 33.5348 63.6454 34.3652 63.3483C35.1955 63.0511 36.0148 62.7905 36.8231 62.5663C38.0177 62.2326 39.2293 61.9631 40.4527 61.7589C41.4715 61.5831 42.4904 61.4532 43.5092 61.3692C44.3192 61.303 45.1359 61.2648 45.9595 61.2546C46.1098 61.2546 46.255 61.2546 46.4052 61.2546C47.312 61.2546 48.2137 61.2979 49.1077 61.3666C49.2019 61.1476 49.3038 60.9285 49.398 60.7095C49.7546 59.925 50.124 59.1456 50.4958 58.3764C50.4966 58.3696 50.4966 58.3628 50.4958 58.356C50.5595 58.2236 50.6232 58.1013 50.6894 57.9612C50.99 57.3346 51.3033 56.7131 51.6242 56.0967C51.7719 55.8115 51.9171 55.5287 52.0674 55.246C52.1005 55.1798 52.1336 55.1161 52.1718 55.0499C52.3246 54.757 52.48 54.4666 52.6379 54.1762C53.4241 52.7278 54.2417 51.3014 55.0908 49.8971C55.1646 49.7774 55.2334 49.6577 55.3073 49.5406C55.4397 49.3241 55.562 49.1076 55.7097 48.8936C56.0612 48.3231 56.4229 47.7551 56.7871 47.1922C57.0418 46.7948 57.2965 46.3975 57.5716 46.0052C58.2339 45.0118 58.9131 44.0312 59.6093 43.0633C60.3055 42.0954 61.0289 41.1276 61.7794 40.1597C61.8813 40.0272 61.9832 39.905 62.0901 39.7649L63.1777 38.3971L63.328 38.2112L63.7228 37.7298C64.3061 37.0191 64.9047 36.3161 65.5058 35.6208C68.5328 32.1319 71.792 28.8514 75.2611 25.8018C75.3961 25.677 75.5336 25.5471 75.6686 25.4401C76.3156 24.8772 76.9727 24.3219 77.6299 23.7769C81.2116 20.8071 84.9908 18.0839 88.9414 15.6262C89.2114 15.453 89.4865 15.2849 89.7642 15.1168C93.254 12.9846 96.868 11.0623 100.587 9.36039C102.624 8.42306 104.683 7.55536 106.763 6.75728C108.144 6.23258 109.529 5.73844 110.933 5.26978C113.103 4.5532 115.3 3.9037 117.525 3.32127C124.049 1.62657 130.724 0.575546 137.453 0.183265C139.491 0.0610055 141.551 -0.000124225 143.635 -0.000124225C153.727 -0.00938875 163.766 1.45711 173.433 4.35283C173.522 4.52112 173.655 4.66189 173.818 4.7598C173.981 4.8577 174.168 4.909 174.358 4.9081H175.216C175.588 5.02526 175.957 5.14752 176.329 5.26978C178.406 5.95919 180.453 6.71398 182.47 7.53413L182.98 7.743C192.614 11.7065 201.593 17.1046 209.612 23.7539C210.208 24.2447 210.795 24.743 211.374 25.2491C212.077 24.7278 212.792 24.2294 213.519 23.7539C216.284 21.9258 219.269 20.4555 222.403 19.378C228.821 17.1689 235.74 16.8558 242.332 18.4764C250.801 20.5523 258.467 25.7024 264.659 33.0253C267.212 36.0684 269.456 39.3585 271.356 42.8468C271.496 43.1015 271.636 43.3563 271.771 43.611C273.444 46.7689 274.869 50.0517 276.035 53.4299C276.078 53.5522 276.121 53.6847 276.159 53.7967C277.252 57.0059 278.128 60.2845 278.783 63.6106C278.813 63.7787 278.849 63.9494 278.88 64.12C279.497 67.3644 279.916 70.6435 280.133 73.939C280.133 74.0587 280.133 74.1785 280.153 74.2982C280.26 76.0064 280.315 77.7333 280.316 79.4789C280.316 81.0411 280.273 82.5881 280.186 84.1197C280.186 84.2904 280.166 84.4636 280.153 84.6291C280.13 85.0749 280.097 85.5206 280.064 85.9638C282.029 87.7975 283.849 89.7799 285.51 91.8934C286.252 92.8324 286.97 93.8045 287.665 94.8098C289.802 97.912 291.661 101.198 293.217 104.629C297.524 114.04 300 125.089 300 136.916Z" fill="url(#paint0_linear)"/>
<path opacity="0.1" d="M273.256 203.333C273.256 207.116 261.559 210.567 242.339 213.175H62.006C42.7883 210.567 31.0922 207.116 31.0922 203.333C31.0922 200.453 37.8776 197.763 49.6094 195.491L49.9405 195.427C53.2517 194.793 56.9526 194.192 60.9974 193.629L61.3056 193.586C64.5149 193.142 67.9289 192.724 71.5474 192.33L71.8887 192.294C73.2845 192.141 74.7092 191.994 76.1627 191.851L76.7231 191.798C87.3062 190.779 99.336 189.953 112.382 189.401H112.397C114.225 189.324 116.071 189.253 117.937 189.187C120.012 189.11 122.113 189.042 124.239 188.983C125.861 188.935 127.504 188.894 129.152 188.856H129.19C136.625 188.68 144.307 188.588 152.162 188.588C171.586 188.588 189.946 189.146 206.214 190.137H206.26C208.761 190.29 211.216 190.45 213.611 190.623L215.648 190.774C218.35 190.977 220.982 191.193 223.544 191.421C253.684 194.103 273.256 198.44 273.256 203.333Z" fill="#43CFD9"/>
<path opacity="0.03" d="M80.7194 26.8258V34.5511C80.7198 34.6885 80.693 34.8245 80.6407 34.9515C80.5884 35.0785 80.5115 35.194 80.4145 35.2912C80.3175 35.3884 80.2022 35.4656 80.0754 35.5182C79.9485 35.5709 79.8125 35.598 79.6751 35.598H65.5338C68.5608 32.1091 71.82 28.8286 75.2891 25.779H79.6777C79.8148 25.7793 79.9506 25.8067 80.0771 25.8595C80.2037 25.9122 80.3186 25.9894 80.4154 26.0867C80.5121 26.1839 80.5888 26.2992 80.6409 26.426C80.6931 26.5528 80.7198 26.6887 80.7194 26.8258V26.8258Z" stroke="white" stroke-miterlimit="10"/>
<path d="M253.768 26.8105V142.86C253.768 143.671 253.446 144.449 252.873 145.022C252.299 145.595 251.522 145.917 250.711 145.917H43.5092C42.6986 145.917 41.9211 145.595 41.3479 145.022C40.7747 144.449 40.4527 143.671 40.4527 142.86V61.759C41.4715 61.5832 42.4904 61.4533 43.5092 61.3693C44.3192 61.3031 45.1359 61.2649 45.9595 61.2547C46.1098 61.2547 46.2549 61.2547 46.4052 61.2547C47.312 61.2547 48.2136 61.298 49.1077 61.3667C49.2019 61.1477 49.3038 60.9286 49.398 60.7096C49.7546 59.9251 50.124 59.1457 50.4958 58.3765C50.4966 58.3697 50.4966 58.3629 50.4958 58.3561C50.5595 58.2237 50.6232 58.1014 50.6894 57.9613C50.99 57.3347 51.3032 56.7132 51.6242 56.0968C51.7719 55.8116 51.9171 55.5288 52.0674 55.2461C52.1005 55.1799 52.1336 55.1162 52.1718 55.05C52.3246 54.7571 52.48 54.4667 52.6379 54.1763C53.4241 52.7279 54.2417 51.3015 55.0908 49.8973C55.1646 49.7775 55.2334 49.6578 55.3073 49.5407C55.4397 49.3242 55.562 49.1077 55.7097 48.8937C56.0612 48.3232 56.4229 47.7552 56.7871 47.1923C57.0418 46.7949 57.2965 46.3976 57.5716 46.0053C58.2338 45.012 58.9131 44.0313 59.6093 43.0634C60.3055 42.0956 61.0288 41.1277 61.7794 40.1598C61.8813 40.0273 61.9831 39.9051 62.0901 39.765L63.1777 38.3972L63.328 38.2113L63.7228 37.7299C64.3061 37.0192 64.9046 36.3162 65.5058 35.6209C68.5328 32.132 71.792 28.8516 75.2611 25.8019C75.3961 25.6771 75.5336 25.5472 75.6686 25.4402C76.3156 24.8773 76.9727 24.322 77.6298 23.777H209.619C210.215 24.2677 210.803 24.7661 211.382 25.2721C212.085 24.7508 212.8 24.2524 213.527 23.777H250.714C251.52 23.7776 252.294 24.0968 252.866 24.665C253.438 25.2332 253.762 26.0043 253.768 26.8105Z" fill="white"/>
<path d="M241.55 45.9901V48.8784H55.7275C56.079 48.3079 56.4407 47.7399 56.8075 47.177C57.0622 46.7796 57.3169 46.3823 57.5895 45.9901H241.55Z" fill="#3A3A3A"/>
<path d="M201.693 141.875V31.8792H198.805V141.875H201.693Z" fill="#3A3A3A"/>
<path d="M148.553 141.875V31.8792H145.665V141.875H148.553Z" fill="#3A3A3A"/>
<path d="M95.4136 141.875V31.8792H92.5252V141.875H95.4136Z" fill="#3A3A3A"/>
<path d="M62.2506 55.0347V66.41H50.5035V58.3612C50.5035 58.3612 50.5035 58.3485 50.5035 58.3408C50.5672 58.2084 50.6308 58.0861 50.6971 57.946C51.0002 57.3195 51.3109 56.698 51.6344 56.0816C51.7796 55.7963 51.9247 55.5136 52.075 55.2309C52.1081 55.1646 52.1438 55.101 52.1795 55.0347H62.2506Z" fill="url(#paint1_linear)"/>
<path d="M62.0494 55.2309V66.2139H50.7072V57.9384C51.0103 57.3118 51.3211 56.6903 51.6445 56.0739C51.7897 55.7887 51.9349 55.5059 52.0852 55.2232L62.0494 55.2309Z" fill="#557AFF"/>
<path d="M109.833 51.5682H98.0829V62.9434H109.833V51.5682Z" fill="url(#paint2_linear)"/>
<path d="M109.631 51.7643H98.2867V62.7473H109.631V51.7643Z" fill="#557AFF"/>
<path d="M162.901 73.6539H151.151V85.0291H162.901V73.6539Z" fill="url(#paint3_linear)"/>
<path d="M162.7 73.85H151.355V84.833H162.7V73.85Z" fill="#557AFF"/>
<path d="M217.052 81.1881H205.302V92.5634H217.052V81.1881Z" fill="url(#paint4_linear)"/>
<path d="M216.848 81.3843H205.503V92.3673H216.848V81.3843Z" fill="#74D14C"/>
<path d="M231.56 88.5517H219.81V99.927H231.56V88.5517Z" fill="url(#paint5_linear)"/>
<path d="M231.359 88.7479H220.014V99.7309H231.359V88.7479Z" fill="#74D14C"/>
<path d="M249.756 68.8756H238.007V80.2508H249.756V68.8756Z" fill="url(#paint6_linear)"/>
<path d="M249.553 69.0717H238.208V80.0547H249.553V69.0717Z" fill="#557AFF"/>
<path d="M246.073 84.8355H234.324V96.2108H246.073V84.8355Z" fill="url(#paint7_linear)"/>
<path d="M245.87 85.0317H234.525V96.0147H245.87V85.0317Z" fill="#557AFF"/>
<path d="M125.861 51.5682H114.112V62.9434H125.861V51.5682Z" fill="url(#paint8_linear)"/>
<path d="M125.66 51.7643H114.315V62.7473H125.66V51.7643Z" fill="#74D14C"/>
<path d="M70.9616 79.1454H59.212V90.5206H70.9616V79.1454Z" fill="url(#paint9_linear)"/>
<path d="M70.7578 79.3415H59.4131V90.3245H70.7578V79.3415Z" fill="#FF9255"/>
<path d="M118.312 67.9662H106.562V79.3415H118.312V67.9662Z" fill="url(#paint10_linear)"/>
<path d="M118.111 68.1624H106.766V79.1454H118.111V68.1624Z" fill="#FF9255"/>
<path d="M179.554 61.1681H167.804V72.5434H179.554V61.1681Z" fill="url(#paint11_linear)"/>
<path d="M179.35 61.3642H168.005V72.3472H179.35V61.3642Z" fill="#FF9255"/>
<path d="M241.547 53.1906H229.797V64.5659H241.547V53.1906Z" fill="url(#paint12_linear)"/>
<path d="M241.346 53.3868H230.001V64.3698H241.346V53.3868Z" fill="#FF9255"/>
<path d="M195.055 51.5682H183.306V62.9434H195.055V51.5682Z" fill="url(#paint13_linear)"/>
<path d="M194.852 51.7643H183.507V62.7473H194.852V51.7643Z" fill="#FF9255"/>
<path d="M194.388 73.6539H182.638V85.0291H194.388V73.6539Z" fill="url(#paint14_linear)"/>
<path d="M194.187 73.85H182.842V84.833H194.187V73.85Z" fill="#FF9255"/>
<path d="M141.638 57.0622H129.888V68.4375H141.638V57.0622Z" fill="url(#paint15_linear)"/>
<path d="M141.437 57.2558H130.092V68.2388H141.437V57.2558Z" fill="#FF9255"/>
<path d="M79.2091 60.7224H67.4594V72.0976H79.2091V60.7224Z" fill="url(#paint16_linear)"/>
<path d="M79.0078 60.9185H67.6631V71.9015H79.0078V60.9185Z" fill="#EA1FFC"/>
<path d="M85.0851 73.6539H73.3354V85.0291H85.0851V73.6539Z" fill="url(#paint17_linear)"/>
<path d="M84.8815 73.85H73.5367V84.833H84.8815V73.85Z" fill="#EA1FFC"/>
<path d="M133.821 75.5005H122.071V86.8758H133.821V75.5005Z" fill="url(#paint18_linear)"/>
<path d="M133.617 75.6966H122.273V86.6796H133.617V75.6966Z" fill="#EA1FFC"/>
<path d="M219.81 53.1906H208.061V64.5659H219.81V53.1906Z" fill="url(#paint19_linear)"/>
<path d="M219.609 53.3868H208.264V64.3698H219.609V53.3868Z" fill="#EA1FFC"/>
<path d="M230.207 68.8756H218.458V80.2508H230.207V68.8756Z" fill="url(#paint20_linear)"/>
<path d="M230.006 69.0717H218.662V80.0547H230.006V69.0717Z" fill="#EA1FFC"/>
<path d="M163.927 51.5682H152.178V62.9434H163.927V51.5682Z" fill="url(#paint21_linear)"/>
<path d="M163.726 51.7643H152.382V62.7473H163.726V51.7643Z" fill="#EA1FFC"/>
<path d="M178.224 84.8355H166.475V96.2108H178.224V84.8355Z" fill="url(#paint22_linear)"/>
<path d="M178.02 85.0317H166.676V96.0147H178.02V85.0317Z" fill="#EA1FFC"/>
<path d="M210.822 77.9075C210.789 79.1989 210.35 80.4546 210.282 81.7434C214.102 81.9319 217.844 80.0853 221.611 80.6507C220.559 79.9707 219.996 78.7404 219.665 77.5305C219.242 75.9701 219.116 74.344 219.293 72.7369C219.303 72.6511 219.318 72.566 219.339 72.4822C219.479 71.8505 219.849 70.954 219.744 70.4573C219.617 69.8001 218.995 69.93 218.437 69.9683C216.734 70.0986 215.039 70.3171 213.359 70.6228C212.92 70.6993 208.654 71.7639 208.59 71.6544C209.293 72.8694 210.009 74.1327 210.437 75.4572C210.702 76.2466 210.832 77.0749 210.822 77.9075Z" fill="#EE8E9E"/>
<path d="M173.178 73.9137C173.505 74.3604 173.898 74.7554 174.342 75.0853C174.63 75.3222 174.926 75.5642 175.236 75.7807C175.789 76.204 176.447 76.4682 177.139 76.5448C178.046 76.6059 179.971 76.0736 180.534 75.2967C180.772 74.9067 180.885 74.4535 180.858 73.9977C180.848 73.3792 180.743 72.7658 180.547 72.1791C180.193 71.2256 179.698 70.3308 179.077 69.5251C178.423 68.6132 177.694 67.7166 176.719 67.1639C176.394 66.9902 176.059 66.8362 175.715 66.7029L173.932 65.9744C173.831 65.9263 173.721 65.8978 173.609 65.8904C173.133 65.8904 173.046 66.6214 173.316 67.0136C173.856 67.8058 175.071 68.0325 175.412 68.924C175.124 68.9307 174.845 69.0292 174.616 69.205C174.387 69.3808 174.22 69.6249 174.139 69.902C174.125 70.0492 174.066 70.1883 173.968 70.2994C173.813 70.4242 173.568 70.3529 173.39 70.4471C173.077 70.6152 173.214 71.0839 173.181 71.4405C173.15 71.7563 172.952 72.0288 172.855 72.3319C172.789 72.6031 172.784 72.8856 172.84 73.159C172.896 73.4324 173.011 73.6901 173.178 73.9137Z" fill="#EE8E9E"/>
<path d="M225.648 203.509C225.355 203.216 224.884 203.267 224.466 203.331C222.27 203.678 220.05 203.857 217.826 203.868C217.549 202.508 218.356 201.186 218.616 199.823C218.65 199.473 218.736 199.13 218.87 198.805C219.181 198.203 219.889 197.928 220.552 197.786C221.749 197.531 223.608 197.088 224.288 198.295C225.101 199.75 225.358 201.894 225.648 203.509Z" fill="#3A3A3A"/>
<path d="M201.321 198.374C202.223 198.99 203.343 199.182 204.429 199.322C205.514 199.462 206.629 199.564 207.612 200.048C208.461 200.465 209.174 201.153 210.073 201.454C210.888 201.726 211.779 201.652 212.62 201.494C213.639 201.306 214.703 200.936 215.248 200.065C215.735 199.301 215.681 198.31 215.615 197.399C215.536 196.38 215.462 195.335 215.386 194.304C215.388 194.042 215.323 193.784 215.195 193.555C214.464 192.493 212.691 194.001 211.744 193.998C210.238 193.998 208.624 193.183 207.541 192.185C207.447 192.083 207.337 191.997 207.215 191.93C206.785 191.736 206.357 192.093 205.975 192.404C205.934 192.439 205.891 192.473 205.847 192.506C204.968 193.204 203.792 193.344 202.707 193.626C201.622 193.909 200.458 194.477 200.121 195.547C200.1 195.614 200.083 195.683 200.07 195.753C199.877 196.754 200.478 197.796 201.321 198.374Z" fill="#3A3A3A"/>
<path opacity="0.05" d="M201.321 198.374C202.223 198.99 203.343 199.182 204.429 199.322C205.514 199.462 206.629 199.564 207.612 200.048C208.461 200.465 209.174 201.153 210.073 201.454C210.888 201.726 211.779 201.652 212.62 201.494C213.639 201.306 214.703 200.936 215.248 200.065C215.735 199.301 215.681 198.31 215.615 197.399C215.536 196.38 215.462 195.335 215.386 194.304C215.388 194.042 215.323 193.784 215.195 193.555C214.464 192.493 212.691 194.001 211.744 193.998C210.238 193.998 208.624 193.183 207.541 192.185C207.447 192.083 207.337 191.997 207.215 191.93C206.785 191.736 206.357 192.093 205.975 192.404C205.934 192.439 205.891 192.473 205.847 192.506C204.968 193.204 203.792 193.344 202.707 193.626C201.622 193.909 200.458 194.477 200.121 195.547C200.1 195.614 200.083 195.683 200.07 195.753C199.877 196.754 200.478 197.796 201.321 198.374Z" fill="#3A3A3A"/>
<path d="M201.321 198.721C202.223 199.337 203.343 199.528 204.429 199.668C205.514 199.808 206.629 199.91 207.612 200.394C208.461 200.814 209.174 201.499 210.073 201.8C210.888 202.072 211.779 201.999 212.62 201.841C213.695 201.612 214.638 200.972 215.249 200.058C215.735 199.294 215.682 198.303 215.615 197.391C215.536 196.372 215.462 195.328 215.386 194.296C215.388 194.034 215.323 193.776 215.195 193.547C214.464 192.485 212.691 193.993 211.744 193.991C210.238 193.991 208.624 193.176 207.541 192.177C207.447 192.075 207.337 191.989 207.215 191.922C206.785 191.729 206.357 192.085 205.975 192.396C206.226 193.168 206.582 193.901 207.032 194.576C207.796 195.695 208.998 196.55 210.343 196.65C211.015 196.698 211.706 196.566 212.355 196.739C213.005 196.912 213.611 197.577 213.374 198.209C213.137 198.84 212.355 198.973 211.698 198.996C210.778 199.044 209.836 199.09 208.965 198.805C208.433 198.626 207.946 198.333 207.437 198.117C205.233 197.202 202.449 197.714 200.628 196.171C200.456 196.013 200.271 195.87 200.073 195.746C199.597 196.754 200.478 198.142 201.321 198.721Z" fill="#EFEFEF"/>
<path opacity="0.05" d="M201.321 198.721C202.223 199.337 203.343 199.528 204.429 199.668C205.514 199.808 206.629 199.91 207.612 200.394C208.461 200.814 209.174 201.499 210.073 201.8C210.888 202.072 211.779 201.999 212.62 201.841C213.695 201.612 214.638 200.972 215.249 200.058C215.735 199.294 215.682 198.303 215.615 197.391C215.536 196.372 215.462 195.328 215.386 194.296C215.388 194.034 215.323 193.776 215.195 193.547C214.464 192.485 212.691 193.993 211.744 193.991C210.238 193.991 208.624 193.176 207.541 192.177C207.447 192.075 207.337 191.989 207.215 191.922C206.785 191.729 206.357 192.085 205.975 192.396C206.226 193.168 206.582 193.901 207.032 194.576C207.796 195.695 208.998 196.55 210.343 196.65C211.015 196.698 211.706 196.566 212.355 196.739C213.005 196.912 213.611 197.577 213.374 198.209C213.137 198.84 212.355 198.973 211.698 198.996C210.778 199.044 209.836 199.09 208.965 198.805C208.433 198.626 207.946 198.333 207.437 198.117C205.233 197.202 202.449 197.714 200.628 196.171C200.456 196.013 200.271 195.87 200.073 195.746C199.597 196.754 200.478 198.142 201.321 198.721Z" fill="#3A3A3A"/>
<path d="M225.238 131.276C225.941 134.725 225.274 138.311 223.379 141.276C222.869 142.076 222.258 142.827 221.871 143.696C221.617 144.317 221.419 144.96 221.28 145.616L219.609 152.542C219.156 154.412 218.702 156.317 218.845 158.235C218.939 159.572 219.275 161.075 218.453 162.132C218.25 162.333 218.078 162.563 217.943 162.814C217.864 163.11 217.864 163.421 217.943 163.716C218.789 168.744 219.418 173.999 217.89 178.863C216.504 183.272 216.423 188.158 215.246 192.618C215.101 193.173 214.933 193.756 214.512 194.146C214.197 194.407 213.82 194.582 213.417 194.655C211.68 195.071 209.851 194.584 208.226 193.835C207.088 193.308 205.863 192.383 205.959 191.133C206.008 190.537 206.354 190.015 206.591 189.467C207.052 188.392 207.1 187.192 207.215 186.028C207.528 183.104 208.43 180.285 209.11 177.424C209.79 174.564 210.254 171.579 209.678 168.696C208.505 162.735 206.623 156.936 204.074 151.421C203.964 151.131 203.79 150.87 203.565 150.657C203.336 150.469 203.033 150.382 202.837 150.148C202.64 149.913 202.582 149.557 202.505 149.244C202.251 148.332 201.499 147.659 200.995 146.857C199.722 144.835 200.124 142.242 200.172 139.852C200.218 137.527 199.885 135.181 200.264 132.889C200.644 130.596 201.958 128.253 204.169 127.54C205.264 127.186 206.448 127.265 207.595 127.379C213.641 127.983 219.535 129.096 225.238 131.276Z" fill="#3A3A3A"/>
<path opacity="0.05" d="M225.238 131.276C225.941 134.725 225.274 138.311 223.379 141.276C222.869 142.076 222.258 142.827 221.871 143.696C221.617 144.317 221.419 144.96 221.28 145.616L219.609 152.542C219.156 154.412 218.702 156.317 218.845 158.235C218.939 159.572 219.275 161.075 218.453 162.132C218.25 162.333 218.078 162.563 217.943 162.814C217.864 163.11 217.864 163.421 217.943 163.716C218.789 168.744 219.418 173.999 217.89 178.863C216.504 183.272 216.423 188.158 215.246 192.618C215.101 193.173 214.933 193.756 214.512 194.146C214.197 194.407 213.82 194.582 213.417 194.655C211.68 195.071 209.851 194.584 208.226 193.835C207.088 193.308 205.863 192.383 205.959 191.133C206.008 190.537 206.354 190.015 206.591 189.467C207.052 188.392 207.1 187.192 207.215 186.028C207.528 183.104 208.43 180.285 209.11 177.424C209.79 174.564 210.254 171.579 209.678 168.696C208.505 162.735 206.623 156.936 204.074 151.421C203.964 151.131 203.79 150.87 203.565 150.657C203.336 150.469 203.033 150.382 202.837 150.148C202.64 149.913 202.582 149.557 202.505 149.244C202.251 148.332 201.499 147.659 200.995 146.857C199.722 144.835 200.124 142.242 200.172 139.852C200.218 137.527 199.885 135.181 200.264 132.889C200.644 130.596 201.958 128.253 204.169 127.54C205.264 127.186 206.448 127.265 207.595 127.379C213.641 127.983 219.535 129.096 225.238 131.276Z" fill="#3A3A3A"/>
<path d="M200.511 145.853C200.53 146.756 200.633 147.654 200.817 148.538C201.887 154.541 203.027 160.53 204.237 166.505C204.344 167.014 204.449 167.542 204.589 168.051C205.041 169.714 205.83 171.266 206.907 172.61C211.95 178.897 212.386 188.028 215.124 195.611C215.307 196.12 215.493 196.629 215.689 197.139C216.183 198.425 216.746 199.682 217.378 200.906C217.451 201.085 217.57 201.24 217.724 201.357C217.894 201.442 218.085 201.479 218.274 201.464C220.74 201.48 223.176 200.929 225.394 199.851C225.713 199.736 225.982 199.515 226.158 199.225C226.241 198.994 226.268 198.745 226.237 198.501C226.16 196.999 226.069 195.445 225.353 194.121C224.876 193.33 224.286 192.614 223.6 191.996C223.386 187.279 222.92 182.552 221.884 177.944C221.351 175.588 220.692 173.206 219.337 171.215C218.318 169.745 216.881 168.296 217.06 166.52C217.138 165.756 217.464 164.773 216.83 164.315C216.553 164.113 216.143 164.088 215.957 163.805C215.882 163.671 215.84 163.521 215.834 163.367C215.703 162.15 215.779 160.919 216.058 159.727C216.242 158.938 216.517 158.163 216.601 157.356C216.685 156.549 216.542 155.67 216.005 155.064C215.972 153.444 216.005 151.752 215.982 150.148C215.967 149.223 215.949 148.286 216.209 147.402C216.334 146.977 216.52 146.572 216.614 146.128C216.953 144.575 216.104 142.71 217.123 141.477C217.543 140.968 218.19 140.713 218.738 140.341C219.836 139.608 220.554 138.411 220.954 137.155C221.354 135.899 221.463 134.57 221.583 133.253C221.612 132.973 221.612 132.69 221.583 132.41C221.566 132.265 221.528 132.124 221.471 131.99C221.158 131.287 220.317 131.014 219.568 130.833C214.814 129.693 209.94 129.123 205.05 129.137C203.242 127.904 202.223 128.345 201.456 129.646C201.034 130.443 200.693 131.28 200.437 132.145C200.086 133.202 200.065 139.127 199.724 140.189C199.248 141.579 200.529 144.402 200.511 145.853Z" fill="#3A3A3A"/>
<path d="M233.213 91.9521C233.348 92.8843 232.9 93.8013 232.849 94.7411C232.806 95.5613 233.068 96.3636 233.218 97.1736C233.801 100.332 232.681 103.529 231.537 106.529C231.321 107.013 231.187 107.529 231.14 108.057C231.109 109.038 231.672 109.934 231.827 110.902C232.151 112.94 230.653 114.848 230.62 116.908C230.62 117.856 230.905 118.821 230.669 119.738C230.511 120.352 230.129 120.877 229.856 121.45C229.375 122.469 229.247 123.612 228.786 124.634C227.958 126.483 226.175 127.69 224.482 128.798C223.516 128.477 222.472 128.095 221.935 127.227C221.702 126.799 221.553 126.332 221.494 125.849C221.127 123.742 221.14 121.592 221.153 119.455C221.126 117.624 221.227 115.792 221.453 113.974C221.795 111.651 222.548 109.412 223.088 107.128C223.771 104.247 224.107 101.269 225.182 98.5057C226.114 96.0758 227.569 93.8955 229.1 91.8095C229.683 91.0122 230.144 89.8737 231.277 90.0571C231.755 90.1378 232.196 90.3626 232.542 90.7014C232.888 91.0401 233.122 91.4765 233.213 91.9521Z" fill="#74D14C"/>
<path opacity="0.05" d="M233.213 91.9521C233.348 92.8843 232.9 93.8013 232.849 94.7411C232.806 95.5613 233.068 96.3636 233.218 97.1736C233.801 100.332 232.681 103.529 231.537 106.529C231.321 107.013 231.187 107.529 231.14 108.057C231.109 109.038 231.672 109.934 231.827 110.902C232.151 112.94 230.653 114.848 230.62 116.908C230.62 117.856 230.905 118.821 230.669 119.738C230.511 120.352 230.129 120.877 229.856 121.45C229.375 122.469 229.247 123.612 228.786 124.634C227.958 126.483 226.175 127.69 224.482 128.798C223.516 128.477 222.472 128.095 221.935 127.227C221.702 126.799 221.553 126.332 221.494 125.849C221.127 123.742 221.14 121.592 221.153 119.455C221.126 117.624 221.227 115.792 221.453 113.974C221.795 111.651 222.548 109.412 223.088 107.128C223.771 104.247 224.107 101.269 225.182 98.5057C226.114 96.0758 227.569 93.8955 229.1 91.8095C229.683 91.0122 230.144 89.8737 231.277 90.0571C231.755 90.1378 232.196 90.3626 232.542 90.7014C232.888 91.0401 233.122 91.4765 233.213 91.9521Z" fill="#3A3A3A"/>
<path opacity="0.1" d="M208.583 71.6442C209.286 72.8592 210.002 74.1225 210.429 75.447C211.115 75.6161 211.819 75.7016 212.526 75.7017C215.269 75.7017 217.212 74.1404 218.825 72.1689C218.965 71.5347 219.843 70.9463 219.736 70.4471C219.609 69.7899 218.988 69.9199 218.43 69.9581C216.727 70.0884 215.031 70.3069 213.351 70.6127C212.913 70.6891 208.654 71.7537 208.583 71.6442Z" fill="#3A3A3A"/>
<path d="M212.533 75.4623C217.388 75.4623 221.323 71.5269 221.323 66.6723C221.323 61.8178 217.388 57.8824 212.533 57.8824C207.679 57.8824 203.743 61.8178 203.743 66.6723C203.743 71.5269 207.679 75.4623 212.533 75.4623Z" fill="#EE8E9E"/>
<path opacity="0.1" d="M201.426 129.654C202.954 129.565 204.482 129.626 206.01 129.687C206.965 129.697 207.916 129.795 208.853 129.98C210.007 130.235 211.087 130.767 212.225 131.096C214.049 131.628 215.974 131.651 217.862 131.837C219.102 131.958 220.335 132.151 221.553 132.415C221.536 132.27 221.498 132.129 221.44 131.995C221.127 131.292 220.287 131.019 219.538 130.838C214.783 129.698 209.909 129.128 205.019 129.142C203.211 127.909 202.192 128.35 201.426 129.654Z" fill="#3A3A3A"/>
<path d="M207.416 81.0633C207.801 81.5065 208.315 81.9956 208.883 81.8529C209.088 81.7817 209.281 81.6786 209.454 81.5473C210.473 80.8927 211.711 80.7398 212.903 80.5616C215.306 80.1993 217.68 79.6656 220.006 78.9645C220.682 78.7182 221.39 78.574 222.108 78.5366C223.598 78.5366 224.91 79.5351 225.852 80.6965C226.794 81.858 227.446 83.2156 228.363 84.3898C229.015 85.2278 229.792 85.9665 230.401 86.835C231.929 89.028 232.271 91.891 231.873 94.5425C231.476 97.194 230.416 99.6901 229.367 102.158C228.766 103.572 228.16 104.993 227.329 106.282C227.683 108.297 227.497 110.599 226.54 112.395C226.226 112.983 225.844 113.556 225.742 114.216C225.694 114.661 225.712 115.111 225.796 115.551L226.244 118.732C226.379 119.703 226.517 120.67 226.692 121.633C227.016 123.396 227.457 125.309 226.639 126.903C225.661 128.811 226.687 131.259 226.43 133.388C223.68 132.325 220.799 131.639 217.864 131.35C215.974 131.164 214.044 131.141 212.228 130.612C211.089 130.281 210.012 129.756 208.855 129.491C207.918 129.307 206.965 129.21 206.01 129.201C203.904 129.117 201.782 129.032 199.699 129.343C199.528 129.369 199.324 129.381 199.222 129.244C199.176 129.167 199.154 129.078 199.159 128.989C199.126 128.208 199.313 127.433 199.699 126.753C199.953 126.284 200.333 125.823 200.323 125.286C200.304 125.034 200.242 124.788 200.139 124.557L199.217 122.092C198.435 120.013 198.807 117.596 198.402 115.413C198.086 113.706 197.883 111.979 197.796 110.245C197.719 108.763 197.768 107.156 198.662 105.971C198.924 105.686 199.15 105.371 199.337 105.031C199.466 104.672 199.52 104.29 199.497 103.908C199.518 100.943 199.433 97.9793 199.243 95.0162C200.025 93.6153 200.837 92.1813 201.616 90.7804C202.523 89.1503 203.445 87.4871 203.812 85.6583C204.067 84.4458 204.046 83.2003 204.22 81.9777C204.237 81.6665 204.345 81.3672 204.53 81.1168C204.828 80.7806 205.33 80.7322 205.781 80.7449C206.339 80.7672 206.89 80.8746 207.416 81.0633Z" fill="#74D14C"/>
<path opacity="0.1" d="M175.234 75.7807C175.787 76.204 176.445 76.4682 177.137 76.5448C178.043 76.606 179.969 76.0736 180.532 75.2968C180.769 74.9067 180.882 74.4535 180.855 73.9977C180.733 73.9578 180.607 73.933 180.478 73.9239C179.493 73.8653 178.487 73.8067 177.529 74.0436C176.571 74.2805 175.644 74.8612 175.236 75.7629L175.234 75.7807Z" fill="#3A3A3A"/>
<path d="M204.482 94.7946C203.945 95.4594 203.389 96.1471 202.63 96.5394C201.757 96.9928 200.728 97.003 199.744 96.9826C195.693 96.8961 191.657 96.4528 187.684 95.6581C187.232 95.5804 186.787 95.461 186.357 95.3015C185.88 95.0741 185.429 94.7939 185.015 94.4661C183.708 93.5262 182.381 92.5685 181.385 91.3C180.203 89.7694 179.46 87.9459 179.235 86.025C178.288 85.1539 177.786 83.9135 177.312 82.7138C177.079 82.2056 176.931 81.6627 176.874 81.1066C176.849 80.5386 177.226 79.9426 177.129 79.3823C176.947 78.4178 176.458 77.5379 175.736 76.8734C175.581 76.7647 175.465 76.6107 175.402 76.4327C175.383 76.2842 175.412 76.1337 175.484 76.0023C175.886 75.1006 176.813 74.5199 177.776 74.283C178.739 74.0461 179.74 74.1072 180.725 74.1658C181.082 74.1888 181.342 74.3543 181.691 74.4205L182.378 76.2315C182.472 76.5342 182.625 76.8149 182.829 77.0568C182.982 77.1952 183.145 77.3229 183.316 77.4388C183.664 77.7356 183.934 78.1132 184.103 78.5385C184.272 78.9639 184.334 79.4241 184.284 79.8789C184.905 80.1199 185.411 80.5884 185.699 81.1894C185.988 81.7903 186.036 82.4784 185.835 83.1137C186.352 83.2249 186.832 83.4669 187.229 83.8165C187.626 84.1661 187.926 84.6117 188.102 85.1106C188.151 85.3379 188.252 85.5507 188.397 85.7321C188.623 85.9078 188.903 85.998 189.189 85.9868C189.953 86.0352 190.644 86.6465 191.349 86.3154C192.145 85.9418 193.036 85.8167 193.904 85.9563C194.083 85.999 194.268 86.0153 194.452 86.0047C194.608 85.9772 194.76 85.9247 194.9 85.8493C195.218 85.6651 195.561 85.5294 195.919 85.4469C196.099 85.4095 196.285 85.425 196.457 85.4915C196.628 85.5579 196.776 85.6724 196.884 85.8213C197.139 85.5513 197.279 85.2049 197.503 84.9171C197.602 84.7627 197.742 84.639 197.908 84.5598C198.074 84.4806 198.258 84.4491 198.44 84.4688C198.206 84.2599 198.44 83.8447 198.749 83.7683C199.057 83.6919 199.373 83.804 199.686 83.804C200.498 83.804 201.122 83.0602 201.912 82.8667C202.638 82.6909 203.606 82.9023 203.978 82.2528C204.11 82.0236 204.136 81.7128 204.36 81.5727C204.511 81.4972 204.684 81.4765 204.849 81.5142C205.365 81.5833 205.866 81.7355 206.334 81.965C207.098 84.9425 206.695 88.0347 206.115 91.053C205.837 92.487 205.399 93.6485 204.482 94.7946Z" fill="#74D14C"/>
<path opacity="0.1" d="M204.507 105.464L208.292 113.106C207.882 112.4 207.019 112.125 206.339 111.674C205.473 111.05 204.821 110.174 204.472 109.165C204.122 108.159 203.878 107.119 203.743 106.063C203.667 105.579 203.506 104.899 203.743 104.461C204.184 104.55 204.327 105.105 204.507 105.464Z" fill="#3A3A3A"/>
<path opacity="0.1" d="M215.396 111.936C216.249 112.782 217.296 113.404 218.236 114.152C220.432 115.9 221.996 118.299 223.524 120.653C223.956 121.272 224.318 121.936 224.604 122.634C224.426 122.79 224.158 122.634 223.982 122.474L221.007 119.86C220.643 119.562 220.311 119.225 220.017 118.857C219.507 118.164 219.273 117.296 218.804 116.565C218.336 115.833 217.653 115.291 216.998 114.723C216.344 114.155 213.178 111.486 213.942 110.457C214.495 110.732 214.95 111.496 215.396 111.936Z" fill="#3A3A3A"/>
<path d="M208.901 78.8576C209.844 78.2692 210.954 78.0221 212.047 77.8209C212.703 77.6719 213.378 77.6238 214.049 77.6783C214.668 77.7547 215.261 77.9941 215.885 78.0272C216.759 78.0781 217.597 77.7216 218.432 77.4923C219.268 77.2631 220.254 77.1714 220.964 77.6833C221.115 77.8321 221.306 77.9338 221.514 77.9763C221.73 77.95 221.93 77.8512 222.082 77.6961C222.681 77.2684 223.406 77.0567 224.141 77.0955C224.875 77.1344 225.575 77.4216 226.125 77.91C227.737 79.4205 227.556 82.3725 229.436 83.5136C229.958 83.8295 230.623 83.9976 230.926 84.5324C230.998 84.701 231.083 84.8636 231.18 85.0189C231.307 85.158 231.461 85.2684 231.634 85.3424C232.182 85.587 232.705 85.8866 233.193 86.2364C233.436 86.4136 233.64 86.638 233.794 86.8963C233.948 87.1545 234.049 87.4412 234.089 87.7392C234.098 88.1796 234.003 88.616 233.812 89.0128C232.888 91.28 231.285 93.2055 229.222 94.5246C227.16 95.8436 224.739 96.4914 222.294 96.3789C221.863 96.3585 221.397 96.2999 221.086 96.0019C220.905 95.7975 220.762 95.5619 220.664 95.3066C219.777 93.4447 218.117 92.0692 217.049 90.299C216.418 89.2445 216.013 88.0652 215.355 87.026C214.377 85.4468 212.862 84.2726 211.385 83.1545C210.549 82.5177 209.619 81.8504 208.568 81.8937C207.633 81.9344 206.95 81.9854 207.294 80.8366C207.576 80.0061 208.146 79.304 208.901 78.8576Z" fill="#74D14C"/>
<path opacity="0.05" d="M208.901 78.8576C209.844 78.2692 210.954 78.0221 212.047 77.8209C212.703 77.6719 213.378 77.6238 214.049 77.6783C214.668 77.7547 215.261 77.9941 215.885 78.0272C216.759 78.0781 217.597 77.7216 218.432 77.4923C219.268 77.2631 220.254 77.1714 220.964 77.6833C221.115 77.8321 221.306 77.9338 221.514 77.9763C221.73 77.95 221.93 77.8512 222.082 77.6961C222.681 77.2684 223.406 77.0567 224.141 77.0955C224.875 77.1344 225.575 77.4216 226.125 77.91C227.737 79.4205 227.556 82.3725 229.436 83.5136C229.958 83.8295 230.623 83.9976 230.926 84.5324C230.998 84.701 231.083 84.8636 231.18 85.0189C231.307 85.158 231.461 85.2684 231.634 85.3424C232.182 85.587 232.705 85.8866 233.193 86.2364C233.436 86.4136 233.64 86.638 233.794 86.8963C233.948 87.1545 234.049 87.4412 234.089 87.7392C234.098 88.1796 234.003 88.616 233.812 89.0128C232.888 91.28 231.285 93.2055 229.222 94.5246C227.16 95.8436 224.739 96.4914 222.294 96.3789C221.863 96.3585 221.397 96.2999 221.086 96.0019C220.905 95.7975 220.762 95.5619 220.664 95.3066C219.777 93.4447 218.117 92.0692 217.049 90.299C216.418 89.2445 216.013 88.0652 215.355 87.026C214.377 85.4468 212.862 84.2726 211.385 83.1545C210.549 82.5177 209.619 81.8504 208.568 81.8937C207.633 81.9344 206.95 81.9854 207.294 80.8366C207.576 80.0061 208.146 79.304 208.901 78.8576Z" fill="#3A3A3A"/>
<path d="M204.327 206.268C204.963 206.861 205.84 207.121 206.688 207.307C208.621 207.73 210.598 207.88 212.569 208.033L214.489 208.18C216.364 208.32 218.241 208.466 220.124 208.473C222.446 208.482 224.765 208.281 227.052 207.875C227.143 207.884 227.236 207.872 227.322 207.839C227.409 207.806 227.486 207.753 227.548 207.684C227.609 207.616 227.654 207.534 227.678 207.445C227.702 207.356 227.705 207.262 227.686 207.172C227.646 204.83 227.361 202.498 226.835 200.216C226.616 199.278 224.935 201.38 224.861 201.469C224.395 201.999 224.041 202.233 223.333 202.279C221.4 202.386 219.232 201.209 217.696 200.165C217.368 199.919 217.018 199.703 216.652 199.518C216.385 199.392 216.101 199.306 215.809 199.263C214.813 199.171 213.812 199.374 212.931 199.846C211.777 200.419 210.763 201.242 209.619 201.831C208.691 202.309 207.687 202.627 206.652 202.77C205.605 202.916 204.36 202.984 203.817 203.891C203.371 204.65 203.692 205.669 204.327 206.268Z" fill="#3A3A3A"/>
<path d="M204.327 206.614C204.963 207.207 205.84 207.467 206.688 207.653C208.621 208.076 210.598 208.226 212.569 208.379L214.49 208.527C216.364 208.667 218.241 208.812 220.124 208.82C222.446 208.828 224.765 208.628 227.052 208.221C227.156 208.218 227.258 208.194 227.353 208.151C227.448 208.107 227.532 208.044 227.602 207.966C227.683 207.839 228.032 207.332 228.03 207.182C227.992 204.841 227.357 202.505 226.833 200.226C226.614 199.289 224.933 201.39 224.859 201.479C224.393 202.009 224.038 202.243 223.33 202.289C221.397 202.396 219.23 201.219 217.694 200.175C217.365 199.929 217.016 199.713 216.649 199.528C216.382 199.402 216.098 199.316 215.806 199.273C216.061 200.664 218.05 202.345 219.079 202.857C221.163 203.891 223.639 203.366 225.956 203.496C226.126 203.492 226.294 203.533 226.443 203.616C226.723 203.799 226.738 204.194 226.731 204.528C226.71 205.083 226.639 205.733 226.16 206.015C225.922 206.13 225.66 206.185 225.396 206.176C219.667 206.428 213.926 206.227 208.229 205.575C207.269 205.511 206.324 205.301 205.427 204.953C204.842 204.68 204.296 204.329 203.805 203.909C203.081 204.487 203.692 206.02 204.327 206.614Z" fill="#EFEFEF"/>
<path d="M209.113 66.5781C209.146 67.4874 208.527 69.25 210.226 68.7584C211.245 68.4629 211.525 67.2633 212.811 67.5307C214.097 67.7982 214.393 69.3824 214.828 70.4191C215.183 71.2433 215.732 71.9687 216.43 72.5328C217.128 73.0968 217.952 73.4825 218.832 73.6564C219.195 73.7418 219.572 73.7418 219.935 73.6564C220.765 73.4196 221.239 72.5637 221.578 71.7716C221.87 71.1007 222.112 70.4095 222.304 69.7034C222.434 69.2024 222.519 68.691 222.559 68.1751C222.585 67.8258 222.585 67.475 222.559 67.1257C222.403 65.06 221.229 63.1752 219.721 61.7488C218.213 60.3225 216.387 59.296 214.581 58.2797C213.991 57.911 213.352 57.6264 212.684 57.4341C212.025 57.3012 211.349 57.2737 210.682 57.3526C209.802 57.388 208.938 57.5912 208.135 57.9511C207.805 58.1139 207.503 58.3261 207.238 58.5803C206.865 58.9307 206.6 59.3806 206.474 59.8767C206.148 61.2139 206.999 62.4238 207.691 63.4707C208.305 64.4131 209.067 65.409 209.113 66.5781Z" fill="#3A3A3A"/>
<path opacity="0.1" d="M180.506 86.0862C180.871 85.1718 182.399 82.64 181.956 81.7689C181.498 82.4189 181.109 83.1145 180.794 83.8447C180.506 84.5528 180.741 85.5029 180.506 86.0862Z" fill="#3A3A3A"/>
<path opacity="0.1" d="M207.653 63.4758C206.96 62.4187 206.107 61.2165 206.433 59.8818C206.595 59.2951 206.941 58.7762 207.421 58.402C207.308 58.5973 207.223 58.8073 207.167 59.026C206.841 60.3607 207.694 61.5731 208.387 62.6199C209.001 63.5573 209.762 64.5532 209.808 65.7223C209.841 66.629 209.22 68.3942 210.921 67.9026C211.94 67.6097 212.22 66.4074 213.506 66.6774C214.793 66.9474 215.086 68.5266 215.521 69.5633C215.877 70.3882 216.429 71.114 217.128 71.678C217.827 72.242 218.654 72.6273 219.535 72.8006C219.898 72.886 220.276 72.886 220.638 72.8006C220.821 72.7459 220.994 72.6597 221.148 72.5459C220.888 73.0654 220.437 73.4636 219.889 73.6564C219.527 73.7418 219.149 73.7418 218.786 73.6564C217.908 73.4809 217.085 73.0946 216.388 72.5307C215.691 71.9667 215.142 71.2421 214.788 70.4191C214.352 69.3824 214.069 67.8032 212.773 67.5307C211.476 67.2582 211.201 68.4655 210.187 68.7584C208.486 69.25 209.108 67.4849 209.074 66.5781C209.031 65.409 208.267 64.4131 207.653 63.4758Z" fill="#3A3A3A"/>
<path opacity="0.1" d="M207.276 61.6699C207.432 61.9273 207.602 62.1756 207.786 62.4136C208.146 62.866 208.548 63.2831 208.988 63.6591C209.243 63.8858 209.52 64.0972 209.8 64.2959C210.322 64.6625 210.871 64.9902 211.441 65.2765C213.104 66.1145 214.902 66.6392 216.693 67.1563L220.203 68.1751C220.633 68.5012 221.423 69.0895 222.294 69.7034C222.423 69.2024 222.509 68.691 222.548 68.1751C222.575 67.8258 222.575 67.475 222.548 67.1257C222.393 65.06 221.219 63.1752 219.711 61.7488C218.203 60.3225 216.377 59.296 214.571 58.2797C213.981 57.911 213.342 57.6264 212.673 57.4341C212.015 57.3012 211.339 57.2737 210.671 57.3526C209.792 57.388 208.928 57.5912 208.124 57.9511C207.795 58.1139 207.493 58.3261 207.228 58.5803C207.028 58.872 206.876 59.1935 206.777 59.5329C206.578 60.2562 206.884 61.0306 207.276 61.6699Z" fill="#3A3A3A"/>
<path d="M207.276 61.433C207.432 61.6904 207.602 61.9387 207.786 62.1767C208.146 62.6291 208.548 63.0462 208.988 63.4223C209.243 63.6489 209.52 63.8603 209.8 64.059C210.322 64.4256 210.871 64.7533 211.441 65.0396C213.104 65.8776 214.902 66.4023 216.693 66.9219L220.203 67.9408C221.428 68.8679 225.526 71.904 226.216 71.5245C227.029 71.0788 222.579 67.928 222.579 67.928L222.373 68.0834C223.025 67.6733 223.366 66.7233 223.514 65.9031C223.769 64.4334 223.896 62.9052 223.547 61.4534C223.198 60.0015 222.327 58.6185 221 57.9384C220.409 57.6353 219.693 57.429 219.268 56.9629C219.203 56.8939 219.147 56.8179 219.1 56.7362C219.075 56.6977 219.053 56.6577 219.033 56.6165C218.988 56.4883 218.925 56.3667 218.848 56.2548C218.593 55.9721 218.16 56.0561 217.791 56.102L217.673 56.1147C217.607 56.1147 217.541 56.1147 217.475 56.1147C216.155 56.1453 214.877 55.4092 213.542 55.4092C212.077 55.4092 210.834 56.2548 209.546 56.833C209.291 56.9501 209.036 57.0571 208.807 57.1666C207.877 57.5996 207.177 58.0607 206.792 59.2934C206.578 60.0194 206.884 60.7937 207.276 61.433Z" fill="#74D14C"/>
<path opacity="0.1" d="M217.482 56.1223C217.411 56.2453 217.385 56.3897 217.41 56.5297C217.436 56.6697 217.51 56.7962 217.62 56.8865C217.783 57.0023 217.975 57.071 218.175 57.0851C218.318 57.1038 218.462 57.1149 218.606 57.1182C218.801 57.1328 218.997 57.0987 219.176 57.0189C219.212 57.0016 219.245 56.9802 219.275 56.9552C219.211 56.8863 219.155 56.8102 219.107 56.7285C219.074 56.754 219.041 56.7489 218.909 56.7285C218.668 56.716 218.429 56.6749 218.198 56.6063C218.075 56.5757 217.962 56.5122 217.873 56.4224C217.783 56.3326 217.719 56.2201 217.689 56.0969L217.482 56.1223Z" fill="#3A3A3A"/>
<path opacity="0.1" d="M222.5 67.8924C222.315 68.0077 222.109 68.0848 221.894 68.1191C221.74 68.1598 221.582 68.1854 221.423 68.1955C221.02 68.1778 220.627 68.0671 220.274 67.872L222.5 67.8924Z" fill="#3A3A3A"/>
<path d="M112.171 94.7692L112.303 94.7335L112.647 95.4696L115.482 101.583C115.359 101.736 115.247 101.898 115.146 102.067L115.146 102.067C115.11 102.125 115.074 102.184 115.041 102.252C115.008 102.321 114.973 102.39 114.942 102.461C114.929 102.484 114.919 102.508 114.911 102.533C114.904 102.548 114.906 102.548 114.891 102.584C114.876 102.619 114.863 102.657 114.85 102.693C114.831 102.719 114.821 102.743 114.8 102.766L114.797 102.777L114.784 102.808L114.756 102.908V102.917V102.953L114.741 103.029C114.741 103.032 114.741 103.034 114.74 103.036C114.741 103.037 114.741 103.038 114.741 103.04C114.741 103.041 114.74 103.042 114.74 103.043C114.74 103.045 114.741 103.048 114.741 103.05V103.052V103.06V103.062V103.073C114.741 103.076 114.742 103.08 114.742 103.083C114.742 103.087 114.741 103.09 114.741 103.093V103.113V103.129V103.162C114.734 103.247 114.734 103.332 114.741 103.416V103.48C114.598 103.439 114.44 103.289 114.313 102.917C114.271 102.795 114.25 102.667 114.249 102.538C114.225 101.742 114.896 100.901 115.002 100.769C115.007 100.762 115.011 100.758 115.013 100.755L112.517 95.4951L112.171 94.7692Z" fill="url(#paint23_linear)"/>
<path d="M115.395 104.275H115.411C115.458 104.256 115.502 104.229 115.541 104.196L115.534 104.206C115.536 104.204 115.538 104.203 115.541 104.201L115.502 104.262L115.479 104.298C115.467 104.316 115.456 104.336 115.446 104.356C115.423 104.393 115.403 104.431 115.382 104.471C115.378 104.478 115.374 104.486 115.37 104.494C115.322 104.59 115.285 104.692 115.26 104.797C115.26 104.8 115.26 104.802 115.26 104.805C115.26 104.807 115.26 104.81 115.26 104.812C115.26 104.813 115.26 104.813 115.26 104.814C115.26 104.814 115.26 104.814 115.26 104.815C115.26 104.815 115.26 104.816 115.26 104.816C115.26 104.817 115.26 104.817 115.26 104.817C115.26 104.823 115.259 104.828 115.26 104.834C115.26 104.835 115.26 104.836 115.26 104.838C115.262 104.84 115.262 104.843 115.262 104.845C115.262 104.846 115.262 104.847 115.262 104.848C115.262 104.85 115.261 104.851 115.26 104.853C115.196 104.758 115.114 104.677 115.018 104.614C114.942 104.568 114.88 104.503 114.839 104.424C114.798 104.345 114.78 104.256 114.787 104.168C114.789 104.066 114.808 103.965 114.843 103.87C114.886 103.977 114.948 104.075 115.026 104.16L115.064 104.196C115.095 104.223 115.131 104.244 115.169 104.26C115.184 104.266 115.199 104.271 115.215 104.275H115.24C115.291 104.288 115.344 104.288 115.395 104.275Z" fill="url(#paint24_linear)"/>
<path d="M125.191 191.624C125.191 191.624 129.012 192.093 130.854 191.456C132.695 190.819 130.283 194.194 127.779 194.994C126.009 195.51 124.185 195.819 122.344 195.916L119.399 193.148L116.274 193.387L116.819 196.443L115.849 196.535L115.472 192.526L125.191 191.624Z" fill="#3A3A3A"/>
<path opacity="0.1" d="M125.191 191.624C125.191 191.624 129.012 192.093 130.854 191.456C132.695 190.819 130.283 194.194 127.779 194.994C126.009 195.51 124.185 195.819 122.344 195.916L119.399 193.148L116.274 193.387L116.819 196.443L115.849 196.535L115.472 192.526L125.191 191.624Z" fill="#3A3A3A"/>
<path d="M130.696 198.624C130.696 198.624 135.268 199.625 137.573 199.062C139.878 198.499 136.572 202.32 133.439 203.007C130.306 203.695 126.735 203.517 126.735 203.517L123.493 199.811L119.672 199.747L119.985 203.529H118.796V198.624H130.696Z" fill="#3A3A3A"/>
<path opacity="0.1" d="M130.696 198.624C130.696 198.624 135.268 199.625 137.573 199.062C139.878 198.499 136.572 202.32 133.439 203.007C130.306 203.695 126.735 203.517 126.735 203.517L123.493 199.811L119.672 199.747L119.985 203.529H118.796V198.624H130.696Z" fill="#3A3A3A"/>
<path d="M113.783 111.618C113.783 111.618 105.953 120.324 110.65 130.158C110.65 130.158 110.905 131.913 110.714 132.226C110.523 132.54 111.465 136.61 111.465 136.61C111.465 136.61 111.593 143.997 111.465 145.255C111.338 146.513 111.211 147.196 111.211 147.196C111.211 147.196 109.461 160.84 110.024 164.916C110.587 168.991 110.839 176.253 110.839 176.253L113.157 195.796L125.184 193.542L119.733 166.732L119.545 161.971C119.545 161.971 121.801 156.146 120.798 153.202C119.794 150.257 121.052 112.736 121.052 112.736L113.783 111.618Z" fill="#3A3A3A"/>
<path opacity="0.05" d="M113.783 111.618C113.783 111.618 105.953 120.324 110.65 130.158C110.65 130.158 110.905 131.913 110.714 132.226C110.523 132.54 111.465 136.61 111.465 136.61C111.465 136.61 111.593 143.997 111.465 145.255C111.338 146.513 111.211 147.196 111.211 147.196C111.211 147.196 109.461 160.84 110.024 164.916C110.587 168.991 110.839 176.253 110.839 176.253L113.157 195.796L125.184 193.542L119.733 166.732L119.545 161.971C119.545 161.971 121.801 156.146 120.798 153.202C119.794 150.257 121.052 112.736 121.052 112.736L113.783 111.618Z" fill="#3A3A3A"/>
<path d="M119.545 153.709C120.923 156.34 120.054 162.728 120.054 162.728C118.238 164.294 119.239 177.949 119.239 177.949C119.239 177.949 117.986 191.418 117.173 192.977C116.361 194.536 116.483 200.995 116.483 200.995C125.691 202.686 131.704 199.054 131.704 199.054C131.704 199.054 128.76 192.35 128.699 192.04C128.663 191.864 128.273 192.34 128.156 192.478C128.217 192.394 128.378 192.175 128.699 191.714C129.952 189.959 128.699 186.576 128.699 186.576C128.699 186.576 130.265 175.677 129.514 174.674C128.762 173.67 129.639 169.977 130.077 169.101C130.515 168.224 131.078 166.156 131.078 165.28C131.114 164.599 131.241 163.926 131.455 163.278C133.396 160.519 133.021 155.947 133.021 155.947C133.021 155.947 132.896 149.371 134.022 144.172C135.148 138.974 132.616 124.252 132.616 124.252C132.616 124.252 133.459 121.371 132.833 120.306C132.55 119.827 132.578 118.699 132.71 117.606C132.863 116.269 133.146 114.983 133.146 114.983L116.058 111.949C115.698 112.548 115.37 113.128 115.067 113.686C109.415 124.129 113.225 128.011 113.225 128.011L116.852 139.19C116.852 139.19 118.161 151.08 119.545 153.709Z" fill="#3A3A3A"/>
<path d="M146.668 71.9652L149.111 74.0385C149.111 74.0385 149.59 73.6564 150.232 73.0833C151.76 71.7028 154.236 69.2041 153.309 68.1446C152.035 66.6978 150.762 67.6351 150.683 67.7014C150.82 67.5562 153.655 64.5175 152.494 64.762C151.332 65.0066 149.111 67.6453 149.111 67.6453L147.356 70.7451L146.668 71.9652Z" fill="#EFB7B9"/>
<path d="M113.908 105.793L116.789 106.669L114.598 110.49L112.092 107.232L113.908 105.793Z" fill="#EFB7B9"/>
<path d="M120.673 69.8995C125.205 69.8995 128.88 66.2252 128.88 61.6928C128.88 57.1604 125.205 53.4861 120.673 53.4861C116.141 53.4861 112.466 57.1604 112.466 61.6928C112.466 66.2252 116.141 69.8995 120.673 69.8995Z" fill="#EFB7B9"/>
<path d="M125.497 64.7009C125.497 64.7009 118.042 76.5321 125.12 77.5509C132.198 78.5697 115.599 85.7576 115.599 85.7576L109.397 79.4943C109.397 79.4943 115.849 68.3432 114.848 64.0845C113.847 59.8258 125.497 64.7009 125.497 64.7009Z" fill="#EFB7B9"/>
<path opacity="0.1" d="M115.059 113.704C116.715 114.206 118.402 114.597 120.11 114.873C120.11 114.873 129.341 118.972 132.703 117.624C132.856 116.287 133.138 115.001 133.138 115.001L116.05 111.967C115.691 112.566 115.36 113.146 115.059 113.704Z" fill="#3A3A3A"/>
<path d="M106.58 82.7393L108.248 86.1906L110.133 90.0774L110.388 90.6327L112.622 95.4722L115.462 101.606C115.462 101.606 114.458 102.795 114.771 103.735C115.064 104.614 115.523 104.232 115.581 104.178C115.528 104.252 114.922 105.067 115.462 105.426C116.002 105.785 115.836 106.616 115.836 106.616C115.836 106.616 113.518 110.436 113.08 111.814C112.642 113.192 120.097 114.384 120.097 114.384C120.097 114.384 130.683 119.081 133.314 116.763C135.945 114.445 133.314 103.546 133.314 103.546C133.314 103.546 133.314 97.2831 132.624 96.7202C131.934 96.1573 132.262 91.8146 132.262 91.8146C134.078 88.5034 132.825 86.616 132.825 86.616L133.335 78.0985C133.335 78.0985 132.519 77.2198 131.893 77.1587C131.497 77.1209 131.099 77.1209 130.703 77.1587C130.703 77.1587 130.372 77.0466 129.896 76.9039C128.892 76.6187 127.227 76.2239 126.631 76.5219C125.754 76.96 120.118 75.8316 120.118 75.8316C117.688 75.472 115.241 75.2424 112.787 75.1439C111.949 75.0893 111.108 75.1807 110.301 75.4139C108.264 76.043 107.902 77.5229 107.902 77.5229C107.902 77.5229 108.157 78.7761 107.151 80.4036C106.144 82.0312 106.58 82.7393 106.58 82.7393Z" fill="#43CFD9"/>
<path opacity="0.1" d="M146.668 71.9652L149.111 74.0385C149.111 74.0385 149.59 73.6564 150.232 73.0833C150.425 70.9692 148.625 70.6891 147.356 70.7451L146.668 71.9652Z" fill="#3A3A3A"/>
<path d="M132.262 78.0425L133.327 78.1062C133.327 78.1062 135.831 78.4169 136.638 77.6655C137.445 76.9141 140.334 76.6645 140.334 76.6645C140.334 76.6645 141.149 75.0344 142.025 74.5352C142.901 74.0359 145.033 73.0935 145.082 72.5917C145.13 72.09 145.897 71.1527 145.897 71.1527C145.897 71.1527 150.593 70.0243 149.906 73.7201C149.218 77.4159 145.415 80.6074 145.415 80.6074C145.415 80.6074 144.977 82.6756 143.536 83.1774C142.094 83.6792 132.761 88.0627 131.259 86.9343C129.756 85.806 132.262 78.0425 132.262 78.0425Z" fill="#43CFD9"/>
<path opacity="0.1" d="M107.143 80.4011C108.144 78.7735 107.894 77.5203 107.894 77.5203C107.894 77.5203 108.256 76.0405 110.294 75.4114C110.691 75.2908 111.1 75.2106 111.514 75.1719C109.507 75.8087 109.147 77.2707 109.147 77.2707C109.147 77.2707 109.402 78.5239 108.396 80.1515C107.39 81.779 107.831 82.4693 107.831 82.4693L109.501 85.9206L111.384 89.8049L111.654 90.3627L113.888 95.1894L116.728 101.323C116.728 101.323 115.724 102.515 116.037 103.455C116.33 104.333 116.789 103.949 116.847 103.898C116.794 103.969 116.188 104.787 116.728 105.146C117.268 105.505 117.102 106.335 117.102 106.335C117.102 106.335 114.784 110.156 114.346 111.534C113.908 112.912 121.363 114.101 121.363 114.101C121.363 114.101 128.714 117.364 132.688 117.11C129.31 118.434 120.11 114.354 120.11 114.354C120.11 114.354 112.655 113.162 113.093 111.784C113.531 110.406 115.849 106.588 115.849 106.588C115.849 106.588 116.037 105.773 115.474 105.398C114.911 105.024 115.541 104.224 115.594 104.15C115.535 104.204 115.085 104.586 114.784 103.707C114.471 102.767 115.474 101.577 115.474 101.577L112.634 95.4416L110.401 90.6021L110.146 90.0469L108.261 86.16L106.593 82.7087C106.593 82.7087 106.139 82.0312 107.143 80.4011Z" fill="#3A3A3A"/>
<path d="M107.718 81.7994L106.593 82.7393C106.389 83.3572 106.07 83.9309 105.653 84.4306C105.026 85.1208 103.335 91.947 103.335 91.947C103.406 92.1047 103.443 92.2757 103.443 92.4488C103.443 92.6218 103.406 92.7929 103.335 92.9505C103.08 93.46 103.844 94.2037 103.844 94.2037C103.844 94.2037 104.219 94.0789 103.59 94.7666C102.961 95.4543 104.155 96.2745 104.155 96.2745C104.155 96.2745 109.29 105.039 110.355 105.979C111.419 106.919 112.484 109.361 112.484 109.361C112.484 109.361 114.715 105.862 115.24 105.795L113.05 100.849C113.05 100.849 111.544 93.9566 110.418 92.6984C109.293 91.4401 110.981 87.1203 110.981 87.1203L107.718 81.7994Z" fill="#43CFD9"/>
<path opacity="0.1" d="M106.985 94.5781C107.927 95.709 109.58 95.9484 111.042 95.7829C111.256 95.7574 111.473 95.7243 111.684 95.6835C112.005 95.6263 112.322 95.5523 112.634 95.4619C113.754 95.1395 114.807 94.6222 115.747 93.9337C115.952 93.7566 116.189 93.62 116.445 93.5313C117.031 93.3835 117.611 93.8191 117.93 94.3285C118.248 94.8379 118.398 95.439 118.724 95.9433C119.366 96.9443 120.609 97.4257 121.801 97.4538C122.993 97.4818 124.15 97.1252 125.286 96.7711C124.366 95.6402 123.424 94.4635 123.049 93.055C122.841 92.1364 122.782 91.1905 122.874 90.2532C123.144 85.8213 124.682 81.1499 128.296 78.5672C128.923 78.1214 129.679 77.5942 129.888 76.9167C128.885 76.6314 127.219 76.2366 126.623 76.5346C125.747 76.9727 120.11 75.8444 120.11 75.8444C117.681 75.4847 115.234 75.2552 112.78 75.1566C111.941 75.1021 111.1 75.1934 110.294 75.4266C110.602 77.3089 110.869 79.181 110.5 81.0302C110.244 82.1826 109.826 83.293 109.259 84.3287C108.939 84.9527 108.592 85.5666 108.241 86.1829C107.288 87.8971 106.379 89.6164 106.203 91.5318C106.129 92.6143 106.302 93.758 106.985 94.5781Z" fill="#3A3A3A"/>
<path opacity="0.1" d="M119.371 103.391C118.882 103.327 118.388 103.162 117.904 103.264C117.493 103.386 117.116 103.606 116.807 103.903L120.026 103.921C120.854 103.921 122.102 103.972 122.736 103.386C122.155 102.81 120.199 103.498 119.371 103.391Z" fill="#3A3A3A"/>
<path d="M130.53 60.7402C131.019 61.4131 131.327 62.2002 131.424 63.026C131.522 63.8519 131.406 64.689 131.088 65.4574C130.579 66.6672 129.578 67.6148 128.969 68.7813C128.508 69.6864 128.285 70.6938 128.321 71.7088C128.356 72.7237 128.65 73.713 129.173 74.5836C129.41 74.8934 129.583 75.2476 129.682 75.6253C129.827 76.5805 128.839 77.2656 128.052 77.8285C124.435 80.4062 122.899 85.0801 122.629 89.5145C122.536 90.4517 122.595 91.3977 122.802 92.3163C123.177 93.7249 124.122 94.9016 125.041 96.0325C123.905 96.3866 122.749 96.7432 121.554 96.7151C120.36 96.6871 119.122 96.2057 118.477 95.2047C118.151 94.6953 117.998 94.0993 117.683 93.5899C117.367 93.0805 116.784 92.6474 116.203 92.7926C115.945 92.8787 115.707 93.0146 115.502 93.1925C114.12 94.2065 112.498 94.8445 110.795 95.0443C109.333 95.2124 107.68 94.9704 106.74 93.8395C106.058 93.0168 105.882 91.8757 105.976 90.811C106.302 87.0184 109.514 84.0358 110.258 80.3018C110.859 77.2758 109.769 74.1888 109.57 71.117C109.272 66.5654 110.925 62.136 112.553 57.8722C112.907 56.8156 113.386 55.805 113.979 54.8615C115.342 52.8646 117.698 51.6675 120.092 51.4281C120.98 51.3049 121.885 51.3921 122.734 51.6828C123.589 52.0139 124.303 52.6303 124.998 53.2339C126.552 54.5813 128.149 55.9848 129.043 57.8391C129.407 58.6032 129.646 59.4106 130.061 60.1467L130.53 60.7402Z" fill="#3A3A3A"/>
<g opacity="0.1">
<path opacity="0.1" d="M129.053 59.0769C128.645 58.3408 128.408 57.5258 128.034 56.7693C127.686 56.0638 127.25 55.4056 126.735 54.8106C127.669 55.6795 128.445 56.7042 129.027 57.8391C129.381 58.5726 129.618 59.3673 130.003 60.083L129.509 59.6653C129.638 59.837 129.754 60.0183 129.855 60.2078C129.542 59.8656 129.272 59.4857 129.053 59.0769Z" fill="#3A3A3A"/>
<path opacity="0.1" d="M109.787 93.9592C111.49 93.762 113.112 93.1247 114.494 92.11C114.699 91.9331 114.937 91.7973 115.194 91.7101C115.777 91.5624 116.358 91.9979 116.677 92.5073C116.743 92.6143 116.801 92.7289 116.857 92.8436C116.651 92.7494 116.419 92.727 116.198 92.7799C115.94 92.8659 115.702 93.0018 115.497 93.1798C114.115 94.1937 112.493 94.8318 110.79 95.0315C109.328 95.1996 107.675 94.9576 106.735 93.8267C106.618 93.6809 106.514 93.5249 106.425 93.3606C107.372 93.9694 108.638 94.0916 109.787 93.9592Z" fill="#3A3A3A"/>
<path opacity="0.1" d="M120.548 95.6352C121.738 95.6632 122.897 95.3066 124.033 94.9526C123.113 93.8217 122.171 92.6449 121.796 91.2364C121.588 90.3179 121.529 89.3719 121.62 88.4346C121.89 84.0001 123.429 79.3262 127.046 76.7486C127.833 76.1857 128.829 75.5005 128.676 74.5428C128.576 74.1665 128.402 73.8134 128.166 73.5036C127.643 72.6332 127.35 71.6441 127.313 70.6291C127.277 69.6142 127.5 68.6067 127.96 67.7014C128.571 66.5348 129.565 65.5873 130.082 64.3749C130.357 63.707 130.481 62.9863 130.444 62.2648C130.407 61.5433 130.21 60.839 129.868 60.2028C130.04 60.3842 130.224 60.5543 130.418 60.7122C130.557 60.9067 130.709 61.0922 130.871 61.2674C131.214 61.9041 131.41 62.609 131.447 63.331C131.484 64.053 131.359 64.7741 131.083 65.4421C130.573 66.652 129.572 67.5995 128.964 68.766C128.503 69.6712 128.28 70.6785 128.316 71.6935C128.351 72.7085 128.644 73.6977 129.167 74.5683C129.405 74.8781 129.578 75.2323 129.677 75.61C129.822 76.5652 128.834 77.2504 128.047 77.8133C124.43 80.3909 122.894 85.0648 122.624 89.4993C122.531 90.4364 122.59 91.3824 122.797 92.3011C123.172 93.7096 124.117 94.8863 125.036 96.0172C123.9 96.3713 122.744 96.7279 121.549 96.6999C120.355 96.6718 119.117 96.1904 118.472 95.1894C118.429 95.1232 118.391 95.0544 118.353 94.9857C119.012 95.3979 119.771 95.6225 120.548 95.6352Z" fill="#3A3A3A"/>
</g>
<path opacity="0.2" d="M82.8514 37.707V43.0558H59.6271C60.3352 42.0743 61.0586 41.1065 61.7972 40.1521C61.8991 40.0197 62.001 39.8974 62.108 39.7574L63.1956 38.3896L63.3459 38.2036L63.7407 37.7222L82.8514 37.707Z" fill="#43CFD9"/>
<path opacity="0.2" d="M130.905 37.707H106.501V43.0507H130.905V37.707Z" fill="#43CFD9"/>
<path opacity="0.2" d="M186.953 37.707H162.549V43.0507H186.953V37.707Z" fill="#43CFD9"/>
<path opacity="0.2" d="M234.357 37.707H209.953V43.0507H234.357V37.707Z" fill="#43CFD9"/>
</g>
<defs>
<linearGradient id="paint0_linear" x1="-1.30945e-06" y1="107" x2="300" y2="107" gradientUnits="userSpaceOnUse">
<stop stop-color="#43CFD9"/>
<stop offset="1" stop-color="#74D14C"/>
</linearGradient>
<linearGradient id="paint1_linear" x1="56.377" y1="66.41" x2="56.377" y2="55.0347" gradientUnits="userSpaceOnUse">
<stop stop-color="#808080" stop-opacity="0.25"/>
<stop offset="0.54" stop-color="#808080" stop-opacity="0.12"/>
<stop offset="1" stop-color="#808080" stop-opacity="0.1"/>
</linearGradient>
<linearGradient id="paint2_linear" x1="4893.71" y1="2862.73" x2="4893.71" y2="2354.6" gradientUnits="userSpaceOnUse">
<stop stop-color="#808080" stop-opacity="0.25"/>
<stop offset="0.54" stop-color="#808080" stop-opacity="0.12"/>
<stop offset="1" stop-color="#808080" stop-opacity="0.1"/>
</linearGradient>
<linearGradient id="paint3_linear" x1="7394.79" y1="3871.17" x2="7394.79" y2="3363.03" gradientUnits="userSpaceOnUse">
<stop stop-color="#808080" stop-opacity="0.25"/>
<stop offset="0.54" stop-color="#808080" stop-opacity="0.12"/>
<stop offset="1" stop-color="#808080" stop-opacity="0.1"/>
</linearGradient>
<linearGradient id="paint4_linear" x1="9946.83" y1="4215.07" x2="9946.83" y2="3707.05" gradientUnits="userSpaceOnUse">
<stop stop-color="#808080" stop-opacity="0.25"/>
<stop offset="0.54" stop-color="#808080" stop-opacity="0.12"/>
<stop offset="1" stop-color="#808080" stop-opacity="0.1"/>
</linearGradient>
<linearGradient id="paint5_linear" x1="10630.7" y1="4551.29" x2="10630.7" y2="4043.27" gradientUnits="userSpaceOnUse">
<stop stop-color="#808080" stop-opacity="0.25"/>
<stop offset="0.54" stop-color="#808080" stop-opacity="0.12"/>
<stop offset="1" stop-color="#808080" stop-opacity="0.1"/>
</linearGradient>
<linearGradient id="paint6_linear" x1="11488.2" y1="3652.99" x2="11488.2" y2="3144.86" gradientUnits="userSpaceOnUse">
<stop stop-color="#808080" stop-opacity="0.25"/>
<stop offset="0.54" stop-color="#808080" stop-opacity="0.12"/>
<stop offset="1" stop-color="#808080" stop-opacity="0.1"/>
</linearGradient>
<linearGradient id="paint7_linear" x1="11314.6" y1="4381.61" x2="11314.6" y2="3873.59" gradientUnits="userSpaceOnUse">
<stop stop-color="#808080" stop-opacity="0.25"/>
<stop offset="0.54" stop-color="#808080" stop-opacity="0.12"/>
<stop offset="1" stop-color="#808080" stop-opacity="0.1"/>
</linearGradient>
<linearGradient id="paint8_linear" x1="5649.15" y1="2862.73" x2="5649.15" y2="2354.6" gradientUnits="userSpaceOnUse">
<stop stop-color="#808080" stop-opacity="0.25"/>
<stop offset="0.54" stop-color="#808080" stop-opacity="0.12"/>
<stop offset="1" stop-color="#808080" stop-opacity="0.1"/>
</linearGradient>
<linearGradient id="paint9_linear" x1="3061.61" y1="4121.91" x2="3061.61" y2="3613.78" gradientUnits="userSpaceOnUse">
<stop stop-color="#808080" stop-opacity="0.25"/>
<stop offset="0.54" stop-color="#808080" stop-opacity="0.12"/>
<stop offset="1" stop-color="#808080" stop-opacity="0.1"/>
</linearGradient>
<linearGradient id="paint10_linear" x1="5293.34" y1="3611.36" x2="5293.34" y2="3103.34" gradientUnits="userSpaceOnUse">
<stop stop-color="#808080" stop-opacity="0.25"/>
<stop offset="0.54" stop-color="#808080" stop-opacity="0.12"/>
<stop offset="1" stop-color="#808080" stop-opacity="0.1"/>
</linearGradient>
<linearGradient id="paint11_linear" x1="8179.55" y1="3300.95" x2="8179.55" y2="2792.94" gradientUnits="userSpaceOnUse">
<stop stop-color="#808080" stop-opacity="0.25"/>
<stop offset="0.54" stop-color="#808080" stop-opacity="0.12"/>
<stop offset="1" stop-color="#808080" stop-opacity="0.1"/>
</linearGradient>
<linearGradient id="paint12_linear" x1="11101.4" y1="2936.71" x2="11101.4" y2="2428.69" gradientUnits="userSpaceOnUse">
<stop stop-color="#808080" stop-opacity="0.25"/>
<stop offset="0.54" stop-color="#808080" stop-opacity="0.12"/>
<stop offset="1" stop-color="#808080" stop-opacity="0.1"/>
</linearGradient>
<linearGradient id="paint13_linear" x1="8910.15" y1="2862.73" x2="8910.15" y2="2354.6" gradientUnits="userSpaceOnUse">
<stop stop-color="#808080" stop-opacity="0.25"/>
<stop offset="0.54" stop-color="#808080" stop-opacity="0.12"/>
<stop offset="1" stop-color="#808080" stop-opacity="0.1"/>
</linearGradient>
<linearGradient id="paint14_linear" x1="8878.82" y1="3871.17" x2="8878.82" y2="3363.03" gradientUnits="userSpaceOnUse">
<stop stop-color="#808080" stop-opacity="0.25"/>
<stop offset="0.54" stop-color="#808080" stop-opacity="0.12"/>
<stop offset="1" stop-color="#808080" stop-opacity="0.1"/>
</linearGradient>
<linearGradient id="paint15_linear" x1="6392.7" y1="3113.48" x2="6392.7" y2="2605.46" gradientUnits="userSpaceOnUse">
<stop stop-color="#808080" stop-opacity="0.25"/>
<stop offset="0.54" stop-color="#808080" stop-opacity="0.12"/>
<stop offset="1" stop-color="#808080" stop-opacity="0.1"/>
</linearGradient>
<linearGradient id="paint16_linear" x1="3450.42" y1="3280.6" x2="3450.42" y2="2772.58" gradientUnits="userSpaceOnUse">
<stop stop-color="#808080" stop-opacity="0.25"/>
<stop offset="0.54" stop-color="#808080" stop-opacity="0.12"/>
<stop offset="1" stop-color="#808080" stop-opacity="0.1"/>
</linearGradient>
<linearGradient id="paint17_linear" x1="3727.25" y1="3871.17" x2="3727.25" y2="3363.03" gradientUnits="userSpaceOnUse">
<stop stop-color="#808080" stop-opacity="0.25"/>
<stop offset="0.54" stop-color="#808080" stop-opacity="0.12"/>
<stop offset="1" stop-color="#808080" stop-opacity="0.1"/>
</linearGradient>
<linearGradient id="paint18_linear" x1="6024.17" y1="3955.37" x2="6024.17" y2="3447.35" gradientUnits="userSpaceOnUse">
<stop stop-color="#808080" stop-opacity="0.25"/>
<stop offset="0.54" stop-color="#808080" stop-opacity="0.12"/>
<stop offset="1" stop-color="#808080" stop-opacity="0.1"/>
</linearGradient>
<linearGradient id="paint19_linear" x1="10076.9" y1="2936.71" x2="10076.9" y2="2428.69" gradientUnits="userSpaceOnUse">
<stop stop-color="#808080" stop-opacity="0.25"/>
<stop offset="0.54" stop-color="#808080" stop-opacity="0.12"/>
<stop offset="1" stop-color="#808080" stop-opacity="0.1"/>
</linearGradient>
<linearGradient id="paint20_linear" x1="10567" y1="3652.99" x2="10567" y2="3144.86" gradientUnits="userSpaceOnUse">
<stop stop-color="#808080" stop-opacity="0.25"/>
<stop offset="0.54" stop-color="#808080" stop-opacity="0.12"/>
<stop offset="1" stop-color="#808080" stop-opacity="0.1"/>
</linearGradient>
<linearGradient id="paint21_linear" x1="7443.22" y1="2862.73" x2="7443.22" y2="2354.6" gradientUnits="userSpaceOnUse">
<stop stop-color="#808080" stop-opacity="0.25"/>
<stop offset="0.54" stop-color="#808080" stop-opacity="0.12"/>
<stop offset="1" stop-color="#808080" stop-opacity="0.1"/>
</linearGradient>
<linearGradient id="paint22_linear" x1="8116.87" y1="4381.61" x2="8116.87" y2="3873.59" gradientUnits="userSpaceOnUse">
<stop stop-color="#808080" stop-opacity="0.25"/>
<stop offset="0.54" stop-color="#808080" stop-opacity="0.12"/>
<stop offset="1" stop-color="#808080" stop-opacity="0.1"/>
</linearGradient>
<linearGradient id="paint23_linear" x1="-24746.8" y1="127159" x2="-24746.8" y2="35014.4" gradientUnits="userSpaceOnUse">
<stop stop-color="#808080" stop-opacity="0.25"/>
<stop offset="0.54" stop-color="#808080" stop-opacity="0.12"/>
<stop offset="1" stop-color="#808080" stop-opacity="0.1"/>
</linearGradient>
<linearGradient id="paint24_linear" x1="-24746.8" y1="127159" x2="-24746.8" y2="35014.4" gradientUnits="userSpaceOnUse">
<stop stop-color="#808080" stop-opacity="0.25"/>
<stop offset="0.54" stop-color="#808080" stop-opacity="0.12"/>
<stop offset="1" stop-color="#808080" stop-opacity="0.1"/>
</linearGradient>
<clipPath id="clip0">
<rect width="300" height="213.175" fill="white"/>
</clipPath>
</defs>
</svg>
