<svg width="300" height="246" viewBox="0 0 300 246" fill="none" xmlns="http://www.w3.org/2000/svg">
<g clip-path="url(#clip0)">
<path opacity="0.1" d="M292.705 142.084C292.705 142.27 292.705 142.456 292.705 142.64C292.673 145.851 292.482 149.053 292.134 152.248C292.136 152.267 292.136 152.287 292.134 152.306C292.107 152.572 292.076 152.834 292.046 153.1C291.994 153.548 291.939 153.994 291.878 154.443C291.166 159.904 289.989 165.294 288.359 170.555C286.175 177.664 283.087 184.463 279.172 190.785C277.967 192.718 276.684 194.589 275.323 196.398C274.596 197.357 273.855 198.294 273.088 199.216C272.551 199.861 272.004 200.495 271.446 201.12L271.098 201.505C268.165 204.726 265.003 207.731 261.637 210.497C256.143 215.051 250.227 219.012 244.217 222.687C243.876 222.898 243.531 223.105 243.186 223.298C243.162 223.315 243.136 223.33 243.11 223.343C234.942 228.282 226.472 232.738 217.746 236.306C208.192 240.222 198.327 243.07 188.206 244.315C174.099 246.049 159.82 244.639 145.799 242.215C134.137 240.212 122.616 237.459 111.308 233.974L109.447 233.391C108.482 233.084 107.519 232.771 106.556 232.451C100.743 230.528 94.9943 228.392 89.311 226.042C75.0373 220.163 61.4014 212.841 48.6157 204.191C46.9879 203.096 45.3834 201.977 43.8024 200.833C41.5926 199.242 39.4092 197.604 37.2523 195.919L35.9215 194.888C30.2769 190.468 24.9884 185.611 20.1049 180.362C13.5365 173.214 7.9235 165.15 4.23336 155.944C3.6514 154.497 3.11828 153.023 2.634 151.522L2.58821 151.372C2.34403 150.609 2.11817 149.846 1.91062 149.052C1.6054 147.917 1.33782 146.767 1.10788 145.603C1.05905 145.38 1.01632 145.158 0.976639 144.932C0.247123 141.015 -0.0750769 137.033 0.0151884 133.049C0.0915262 129.559 0.500338 126.084 1.23608 122.672C1.98913 119.134 3.14959 115.696 4.69425 112.426C6.09015 109.485 7.86873 106.742 9.98375 104.267C11.47 102.537 13.1414 100.975 14.968 99.6093C18.2797 97.1431 21.9515 95.4247 25.7576 94.0665C27.5462 93.4255 29.3593 92.8639 31.1814 92.342C32.4725 91.9696 33.7697 91.6156 35.0608 91.2676L38.87 90.239C41.3118 89.5736 43.7535 88.8899 46.1587 88.1513C52.7149 86.149 59.1398 83.7256 65.0825 80.1117C66.0226 79.541 66.981 78.9153 67.9394 78.2438C69.1603 77.3952 70.3628 76.4735 71.5532 75.4784C72.7558 74.4712 73.9339 73.3938 75.0572 72.2522C75.2311 72.0752 75.4021 71.8982 75.573 71.7181C76.4886 70.7536 77.3769 69.7433 78.201 68.6934C78.6038 68.1806 78.9945 67.6587 79.3669 67.1276C79.8827 66.392 80.3711 65.6442 80.8228 64.875C83.0876 61.0292 84.4855 56.7866 84.3207 52.3151C84.2966 51.5784 84.2303 50.8436 84.1223 50.1145C83.7255 47.4193 83.3439 44.7883 83.0631 42.2153C81.885 31.5722 82.3825 21.9211 90.3702 12.8529C100.302 1.58106 115.89 -0.717269 130.08 0.183137C171.105 2.77753 208.452 26.2003 241.272 54.0854C244.111 56.4946 246.915 58.9364 249.684 61.4107C250.382 62.0334 251.081 62.6601 251.781 63.2909C256.97 67.9639 262.079 72.8108 266.837 78.0026C267.222 78.4238 267.607 78.8451 267.985 79.2693C268.217 79.5318 268.452 79.7912 268.681 80.0568C270.164 81.7355 271.604 83.4549 273 85.215C276.739 89.8877 280.041 94.8941 282.865 100.171C287.188 108.452 290.115 117.39 291.527 126.625C292.058 129.978 292.407 133.358 292.574 136.749C292.626 137.747 292.659 138.748 292.678 139.746C292.678 140.067 292.678 140.384 292.678 140.704C292.708 141.168 292.708 141.62 292.705 142.084Z" fill="url(#paint0_linear)"/>
<path d="M120.251 136.965L115.368 223.89L120.251 223.954L124.219 135.745L120.251 136.965Z" fill="#3A3A3A"/>
<path d="M102.243 181.006H41.8093V194.131H102.243V181.006Z" fill="#43CFD9"/>
<path d="M106.211 192.601V200.842H43.7842C41.5744 199.251 39.391 197.613 37.2341 195.928V192.601H106.211Z" fill="#3A3A3A"/>
<path d="M118.677 173.845C118.506 174.636 118.283 175.417 118.048 176.196C117.355 178.445 116.522 180.664 116.36 183.002C116.143 186.091 116.97 189.683 114.834 191.927C114.284 192.507 113.567 192.94 113.076 193.56C113 193.657 112.931 193.759 112.868 193.865C112.429 194.591 112.377 195.477 112.371 196.307C112.376 198.077 112.491 199.846 112.716 201.602C113.439 207.646 114.867 213.701 112.99 219.406C112.65 220.395 112.254 221.365 111.803 222.309C110.887 224.323 109.889 226.31 109.59 228.492C109.37 230.11 109.437 231.777 109.425 233.422C108.461 233.115 107.497 232.801 106.535 232.482C100.721 230.559 94.973 228.422 89.2897 226.072C89.305 225.99 89.3203 225.904 89.3325 225.822C89.7689 223.105 89.1707 220.328 88.4443 217.678C86.9182 212.065 84.7572 206.507 83.4783 200.855C82.9633 198.647 82.6254 196.401 82.468 194.14C82.4314 193.633 82.41 193.123 82.407 192.614C82.3917 191.948 82.407 191.283 82.4344 190.611C82.4985 189.271 82.5565 187.681 81.4852 186.866C80.8961 186.424 80.1178 186.347 79.431 186.079C78.1064 185.563 77.1999 184.367 76.1499 183.408C75.6491 182.922 75.0375 182.566 74.368 182.369C73.6985 182.172 72.9912 182.141 72.3072 182.279C65.4458 183.851 60.4035 189.671 54.0182 192.614C53.771 192.73 53.5238 192.839 53.2735 192.943C52.4475 193.246 51.6614 193.647 50.9324 194.14C50.4202 194.495 50.0487 195.019 49.8825 195.62C49.7207 196.267 49.8611 196.945 49.9405 197.61C50.0689 198.692 50.0225 199.787 49.8031 200.855C49.7204 201.268 49.6113 201.676 49.4765 202.076C49.2323 202.799 48.9058 203.507 48.5944 204.212C46.9666 203.117 45.3621 201.998 43.7811 200.855C41.5713 199.263 39.3879 197.625 37.231 195.941L35.9216 194.888C30.277 190.468 24.9885 185.611 20.105 180.362C20.7551 178.531 21.6952 176.828 22.1469 174.95C22.4033 173.873 22.4979 172.753 22.852 171.706C23.2603 170.621 23.8281 169.602 24.5368 168.684C27.1323 165.065 30.3015 161.893 33.9193 159.296C37.701 156.585 42.0688 154.412 45.472 151.335C46.8531 150.126 48.0437 148.715 49.0034 147.151C49.0614 147.056 49.1164 146.955 49.1652 146.846C49.4308 146.293 49.6149 145.705 49.7116 145.1C49.9557 143.732 49.9191 142.231 50.0412 140.918C54.187 141.636 58.4135 141.763 62.595 141.297C67.4633 140.75 72.2247 139.398 77.093 138.873C77.4593 138.83 77.8286 138.797 78.1979 138.766C79.7576 138.641 81.3204 138.614 82.8862 138.632C84.1956 138.632 85.505 138.69 86.8144 138.733L101.23 139.221C102.826 139.276 104.456 139.337 105.943 139.92C107.707 140.613 109.12 141.992 110.252 143.509C110.396 143.705 110.539 143.9 110.674 144.102C111.605 145.461 112.353 146.938 112.896 148.494C112.954 148.652 113.009 148.799 113.06 148.973C113.198 149.397 113.317 149.825 113.424 150.258C113.506 150.597 113.579 150.936 113.646 151.277C113.982 152.968 114.181 154.696 114.712 156.329C114.748 156.448 114.788 156.567 114.831 156.683C115.469 158.471 116.528 160.074 117.327 161.792C117.904 163.036 118.344 164.339 118.64 165.678C119.238 168.366 119.25 171.152 118.677 173.845Z" fill="#3A3A3A"/>
<path d="M74.8589 64.6156C73.5709 63.59 71.7029 64.3409 70.1951 65.0032C68.9309 65.5616 67.6296 66.0317 66.3005 66.4103C66.0284 66.515 65.7335 66.5455 65.4458 66.4988C64.8354 66.3523 64.579 65.6289 64.1242 65.1894C63.3337 64.4294 62.0396 64.6095 61.0201 65.0215C60.0007 65.4336 58.9934 66.0288 57.9007 65.9372C56.7348 65.8456 55.7214 64.9849 54.5433 64.9574C52.4678 64.9086 50.725 67.4664 48.7624 66.7888C47.5659 66.3767 46.6258 64.8201 45.4477 65.2627C44.532 65.6106 44.4496 66.8773 43.8971 67.7044C43.247 68.6689 41.9803 68.9406 40.8968 69.3679C37.4814 70.717 35.2197 74.5231 35.6653 78.1675C35.9125 80.1789 36.8862 82.0224 37.5302 83.9423C39.4409 89.5248 38.7847 95.8215 41.1929 101.206C41.4981 100.919 41.669 100.812 41.9651 100.528C41.2036 102.107 41.0568 103.913 41.553 105.595C41.8064 106.44 42.2184 107.228 42.5297 108.055C42.8531 108.983 43.1142 109.931 43.3111 110.893L45.9665 122.608C47.0043 127.186 48.0451 131.764 48.2252 136.453C48.3373 139.501 48.1038 142.552 47.5293 145.548C52.3396 144.752 56.7409 142.618 61.6153 142.646C63.4039 142.646 65.1772 142.951 66.9506 143.195C72.1208 143.919 77.336 144.272 82.5566 144.254C83.3686 144.3 84.1817 144.186 84.9495 143.918C85.621 143.632 86.1704 143.122 86.8053 142.752C88.0476 142.02 89.5523 141.837 90.9838 141.837C97.5125 141.718 103.803 144.108 110.289 144.95C112.85 139.575 113.003 133.135 111.037 127.516C110.454 125.846 109.67 124.219 109.438 122.464C109.344 121.386 109.32 120.302 109.364 119.22C109.354 116.45 108.855 113.703 107.89 111.107C107.512 110.091 107.057 109.056 107.096 107.972C107.136 106.889 107.67 105.879 108.195 104.92C109.261 102.967 110.332 100.995 111.837 99.3468C113.378 97.6437 115.307 96.3465 117.215 95.0737L121.924 91.9116C121.28 87.843 120.45 83.5577 118.725 79.8156C117.001 76.0736 114.422 72.6338 110.933 70.4453C109.757 69.7377 108.526 69.1253 107.252 68.614C105.47 67.8631 103.614 67.2008 101.682 67.0879C99.4842 66.9627 97.3202 67.5518 95.1501 67.9181C88.3192 69.0688 80.2796 68.9284 74.8589 64.6156Z" fill="#43CFD9"/>
<path d="M126.356 135.22L124.116 138.049L119.891 143.381L115.008 149.544L113.643 151.265H110.997L45.4689 151.341L4.4318 151.387H2.60047C2.35629 150.624 2.13042 149.861 1.92287 149.068C1.61765 147.932 1.35007 146.782 1.12014 145.619C1.0713 145.396 1.02857 145.173 0.988892 144.947L15.8776 135.213L21.4754 135.183L38.5984 135.085L48.161 135.03H49.9069H51.0026L57.3757 134.997L105.949 134.719L108.433 134.704H109.511L112.365 134.688L122.983 134.627L125.022 133.852L125.172 134.011L126.356 135.22Z" fill="#3A3A3A"/>
<path d="M125.44 133.693L125.187 133.999L123.52 135.961L120.09 140.012L112.896 148.494L49.1651 146.867L1.10788 145.646C1.05905 145.423 1.01632 145.2 0.976639 144.974C0.247123 141.057 -0.0750769 137.076 0.0151884 133.092L5.34437 130.364L6.56526 129.735L16.0668 124.851L24.4055 120.578L46.1556 123.404L50.9721 124.03L53.1513 124.311L56.3409 124.726L56.6095 124.763L106.626 131.249L112.154 131.966L115.398 132.387L125.397 133.687L125.44 133.693Z" fill="#504F60"/>
<path d="M115.063 148.344L115.011 149.544L114.706 156.317L113.064 193.554L112.716 201.602L111.8 222.309L111.284 234.005L109.422 233.422C108.458 233.115 107.494 232.801 106.532 232.482L110.997 151.293L111.092 149.59L113.057 148.979L115.063 148.344Z" fill="#3A3A3A"/>
<path d="M4.57218 148.256L4.43483 151.39L4.23339 155.969C3.65143 154.522 3.11831 153.048 2.63402 151.546L2.58824 151.396C2.34406 150.633 2.1182 149.87 1.91064 149.077L4.57218 148.256Z" fill="#3A3A3A"/>
<path d="M84.3879 102.106C92.1421 102.106 98.4281 93.6336 98.4281 83.1823C98.4281 72.7309 92.1421 64.2585 84.3879 64.2585C76.6337 64.2585 70.3477 72.7309 70.3477 83.1823C70.3477 93.6336 76.6337 102.106 84.3879 102.106Z" fill="#A1616A"/>
<path opacity="0.1" d="M84.3879 102.106C92.1421 102.106 98.4281 93.6336 98.4281 83.1823C98.4281 72.7309 92.1421 64.2585 84.3879 64.2585C76.6337 64.2585 70.3477 72.7309 70.3477 83.1823C70.3477 93.6336 76.6337 102.106 84.3879 102.106Z" fill="black"/>
<path d="M86.3719 91.2706C97.1604 91.2706 105.906 82.5249 105.906 71.7364C105.906 60.9479 97.1604 52.2022 86.3719 52.2022C75.5834 52.2022 66.8376 60.9479 66.8376 71.7364C66.8376 82.5249 75.5834 91.2706 86.3719 91.2706Z" fill="#A1616A"/>
<path d="M86.7595 41.6293C85.5668 41.7244 84.3826 41.9049 83.2158 42.1695C80.127 42.9204 77.4563 44.5869 74.8558 46.2229C73.6898 46.9585 72.4903 47.7246 71.7669 48.8051C70.4667 50.7432 70.9703 53.2094 70.2408 55.3612C69.8624 56.4661 69.1665 57.4581 68.5774 58.4867C66.9566 61.307 66.1081 64.405 65.2749 67.4725C65.1039 68.1073 65.0551 68.968 65.748 69.2122C66.1469 69.2951 66.5619 69.248 66.9322 69.0779C69.1207 68.3545 71.9012 68.147 73.525 69.6151C75.1488 71.0832 75.0115 73.6868 76.9435 74.8039C79.1564 76.095 82.6115 74.5353 84.6199 76.0584C85.4806 76.7115 85.7919 77.7584 86.497 78.5459C88.1391 80.3773 91.2981 80.2887 93.9261 79.9194C95.4339 79.7058 97.2835 79.5623 98.1992 80.6214C98.6387 81.122 98.7638 81.8088 99.2736 82.2605C100.189 83.0785 101.865 82.6634 102.759 81.824C103.654 80.9847 104.081 79.8492 104.826 78.9061C106.275 77.0748 108.824 76.0767 110.32 74.2667C111.571 72.7406 111.949 70.8299 112.291 68.9864L113.564 62.1524C114.08 59.381 114.55 56.3532 112.99 53.9114C112.435 53.0324 111.638 52.2754 111.159 51.3659C110.838 50.7554 110.658 50.1114 110.286 49.5345C109.844 48.9336 109.317 48.4009 108.72 47.9535L105.708 45.4598C104.678 44.5582 103.576 43.7416 102.414 43.018C98.1137 40.5122 91.6735 41.1714 86.7595 41.6293Z" fill="#3A3A3A"/>
<path d="M22.4185 91.9482C21.6952 92.7174 21.0267 93.5476 20.2515 94.2679C19.5695 94.8744 18.8563 95.445 18.1149 95.9772C16.9184 96.8725 15.7484 97.7993 14.6048 98.7577C13.4118 99.701 12.3322 100.78 11.3878 101.972C9.75792 104.16 8.98571 106.883 7.45959 109.144C6.11051 111.15 4.20897 112.734 2.83853 114.724C2.23731 115.561 1.79074 116.498 1.51996 117.492C1.31785 118.454 1.2267 119.437 1.24832 120.419C1.22085 122.031 1.19643 123.661 1.52607 125.239C1.85571 126.817 2.57909 128.367 3.81829 129.402C4.96898 130.364 6.45541 130.806 7.91132 131.172C8.66217 131.359 9.47406 131.533 10.1883 131.236C10.7109 130.972 11.1645 130.59 11.5129 130.119L15.2275 125.846C17.712 122.977 20.2942 120.047 23.7035 118.368C24.7718 117.846 25.8981 117.453 26.9694 116.946C31.5111 114.758 34.722 110.277 35.9674 105.393C36.2726 104.2 36.4679 102.982 36.6663 101.764L37.2035 98.4251C37.2448 98.2576 37.2448 98.0827 37.2035 97.9153C37.1194 97.7271 36.984 97.5663 36.8128 97.4514C34.2255 95.3619 31.803 93.0761 29.5668 90.6144C29.0358 90.0284 28.5382 89.2256 27.9247 88.7342C27.1556 88.1238 27.2136 88.1696 26.2888 88.7342C24.8661 89.635 23.5653 90.7152 22.4185 91.9482Z" fill="#A1616A"/>
<path d="M47.8283 114.168C47.7974 114.098 47.7526 114.034 47.6963 113.981C47.6401 113.927 47.5738 113.886 47.5012 113.859C47.4287 113.833 47.3515 113.821 47.2743 113.824C47.197 113.828 47.1213 113.848 47.0518 113.881C46.9822 113.915 46.9202 113.963 46.8694 114.021C46.8187 114.079 46.7802 114.147 46.7564 114.221C46.7325 114.294 46.7238 114.372 46.7308 114.449C46.7377 114.526 46.7601 114.601 46.7967 114.669L46.4915 114.819L55.5932 133.474L57.2383 132.671L48.1366 114.004L47.8283 114.168Z" fill="#3A3A3A"/>
<path opacity="0.04" d="M22.4185 91.9482C21.6952 92.7174 21.0267 93.5476 20.2515 94.2679C19.5695 94.8744 18.8563 95.445 18.1149 95.9772C16.9184 96.8725 15.7484 97.7993 14.6048 98.7577C13.4118 99.701 12.3322 100.78 11.3878 101.972C9.75792 104.16 8.98571 106.883 7.45959 109.144C6.11051 111.15 4.20897 112.734 2.83853 114.724C2.23731 115.561 1.79074 116.498 1.51996 117.492C1.31785 118.454 1.2267 119.437 1.24832 120.419C1.22085 122.031 1.19643 123.661 1.52607 125.239C1.85571 126.817 2.57909 128.367 3.81829 129.402C4.96898 130.364 6.45541 130.806 7.91132 131.172C8.66217 131.359 9.47406 131.533 10.1883 131.236C10.7109 130.972 11.1645 130.59 11.5129 130.119L15.2275 125.846C17.712 122.977 20.2942 120.047 23.7035 118.368C24.7718 117.846 25.8981 117.453 26.9694 116.946C31.5111 114.758 34.722 110.277 35.9674 105.393C36.2726 104.2 36.4679 102.982 36.6663 101.764L37.2035 98.4251C37.2448 98.2576 37.2448 98.0827 37.2035 97.9153C37.1194 97.7271 36.984 97.5663 36.8128 97.4514C34.2255 95.3619 31.803 93.0761 29.5668 90.6144C29.0358 90.0284 28.5382 89.2256 27.9247 88.7342C27.1556 88.1238 27.2136 88.1696 26.2888 88.7342C24.8661 89.635 23.5653 90.7152 22.4185 91.9482Z" fill="black"/>
<path d="M127.641 126.328C127.61 128.276 127.534 130.281 126.725 132.058C126.377 132.827 125.837 133.584 125.028 133.837C124.539 133.95 124.032 133.969 123.536 133.892C117.548 133.366 111.514 133.844 105.683 135.308C107.24 132.195 106.346 128.462 106.776 125.007C106.895 124.064 107.112 123.136 107.194 122.19C107.499 118.832 106.062 115.572 105.402 112.258C104.83 109.388 104.83 106.434 105.402 103.565C105.515 102.826 105.769 102.116 106.15 101.474C106.597 100.849 107.185 100.338 107.866 99.9817C110.338 98.5746 113.253 98.4128 116.03 98.599C117.901 98.7242 121.653 98.5471 123.212 99.6978C124.918 100.958 125.459 105.192 125.92 107.148C126.61 110.149 127.079 113.196 127.324 116.265C127.623 119.611 127.687 122.971 127.641 126.328Z" fill="#A1616A"/>
<path d="M18.3073 133.086L29.2953 140.411L78.7413 138.58L46.0825 133.086H18.3073Z" fill="white"/>
<path d="M32.7961 74.8832C30.9923 76.4735 29.4631 78.3475 27.7539 80.0415C25.4097 82.3673 22.7452 84.3451 20.0928 86.3138C21.0438 86.5796 21.9094 87.0879 22.605 87.7888C23.3005 88.4897 23.8021 89.3592 24.0607 90.3122C24.1766 90.7609 24.2346 91.2279 24.3659 91.6674C24.6711 92.7082 25.3426 93.6056 26.0629 94.4144C29.1579 97.9031 33.489 100.485 35.3142 104.792C35.3738 105.002 35.503 105.185 35.6805 105.311C35.829 105.377 35.9939 105.396 36.1536 105.366C37.8048 105.192 39.0684 103.861 40.1215 102.567C42.3191 99.8199 44.2267 96.786 45.3102 93.4347C46.3938 90.0833 46.5678 86.3779 45.3866 83.0571C44.7975 81.4028 43.8879 79.8828 42.9845 78.378C42.1929 77.0615 41.4034 75.747 40.6159 74.4346C40.2039 73.7417 39.6789 72.3346 38.8701 71.9928C37.1242 71.2419 33.9163 73.7631 32.7961 74.8832Z" fill="#43CFD9"/>
<path d="M122.696 94.6098L125.294 100.714C122.466 99.7262 119.444 99.4255 116.477 99.8368C113.51 100.248 110.684 101.36 108.232 103.08C106.751 104.139 105.393 105.47 104.725 107.161C104.395 107.223 104.054 107.191 103.741 107.069C103.429 106.946 103.157 106.738 102.958 106.468C102.567 105.92 102.34 105.272 102.304 104.6C102.063 102.256 102.951 99.9573 103.831 97.7658C104.24 96.7402 104.661 95.6933 105.387 94.8601C106.114 94.0268 107.078 93.4774 108.043 92.9585C111.12 91.2568 114.342 89.8329 117.672 88.7037C119.076 88.2489 120.548 88.2581 121.335 89.5706C122.248 91.1363 121.982 92.9433 122.696 94.6098Z" fill="#43CFD9"/>
<path d="M18.3713 112.926C19.0215 113.445 19.5922 114.059 20.2607 114.553C20.9676 115.044 21.7198 115.466 22.5071 115.814L25.5166 117.26C26.4492 117.745 27.425 118.142 28.4315 118.445C29.7195 118.789 31.0716 118.823 32.3658 119.144C33.9987 119.546 35.4912 120.386 37.0998 120.871C38.7083 121.356 40.5915 121.436 41.9345 120.425C42.7739 119.794 43.4087 118.75 44.4495 118.594C45.121 118.506 45.7681 118.829 46.3663 119.144L54.1983 123.261C55.2544 123.816 56.3715 124.433 56.924 125.492C57.4764 126.551 57.104 128.16 55.9411 128.435C55.5358 128.481 55.1282 128.505 54.7203 128.505C54.3174 128.554 53.8778 128.792 53.8229 129.198C53.8209 129.45 53.8873 129.698 54.0152 129.915C54.3662 130.721 54.47 131.685 54.061 132.466C53.652 133.248 52.6478 133.733 51.8451 133.382C51.9824 134.563 50.6974 135.391 49.5528 135.705C46.6654 136.495 43.6041 136.01 40.6526 135.51C39.4927 135.314 38.3146 135.113 37.2585 134.594C36.7518 134.347 36.2818 134.029 35.769 133.8C34.3619 133.175 32.7626 133.257 31.2242 133.284C24.1095 133.41 17.0558 132.091 10.0601 130.779C8.76292 130.534 7.4291 130.275 6.32115 129.558C4.18459 128.166 3.39101 125.309 3.74202 122.782C4.09302 120.255 5.37496 117.965 6.63552 115.743L8.26847 112.865C8.48193 112.424 8.78071 112.03 9.14751 111.705C11.5496 109.871 16.3141 111.272 18.3713 112.926Z" fill="#A1616A"/>
<path opacity="0.04" d="M18.3713 112.926C19.0215 113.445 19.5922 114.059 20.2607 114.553C20.9676 115.044 21.7198 115.466 22.5071 115.814L25.5166 117.26C26.4492 117.745 27.425 118.142 28.4315 118.445C29.7195 118.789 31.0716 118.823 32.3658 119.144C33.9987 119.546 35.4912 120.386 37.0998 120.871C38.7083 121.356 40.5915 121.436 41.9345 120.425C42.7739 119.794 43.4087 118.75 44.4495 118.594C45.121 118.506 45.7681 118.829 46.3663 119.144L54.1983 123.261C55.2544 123.816 56.3715 124.433 56.924 125.492C57.4764 126.551 57.104 128.16 55.9411 128.435C55.5358 128.481 55.1282 128.505 54.7203 128.505C54.3174 128.554 53.8778 128.792 53.8229 129.198C53.8209 129.45 53.8873 129.698 54.0152 129.915C54.3662 130.721 54.47 131.685 54.061 132.466C53.652 133.248 52.6478 133.733 51.8451 133.382C51.9824 134.563 50.6974 135.391 49.5528 135.705C46.6654 136.495 43.6041 136.01 40.6526 135.51C39.4927 135.314 38.3146 135.113 37.2585 134.594C36.7518 134.347 36.2818 134.029 35.769 133.8C34.3619 133.175 32.7626 133.257 31.2242 133.284C24.1095 133.41 17.0558 132.091 10.0601 130.779C8.76292 130.534 7.4291 130.275 6.32115 129.558C4.18459 128.166 3.39101 125.309 3.74202 122.782C4.09302 120.255 5.37496 117.965 6.63552 115.743L8.26847 112.865C8.48193 112.424 8.78071 112.03 9.14751 111.705C11.5496 109.871 16.3141 111.272 18.3713 112.926Z" fill="black"/>
<path d="M111.544 118.2C109.953 118.951 108.128 119.024 106.468 119.601C104.807 120.178 103.397 121.216 101.874 122.061C97.9062 124.277 93.3278 125.114 88.8319 125.91C86.1063 126.399 83.3379 126.887 80.5909 126.771C76.8733 126.612 73.3022 125.373 69.7006 124.439C66.0989 123.505 62.2562 122.876 58.6881 123.926C56.8249 124.494 55.1216 125.492 53.7163 126.841C52.3111 128.189 51.2433 129.85 50.5997 131.688C49.852 133.883 49.7482 136.248 49.8916 138.562C50.6425 139.114 51.6924 138.348 52.1014 137.509C52.5104 136.669 52.7333 135.641 53.5268 135.152C54.9034 135.619 55.2391 137.454 56.3746 138.36C57.0827 138.928 58.0289 139.078 58.9293 139.206L63.5687 139.865C64.6858 140.024 65.983 140.131 66.7918 139.343C67.1855 138.962 67.4022 138.427 67.7624 138.018C68.501 137.2 69.7341 137.06 70.8329 137.17C74.2636 137.512 77.4807 139.737 80.887 139.209C82.059 139.029 83.1487 138.528 84.2658 138.134C90.8861 135.796 98.2419 137.219 105.131 135.879C107.759 135.369 110.289 134.466 112.789 133.513C114.147 132.998 115.521 132.457 116.68 131.584C117.779 130.739 118.646 129.63 119.199 128.359C119.752 127.088 119.973 125.697 119.843 124.317C119.587 122.214 118.538 120.288 116.909 118.933C116.372 118.475 115.667 117.599 115.023 117.312C113.793 116.772 112.587 117.709 111.544 118.2Z" fill="#A1616A"/>
<g opacity="0.1">
<path opacity="0.1" d="M102.625 79.2083C102.115 78.7565 101.99 78.0698 101.551 77.5692C100.635 76.5101 98.7853 76.6535 97.2775 76.8672C94.6495 77.2365 91.4782 77.322 89.8484 75.4937C89.1433 74.7062 88.832 73.6624 87.9712 73.0061C85.9629 71.48 82.5077 73.0428 80.2949 71.7517C78.3628 70.6254 78.488 68.0127 76.8764 66.5629C75.2648 65.1131 72.472 65.3023 70.2836 66.0257C69.9133 66.1958 69.4983 66.2429 69.0993 66.16C68.4065 65.9158 68.4553 65.0551 68.6262 64.4202C69.4595 61.3527 70.308 58.2547 71.9287 55.4345C72.5178 54.4059 73.2137 53.4139 73.5922 52.309C74.2545 50.3739 73.9157 48.1854 74.7856 46.3541C73.8516 46.9646 72.9543 47.6299 72.3774 48.4907C71.0772 50.4288 71.5808 52.895 70.8513 55.0468C70.4728 56.1518 69.7769 57.1437 69.1878 58.1723C67.5671 60.9926 66.7186 64.0906 65.8853 67.1581C65.7144 67.7929 65.6656 68.6537 66.3584 68.8978C66.7574 68.9807 67.1724 68.9336 67.5427 68.7635C69.7311 68.0402 72.5117 67.8326 74.1355 69.3007C75.7593 70.7689 75.6219 73.3724 77.554 74.4895C79.7669 75.7806 83.222 74.2209 85.2303 75.744C86.0911 76.3972 86.4024 77.4441 87.1075 78.2315C88.7495 80.0629 91.9086 79.9744 94.5366 79.605C96.0444 79.3914 97.894 79.2479 98.8097 80.3071C99.2492 80.8076 99.3743 81.4944 99.8841 81.9461C100.8 82.7641 102.475 82.349 103.37 81.5096C103.943 80.9125 104.434 80.2411 104.829 79.5135C104.035 79.7546 103.19 79.718 102.625 79.2083Z" fill="black"/>
<path opacity="0.1" d="M108.186 75.8508C107.99 76.104 107.807 76.3679 107.64 76.6413C108.812 75.805 110.054 75.0236 110.93 73.9584C111.157 73.6827 111.362 73.3887 111.541 73.0794C110.323 73.9523 109.053 74.755 108.186 75.8508Z" fill="black"/>
</g>
<path d="M169.85 136.291L170.766 223.89L175.039 223.279L174.123 136.291H169.85Z" fill="#3A3A3A"/>
<path d="M195.489 152.162L196.404 239.761L200.678 239.151L199.762 152.162H195.489Z" fill="#3A3A3A"/>
<path d="M275.314 196.414L275.295 194.732V193.731L275.133 178.323L274.88 154.235L274.837 152.156H270.564L270.586 154.159L270.72 167.06L270.778 172.646L270.827 177.169L270.906 184.989L270.955 189.601V190.089L271.019 196.151L271.074 201.496L271.422 201.111C271.982 200.486 272.529 199.851 273.064 199.206L275.314 196.414Z" fill="#3A3A3A"/>
<path d="M190.758 166.355L188.316 170.006L190.758 186.637L211.513 192.318H245.087L265.232 193.535L274.828 186.967L273.168 175.686L265.843 166.355H190.758Z" fill="#74D14C"/>
<path d="M188.316 170.006L187.095 180.145C187.095 180.145 180.686 200.024 232.268 198.807C283.851 197.589 274.999 193.532 274.999 193.532L274.694 181.769C274.694 181.769 276.492 187.336 250.276 186.582C224.061 185.829 199.609 183.393 199.609 183.393C199.609 183.393 190.453 185.014 188.316 170.006Z" fill="#3A3A3A"/>
<path d="M231.291 79.1228C228.349 80.4627 226.121 83.0601 224.628 85.9323C223.136 88.8044 222.296 91.9574 221.469 95.089C220.596 98.3915 219.72 101.703 219.269 105.088C218.463 111.107 219.067 117.434 221.833 122.84C224.598 128.245 229.707 132.607 235.69 133.648C238 134.054 240.375 133.971 242.71 133.73C246.93 133.283 251.088 132.367 255.105 130.998C259.302 129.579 263.669 127.394 265.537 123.368C266.621 121.033 266.712 118.371 266.661 115.801C266.517 108.797 265.459 101.841 263.514 95.1103C262.949 93.1569 262.293 91.1882 261.096 89.5431C259.9 87.8979 258.264 86.6923 256.594 85.5752C249.455 80.7679 240.073 75.1305 231.291 79.1228Z" fill="#FBBEBE"/>
<path opacity="0.05" d="M231.291 79.1228C228.349 80.4627 226.121 83.0601 224.628 85.9323C223.136 88.8044 222.296 91.9574 221.469 95.089C220.596 98.3915 219.72 101.703 219.269 105.088C218.463 111.107 219.067 117.434 221.833 122.84C224.598 128.245 229.707 132.607 235.69 133.648C238 134.054 240.375 133.971 242.71 133.73C246.93 133.283 251.088 132.367 255.105 130.998C259.302 129.579 263.669 127.394 265.537 123.368C266.621 121.033 266.712 118.371 266.661 115.801C266.517 108.797 265.459 101.841 263.514 95.1103C262.949 93.1569 262.293 91.1882 261.096 89.5431C259.9 87.8979 258.264 86.6923 256.594 85.5752C249.455 80.7679 240.073 75.1305 231.291 79.1228Z" fill="black"/>
<path d="M227.986 117.541C228.837 118.712 229.867 119.742 231.038 120.593C233.944 122.602 237.674 122.873 241.202 122.983C244.034 123.069 247.282 122.907 249.058 120.697C249.858 119.702 250.218 118.432 250.542 117.196C252.538 109.606 253.957 101.875 254.784 94.0695L262.867 94.097C266.364 109.074 266.078 124.644 265.772 140.024L265.33 162.452L260.123 161.899C247.758 160.59 235.375 159.28 222.944 159.054C215.659 158.92 208.373 159.161 201.114 159.775L212.453 126.06C213.924 121.677 215.411 117.236 215.756 112.63C216.253 105.949 214.379 98.8951 216.976 92.7143C217.184 92.2168 217.446 91.701 217.92 91.4416C218.393 91.1821 218.991 91.2462 219.534 91.3164C220.56 91.4538 223.694 91.3164 224.439 91.9727C225.538 92.9249 224.811 93.0684 224.424 94.6037C223.731 97.3507 223.075 99.8932 223.084 102.756C223.093 107.954 224.705 113.442 227.986 117.541Z" fill="#74D14C"/>
<path d="M275.314 196.414C276.675 194.607 277.958 192.736 279.162 190.801C278.552 189.494 277.881 188.218 277.346 186.885C276.528 184.84 276.058 182.673 275.594 180.521C275.436 179.788 275.278 179.056 275.121 178.323C273.412 170.354 271.807 162.271 271.474 154.192C271.443 153.521 271.424 152.849 271.416 152.178C271.416 152.08 271.416 151.985 271.416 151.873C271.416 151.137 271.416 150.401 271.416 149.669C271.453 147.838 271.569 145.991 271.779 144.153C271.819 143.793 271.865 143.433 271.913 143.073C271.913 142.994 271.932 142.917 271.944 142.838L292.699 142.081L294.445 142.017C295.645 141.974 296.914 141.907 297.903 141.226C299.567 140.085 299.762 137.744 299.734 135.732C299.633 130.648 299.057 125.585 298.013 120.609C297.226 116.867 296.102 113.042 293.581 110.167C291.512 107.805 288.515 106.086 287.437 103.147C287.037 102.054 286.936 100.855 286.418 99.8108C285.899 98.7669 285.041 98.0008 284.232 97.195C281.386 94.3743 279.024 91.1031 277.243 87.5134C276.007 85.0227 274.667 82.2757 273.052 80.5543C272.973 80.4658 272.893 80.3834 272.811 80.304C271.437 78.9458 269.865 78.3506 268.004 79.2754C267.669 79.4434 267.35 79.6416 267.051 79.8675C266.388 80.3745 265.781 80.9517 265.241 81.589C263.361 83.7515 261.711 86.1042 260.318 88.6091C259.339 90.3727 258.498 92.2095 257.803 94.1031C257.254 95.5991 256.801 97.1283 256.445 98.6814C256.182 99.8321 255.975 100.995 255.81 102.161C255.199 106.544 255.199 111.012 255.285 115.45C255.377 119.528 255.557 123.615 255.926 127.678C256.017 128.66 256.119 129.642 256.231 130.623C256.455 132.562 256.732 134.495 257.061 136.422C257.193 137.158 257.327 137.893 257.476 138.626C257.513 138.821 257.553 139.017 257.592 139.209L257.611 139.291C258.014 140.994 258.327 142.717 258.548 144.453C258.572 144.67 258.591 144.887 258.603 145.103C258.654 146.1 258.646 147.1 258.578 148.097C258.508 149.275 258.398 150.45 258.343 151.628C258.343 151.836 258.343 152.04 258.322 152.239C258.307 152.834 258.322 153.429 258.322 154.024C258.384 155.448 258.553 156.866 258.829 158.264C259.343 160.865 260.233 163.378 261.469 165.724C261.585 165.943 261.704 166.16 261.823 166.374C263.37 169.139 265.324 171.675 266.755 174.505C267.99 177.051 268.912 179.737 269.502 182.505C269.706 183.418 269.899 184.334 270.082 185.252C270.366 186.717 270.619 188.194 270.879 189.671C270.903 189.818 270.931 189.977 270.958 190.111C271.303 192.07 271.666 194.021 272.133 195.934C272.405 197.049 272.71 198.147 273.067 199.228L275.314 196.414Z" fill="#3A3A3A"/>
<path d="M271.236 172.356C271.236 172.631 271.218 172.905 271.205 173.183C271.151 174.522 271.028 175.858 270.836 177.185C270.583 178.995 270.14 180.774 269.514 182.492C269.1 183.622 268.572 184.707 267.939 185.731C267.378 186.64 266.722 187.486 265.98 188.255C264.149 190.16 261.511 190.767 258.96 191.57C257.786 191.91 256.651 192.373 255.575 192.952C255.383 193.059 255.193 193.175 255.01 193.297L251.818 195.412C250.823 196.069 249.806 196.749 249.123 197.723C249.011 197.889 248.909 198.061 248.817 198.239C248.385 199.135 248.069 200.083 247.877 201.059C246.217 207.975 244.553 214.898 243.415 221.918C243.339 222.382 243.265 222.849 243.186 223.316L243.158 223.462C243.145 223.428 243.128 223.394 243.11 223.362C234.942 228.3 226.472 232.756 217.746 236.325L215.85 220.453C215.653 219.163 215.587 217.856 215.655 216.552C215.835 214.498 216.671 212.551 216.897 210.503C217.111 208.498 216.732 206.474 215.808 204.682C215.447 203.986 214.996 203.303 214.913 202.524C214.831 201.746 215.279 201.035 216.061 200.955C216.671 200.278 216.72 199.353 216.54 198.437C216.444 197.959 216.301 197.492 216.113 197.042C215.594 195.767 214.938 194.378 215.383 193.074C215.501 192.838 215.554 192.575 215.536 192.311C215.539 192.295 215.539 192.279 215.536 192.263C215.432 191.921 215.026 191.771 214.816 191.481C214.419 190.941 214.816 190.205 215.06 189.583C215.297 188.914 215.435 188.213 215.469 187.504C215.502 187.11 215.527 186.714 215.569 186.323C215.629 185.794 215.724 185.27 215.853 184.754C216.595 181.83 218.378 179.278 220.868 177.575C222.055 176.776 223.377 176.193 224.589 175.439C225.83 174.602 227.015 173.684 228.135 172.692C230.823 170.453 233.618 168.343 236.52 166.361C239.64 164.231 242.872 162.268 246.202 160.483C246.914 160.098 247.626 159.724 248.338 159.36C249.113 158.953 249.894 158.567 250.679 158.203C253.194 157.003 256.048 157.452 258.829 158.252C259.995 158.584 261.145 158.981 262.256 159.341C263.341 159.694 264.385 160.163 265.37 160.739C267.833 162.186 269.868 164.323 270.714 167.021C270.715 167.038 270.715 167.055 270.714 167.073C271.251 168.764 271.285 170.577 271.236 172.356Z" fill="#3A3A3A"/>
<path opacity="0.1" d="M271.236 172.356C271.236 172.631 271.218 172.905 271.205 173.183C271.151 174.522 271.028 175.858 270.836 177.185C270.583 178.995 270.14 180.774 269.514 182.492C269.1 183.622 268.572 184.707 267.939 185.731C267.378 186.64 266.722 187.486 265.98 188.255C264.149 190.16 261.511 190.767 258.96 191.57C257.786 191.91 256.651 192.373 255.575 192.952C255.383 193.059 255.193 193.175 255.01 193.297L251.818 195.412C250.823 196.069 249.806 196.749 249.123 197.723C249.011 197.889 248.909 198.061 248.817 198.239C248.385 199.135 248.069 200.083 247.877 201.059C246.217 207.975 244.553 214.898 243.415 221.918C243.339 222.382 243.265 222.849 243.186 223.316L243.158 223.462C243.145 223.428 243.128 223.394 243.11 223.362C234.942 228.3 226.472 232.756 217.746 236.325L215.85 220.453C215.653 219.163 215.587 217.856 215.655 216.552C215.835 214.498 216.671 212.551 216.897 210.503C217.111 208.498 216.732 206.474 215.808 204.682C215.447 203.986 214.996 203.303 214.913 202.524C214.831 201.746 215.279 201.035 216.061 200.955C216.671 200.278 216.72 199.353 216.54 198.437C216.444 197.959 216.301 197.492 216.113 197.042C215.594 195.767 214.938 194.378 215.383 193.074C215.501 192.838 215.554 192.575 215.536 192.311C215.539 192.295 215.539 192.279 215.536 192.263C215.432 191.921 215.026 191.771 214.816 191.481C214.419 190.941 214.816 190.205 215.06 189.583C215.297 188.914 215.435 188.213 215.469 187.504C215.502 187.11 215.527 186.714 215.569 186.323C215.629 185.794 215.724 185.27 215.853 184.754C216.595 181.83 218.378 179.278 220.868 177.575C222.055 176.776 223.377 176.193 224.589 175.439C225.83 174.602 227.015 173.684 228.135 172.692C230.823 170.453 233.618 168.343 236.52 166.361C239.64 164.231 242.872 162.268 246.202 160.483C246.914 160.098 247.626 159.724 248.338 159.36C249.113 158.953 249.894 158.567 250.679 158.203C253.194 157.003 256.048 157.452 258.829 158.252C259.995 158.584 261.145 158.981 262.256 159.341C263.341 159.694 264.385 160.163 265.37 160.739C267.833 162.186 269.868 164.323 270.714 167.021C270.715 167.038 270.715 167.055 270.714 167.073C271.251 168.764 271.285 170.577 271.236 172.356Z" fill="black"/>
<path d="M242.255 121.799C242.224 121.728 242.179 121.664 242.123 121.611C242.067 121.558 242 121.517 241.928 121.49C241.855 121.463 241.778 121.451 241.701 121.455C241.624 121.459 241.548 121.478 241.478 121.512C241.409 121.546 241.347 121.593 241.296 121.651C241.245 121.71 241.207 121.778 241.183 121.851C241.159 121.925 241.15 122.003 241.157 122.08C241.164 122.157 241.187 122.231 241.223 122.3L240.918 122.449L250.02 141.104L251.665 140.302L242.563 121.634L242.255 121.799Z" fill="#3A3A3A"/>
<path d="M253.634 102.259C264.422 102.259 273.168 93.5129 273.168 82.7244C273.168 71.9359 264.422 63.1902 253.634 63.1902C242.845 63.1902 234.099 71.9359 234.099 82.7244C234.099 93.5129 242.845 102.259 253.634 102.259Z" fill="#FBBEBE"/>
<path d="M279.416 70.6315C279.324 69.0787 279.094 67.5372 278.726 66.0257C277.578 61.0903 275.481 56.2311 271.871 52.6875C271.648 51.8211 271.382 50.9664 271.074 50.1267C271.068 50.1059 271.061 50.0855 271.053 50.0656C269.976 47.1074 268.418 44.3468 266.444 41.8948C265.299 40.4725 263.816 39.0685 261.991 39.0135C261.478 38.9952 260.935 39.0837 260.465 38.8487C260.119 38.6252 259.828 38.3269 259.613 37.9758C258.709 36.8336 257.51 35.96 256.146 35.4495C254.782 34.939 253.304 34.811 251.873 35.0792L251.683 35.1189C251.576 35.1402 251.47 35.1647 251.378 35.1921C251.286 35.2196 251.122 35.2654 250.993 35.3051C251.134 35.537 251.271 35.7721 251.406 36.0101C251.768 36.6552 252.103 37.3144 252.413 37.988C252.669 38.5496 252.906 39.1203 253.124 39.7003C249.998 40.0574 247.453 42.2763 245.127 44.3885L239.651 49.3575C239.641 49.3659 239.632 49.3751 239.624 49.385L239.465 49.5376C239.426 49.5773 239.386 49.6169 239.349 49.6597C239.334 49.6724 239.321 49.6867 239.31 49.7024C239.264 49.7512 239.221 49.8031 239.178 49.855C239.102 49.9511 239.034 50.0532 238.974 50.1602C238.944 50.2061 238.917 50.254 238.894 50.3037C238.886 50.3183 238.879 50.3336 238.873 50.3495C238.853 50.3911 238.836 50.4339 238.821 50.4777C238.82 50.4837 238.82 50.4899 238.821 50.496C238.813 50.521 238.806 50.5465 238.8 50.5723C238.738 50.7871 238.756 51.0172 238.852 51.2194L242.463 51.259H242.887C242.905 51.7413 242.92 52.2266 242.939 52.7088C242.366 53.1377 241.816 53.5961 241.29 54.0823C240.718 54.6124 240.181 55.1792 239.682 55.7794C236.425 59.7137 234.725 64.7957 234.554 69.9112C234.554 70.0699 234.554 70.2164 234.554 70.3812C234.554 70.8482 234.554 71.3152 234.554 71.7791C234.554 72.0844 234.582 72.3896 234.606 72.6948C234.608 73.0924 234.713 73.4827 234.911 73.8272C234.937 73.8657 234.966 73.9024 234.997 73.9371C235.18 74.1358 235.4 74.2975 235.644 74.4132L235.906 74.5414C236.038 74.6055 236.163 74.6665 236.285 74.7367C237.435 75.3869 238.116 76.6413 239.163 77.4471C239.224 77.4929 239.285 77.5387 239.346 77.5784L239.484 77.6699L239.569 77.7249L239.685 77.792C239.761 77.8379 239.839 77.8797 239.92 77.9172L240.067 77.9904H240.091C240.213 78.0454 240.335 78.0972 240.46 78.143L240.634 78.2041L240.686 78.2224C240.735 78.2376 240.787 78.256 240.839 78.2682C240.942 78.2987 241.044 78.3262 241.144 78.3506L241.449 78.4177C241.568 78.4391 241.69 78.4605 241.812 78.4757L241.992 78.5001L242.176 78.5184C242.467 78.5449 242.76 78.5602 243.055 78.5642C243.981 78.5585 244.905 78.4943 245.823 78.3719L253.612 77.4563C255.38 77.2518 257.183 77.0473 258.926 77.4074C260.403 77.7127 261.765 78.4147 263.199 78.9122C263.523 79.0251 263.846 79.1289 264.173 79.2174C264.292 79.251 264.414 79.2876 264.536 79.3181L264.704 79.3609L265.095 79.4555C265.235 79.4891 265.376 79.5226 265.516 79.5501C265.714 79.5928 265.91 79.6295 266.108 79.6661C266.242 79.6936 266.38 79.7149 266.517 79.7393H266.545L266.935 79.8004H267.03L267.32 79.8401C267.46 79.8614 267.601 79.8797 267.744 79.895C268.055 79.9337 268.367 79.9672 268.678 79.9957C269.182 80.0446 269.688 80.0812 270.204 80.1117L270.711 80.1422L271.218 80.1667L272.744 80.2338H272.811H273.024C273.659 80.278 274.296 80.2452 274.923 80.1361C275.033 80.1148 275.14 80.0903 275.246 80.0598C275.353 80.0293 275.442 79.9988 275.552 79.9622C276.696 79.5226 277.533 78.5123 278.112 77.4319C278.235 77.2029 278.348 76.974 278.451 76.739C278.555 76.504 278.65 76.2659 278.735 76.0278C278.842 75.7226 278.934 75.4327 279.013 75.1274C279.037 75.045 279.059 74.9626 279.077 74.8771C279.095 74.7917 279.138 74.6238 279.162 74.4956C279.239 74.1446 279.297 73.7905 279.339 73.4334C279.339 73.3205 279.367 73.2045 279.379 73.0916C279.407 72.7864 279.428 72.5025 279.44 72.2034C279.44 71.9775 279.44 71.7486 279.44 71.5197C279.437 71.2725 279.416 70.9459 279.416 70.6315ZM271.59 52.4097C271.343 52.1778 271.089 51.9549 270.833 51.7443C271.118 51.9244 271.373 52.149 271.587 52.4097H271.59Z" fill="#3A3A3A"/>
<path d="M216.143 81.65C213.845 81.3662 211.565 80.3589 209.297 80.8534C207.878 81.1586 206.657 82.0407 205.522 82.9472C201.296 86.3339 197.703 90.4414 194.909 95.0798C194.435 95.7733 194.102 96.5532 193.929 97.3751C193.783 98.3274 194.042 99.2949 194.35 100.208C196.438 106.376 200.904 111.528 202.936 117.715C205.073 124.222 204.331 131.334 202.756 138C200.804 146.23 197.631 154.12 193.343 161.411C192.761 162.495 192.032 163.493 191.176 164.377C190.065 165.446 188.573 166.209 187.913 167.607C187.608 168.217 187.52 168.913 187.303 169.566C186.692 171.398 185.215 172.966 185.072 174.898C184.965 176.373 185.664 177.768 186.088 179.172C186.803 181.584 186.728 184.162 185.871 186.527C184.324 190.77 180.277 194.628 181.452 198.99C184.074 198.236 186.979 197.256 188.215 194.823C188.652 193.963 188.869 192.937 189.604 192.308C191.072 191.06 193.572 192.189 195.132 191.042C196.31 190.169 196.353 188.38 195.828 187.007C195.303 185.633 194.399 184.424 193.996 183.011C193.294 180.463 194.418 177.768 194.21 175.134C194.112 173.913 193.737 172.744 193.709 171.529C193.658 169.169 194.964 166.95 196.701 165.348C198.437 163.746 200.583 162.683 202.695 161.637L210.68 157.669C213.576 156.234 216.751 154.485 217.7 151.396C218.06 150.24 218.063 149.006 218.081 147.798C218.353 129.329 222.98 111.232 227.58 93.3431C228.294 90.5717 229.021 87.7881 230.083 85.1265C231.145 82.465 233.223 80.3284 234.283 77.8561C228.138 77.1358 222.525 82.4497 216.143 81.65Z" fill="#3A3A3A"/>
<path d="M260.159 197.515C260.864 201.789 261.295 206.153 261.631 210.497C256.137 215.05 250.221 219.012 244.212 222.687C243.87 222.898 243.525 223.105 243.18 223.298L243.152 223.444C243.139 223.409 243.122 223.376 243.104 223.343C242.637 222.336 241.822 221.531 240.808 221.079C238.556 216.348 236.305 211.617 234.057 206.886C232.836 204.331 231.615 201.752 231.005 198.996C231.005 198.938 230.977 198.877 230.968 198.819C230.504 196.682 230.397 194.463 230.089 192.299C229.933 191.06 229.654 189.839 229.256 188.655C228.889 187.602 228.386 186.579 227.94 185.551C227.391 184.281 226.93 182.996 226.908 181.626C226.908 181.189 226.936 180.71 226.722 180.344C226.494 180.028 226.212 179.756 225.889 179.538C225.486 179.181 225.181 178.727 225.001 178.219C224.822 177.711 224.774 177.166 224.863 176.635C223.032 176.73 222 178.699 221.265 180.368C220.596 182.001 219.718 183.54 218.652 184.946C217.875 185.951 216.888 186.773 215.759 187.355C215.658 187.403 215.557 187.452 215.453 187.495C212.905 188.618 209.929 188.221 207.167 187.715C204.752 187.272 202.256 186.723 200.314 185.221L200.107 185.056C199.532 184.579 199.02 184.031 198.581 183.426C196.954 181.204 196.234 178.277 195.834 175.491C195.797 175.228 195.761 174.966 195.727 174.703C195.449 172.734 195.373 170.742 195.498 168.757C195.535 168.269 195.587 167.781 195.651 167.295C195.693 166.99 195.739 166.661 195.791 166.343C195.79 166.334 195.79 166.325 195.791 166.316C195.87 165.812 195.956 165.305 196.041 164.79C196.347 163.059 196.652 161.283 197.567 159.793C198.17 158.866 198.93 158.052 199.814 157.388C200.144 157.128 200.482 156.881 200.824 156.643C201.38 156.259 201.95 155.892 202.53 155.547C203.989 154.674 205.521 153.929 207.109 153.319C207.487 153.173 207.872 153.035 208.256 152.904C209.751 152.372 211.36 152.245 212.92 152.535C214.302 152.735 215.699 152.817 217.096 152.779C220.676 152.709 224.271 152.025 227.845 151.583C232.808 150.972 238.141 150.899 242.469 153.414C242.676 153.533 242.878 153.658 243.079 153.789C245.216 155.187 246.937 157.147 248.326 159.335C248.631 159.796 248.897 160.269 249.159 160.748C249.764 161.848 250.311 162.979 250.798 164.136C251.086 164.705 251.242 165.331 251.253 165.968C251.246 166.089 251.23 166.209 251.204 166.328C251.122 166.761 250.957 167.182 250.899 167.622C250.707 169.285 252.12 170.674 252.648 172.258C252.99 173.29 252.953 174.395 253.145 175.481C253.423 177.008 254.171 178.381 254.842 179.755C255.904 181.965 256.811 184.247 257.559 186.582C258.09 188.209 258.545 189.86 258.945 191.527C259.075 192.062 259.198 192.598 259.314 193.136C259.647 194.613 259.918 196.06 260.159 197.515Z" fill="#3A3A3A"/>
<path d="M292.702 152.315V154.452L292.308 154.446L291.869 154.439L286.961 154.378L274.868 154.22L271.474 154.177L270.595 154.165L265.501 154.101L258.322 154.006L243.091 153.808L216.662 153.466L207.124 153.344L203.296 153.295L199.774 153.249L197.58 153.219L195.501 153.191L180.09 152.993L175.817 152.938L174.886 152.926L174.282 151.366L169.89 140.039L169.087 137.97L169.697 135.528L172.444 137.359L174.135 137.57L201.975 141.031L207.2 141.681L218.28 143.061L229.133 144.41L233.388 144.938L258.566 148.069L265.601 148.945L271.425 149.669L292.131 152.245L292.702 152.315Z" fill="#3A3A3A"/>
<path d="M169.698 135.528L175.192 149.873L292.702 152.315V136.749L169.698 135.528Z" fill="#504F60"/>
<path d="M175.802 151.399L176.718 238.998L180.991 238.388L180.075 151.399H175.802Z" fill="#3A3A3A"/>
<path d="M292.308 154.442H291.869C291.157 159.904 289.98 165.294 288.35 170.555L286.961 154.378L286.903 153.689L292.037 153.096L292.208 153.078L292.308 154.442Z" fill="#3A3A3A"/>
<path d="M275.61 144.074L230.895 144.99L217.007 140.411L254.244 138.275L275.61 144.074Z" fill="white"/>
<path d="M219.519 126.274C219.045 126.455 218.625 126.755 218.298 127.143C218.043 127.565 217.887 128.039 217.843 128.529L217.092 133.007C216.978 133.416 216.998 133.852 217.15 134.249C217.346 134.624 217.914 134.82 218.197 134.508C218.161 135.384 218.237 136.318 218.747 137.033C219.256 137.747 220.325 138.122 221.045 137.625C221.158 137.809 221.31 137.966 221.489 138.086C221.669 138.205 221.873 138.285 222.086 138.318C222.3 138.351 222.518 138.337 222.725 138.277C222.933 138.218 223.125 138.114 223.288 137.973C222.855 138.119 222.825 138.782 223.133 139.117C223.478 139.422 223.918 139.598 224.378 139.615C229.742 140.371 235.21 139.683 240.219 137.622C240.692 137.426 239.447 131.594 239.322 130.995C239.017 129.588 238.864 127.87 237.677 126.924C234.838 124.659 229.796 124.213 226.338 124.482C223.975 124.661 221.664 125.268 219.519 126.274Z" fill="#FBBEBE"/>
<path opacity="0.1" d="M265.015 126.951C253.976 127.162 242.707 127.342 232.17 124.036C233.177 127.936 233.107 132.037 231.969 135.9L283.588 140.173C285.777 140.353 294.851 141.379 296.984 140.863C299.118 140.347 279.083 133.748 279.892 131.707C282.117 126.081 289.571 122.785 284.202 122.574C277.426 122.306 271.843 126.823 265.015 126.951Z" fill="black"/>
<path d="M265.321 127.562C254.281 127.772 243.012 127.952 232.476 124.647C233.482 128.547 233.412 132.647 232.274 136.511L283.893 140.784C286.082 140.964 295.156 142.005 297.29 141.474C299.423 140.943 298.923 138.327 299.731 136.285C301.956 130.66 289.876 123.395 284.507 123.185C277.731 122.916 272.148 127.433 265.321 127.562Z" fill="#3A3A3A"/>
<path d="M247.767 128.41C248.242 128.592 248.662 128.891 248.988 129.28C249.243 129.701 249.4 130.175 249.446 130.666L250.197 135.143C250.31 135.553 250.29 135.988 250.139 136.386C249.944 136.761 249.373 136.956 249.092 136.645C249.126 137.521 249.052 138.455 248.543 139.169C248.033 139.883 246.965 140.259 246.241 139.761C246.128 139.945 245.977 140.103 245.797 140.222C245.617 140.342 245.413 140.421 245.2 140.454C244.987 140.487 244.769 140.474 244.561 140.414C244.353 140.354 244.161 140.25 243.998 140.109C244.431 140.256 244.465 140.918 244.157 141.254C243.81 141.559 243.369 141.734 242.908 141.751C237.546 142.507 232.078 141.819 227.07 139.758C226.597 139.563 227.839 133.73 227.968 133.132C228.273 131.725 228.425 130.006 229.613 129.06C232.448 126.795 237.494 126.35 240.952 126.618C243.313 126.798 245.623 127.405 247.767 128.41Z" fill="#FBBEBE"/>
<path d="M174.819 118.689C173.806 119.995 172.789 121.329 172.136 122.852C170.888 125.758 171.071 129.048 171.279 132.204C171.337 133.12 171.41 134.054 171.889 134.814C172.303 135.388 172.85 135.854 173.482 136.172C176.126 137.674 179.22 138.122 182.242 138.458C186.869 138.971 191.513 139.283 196.173 139.395C207.716 139.676 219.437 138.733 230.681 141.348C229.289 139.233 229.292 136.434 230.071 134.023C230.849 131.612 232.347 129.512 233.816 127.446C228.67 125.816 223.151 128.361 217.761 128.108C212.227 127.848 207.106 124.65 201.566 124.653C200.375 124.653 199.164 124.802 198.007 124.515C196.85 124.229 195.73 123.356 195.623 122.168C197.1 122.501 198.501 121.237 199.112 119.852C199.722 118.466 199.832 116.9 200.424 115.505C201.899 112.035 205.882 110.426 208.36 107.57C208.751 107.118 209.12 106.584 209.108 105.985C209.05 105.479 208.836 105.002 208.497 104.621C206.437 101.874 203.333 100.348 200.754 98.2114C199.857 97.4667 198.047 94.6586 197.039 94.3992C195.171 93.92 193.587 96.6181 192.373 97.9336C186.24 104.598 180.388 111.516 174.819 118.689Z" fill="#3A3A3A"/>
<path opacity="0.07" d="M236.193 117.913C236.967 118.487 237.654 119.169 238.235 119.937C238.525 120.323 238.731 120.765 238.84 121.235C238.95 121.704 238.961 122.192 238.873 122.666C238.778 121.781 238.976 120.89 239.435 120.128C239.894 119.366 240.589 118.774 241.416 118.445L236.193 117.913Z" fill="black"/>
<g opacity="0.1">
<path opacity="0.1" d="M253.121 37.872C252.762 36.918 252.348 35.9855 251.882 35.0792C251.58 35.1372 251.283 35.2136 250.99 35.3081C251.514 36.1779 251.986 37.0779 252.404 38.0032C252.639 37.9422 252.877 37.8995 253.121 37.872Z" fill="black"/>
<path opacity="0.1" d="M270.83 49.9069C270.912 49.9741 270.992 50.0504 271.071 50.1206C271.065 50.1008 271.058 50.0814 271.05 50.0626C270.981 50.0117 270.907 49.9598 270.83 49.9069Z" fill="black"/>
<path opacity="0.1" d="M242.457 51.2499C242.615 51.1247 242.762 50.9935 242.933 50.8714L242.884 49.4216L239.624 49.388C239.096 49.8733 238.534 50.5692 238.846 51.2194L242.457 51.2499Z" fill="black"/>
<path opacity="0.1" d="M278.094 75.6555C277.514 76.736 276.678 77.7493 275.533 78.1858C274.651 78.5215 273.681 78.491 272.738 78.4483C269.521 78.317 266.249 78.1736 263.209 77.1083C261.786 76.6078 260.425 75.9088 258.935 75.6005C257.193 75.2404 255.389 75.4449 253.621 75.6524L245.832 76.5681C243.534 76.8367 240.973 77.0381 239.139 75.628C238.089 74.8222 237.411 73.5678 236.26 72.9207C235.775 72.646 235.198 72.469 234.884 72.005C234.685 71.6605 234.58 71.2702 234.579 70.8726C234.554 70.5522 234.539 70.2317 234.527 69.9112C234.494 70.8424 234.511 71.7747 234.579 72.704C234.58 73.1016 234.685 73.4919 234.884 73.8364C235.189 74.2972 235.775 74.4743 236.26 74.752C237.411 75.3991 238.092 76.6536 239.139 77.4594C240.97 78.8695 243.534 78.6802 245.832 78.3994L253.621 77.4838C255.389 77.2762 257.193 77.0717 258.935 77.4319C260.413 77.7371 261.774 78.4391 263.209 78.9397C266.261 80.0049 269.521 80.1606 272.738 80.2796C273.681 80.3193 274.651 80.3529 275.533 80.0171C276.678 79.5807 277.514 78.5673 278.094 77.4868C279.217 75.396 279.532 73.0245 279.413 70.6346C279.347 72.3847 278.897 74.099 278.094 75.6555Z" fill="black"/>
</g>
<path opacity="0.1" d="M253.032 39.8346L257.305 43.8024C257.305 43.8024 253.643 42.2763 253.032 39.8346Z" fill="black"/>
</g>
<defs>
<linearGradient id="paint0_linear" x1="-6.03521e-05" y1="123" x2="293" y2="123" gradientUnits="userSpaceOnUse">
<stop stop-color="#43CFD9"/>
<stop offset="1" stop-color="#74D14C"/>
</linearGradient>
<clipPath id="clip0">
<rect width="300" height="245.103" fill="white"/>
</clipPath>
</defs>
</svg>
