<svg width="923" height="631" viewBox="0 0 923 631" fill="none" xmlns="http://www.w3.org/2000/svg">
<g clip-path="url(#clip0)">
<path opacity="0.1" d="M861 316.048C861.014 329.381 859.401 342.665 856.198 355.606C855.12 359.967 853.868 364.237 852.442 368.416C850.697 373.575 848.674 378.636 846.383 383.577C845.229 386.076 844.008 388.526 842.722 390.926C842.743 404.597 839.929 418.125 834.456 430.653C824.564 453.132 806.923 471.307 784.751 481.867C770.888 488.481 755.737 491.96 740.377 492.055H212.867C189.397 492.105 166.332 485.939 146.018 474.185L145.706 474.008C142.812 472.314 139.991 470.521 137.243 468.629C131.058 464.356 125.248 459.566 119.875 454.311C112.602 447.203 106.193 439.263 100.782 430.653C88.0723 410.472 81.3394 387.104 81.363 363.254C68.4918 340.67 60.9864 313.617 60.9864 284.546C60.9864 247.868 72.9135 214.41 92.5091 189.082C96.5944 183.79 101.069 178.811 105.897 174.186C110.659 169.61 115.779 165.419 121.206 161.655C125.548 158.639 130.087 155.916 134.791 153.504C136.754 152.506 138.723 151.561 140.727 150.685C142.486 149.904 144.266 149.177 146.066 148.491C148.226 147.672 150.413 146.918 152.627 146.229C154.841 145.541 157.026 144.939 159.181 144.423C162.351 143.648 165.575 143.019 168.854 142.535C171.57 142.134 174.287 141.855 177.004 141.645C179.164 141.482 181.344 141.393 183.538 141.366H184.727C187.145 141.366 189.549 141.461 191.933 141.624C192.185 141.122 192.456 140.612 192.708 140.117C193.659 138.303 194.644 136.496 195.635 134.73C195.633 134.715 195.633 134.699 195.635 134.683C195.805 134.37 195.975 134.065 196.151 133.766C196.953 132.319 197.788 130.886 198.644 129.466C199.038 128.787 199.425 128.149 199.826 127.51C199.911 127.351 200.004 127.197 200.104 127.048C200.512 126.369 200.926 125.69 201.347 125.011C203.444 121.66 205.624 118.368 207.888 115.135L208.466 114.306C208.819 113.803 209.145 113.314 209.539 112.812C210.476 111.501 211.441 110.183 212.412 108.893C213.091 107.969 213.77 107.052 214.504 106.176C216.27 103.912 218.081 101.648 219.938 99.3836C221.794 97.1196 223.723 94.8849 225.725 92.6797C225.996 92.3741 226.268 92.0752 226.553 91.7764L229.454 88.6112C229.596 88.4618 229.718 88.3259 229.854 88.1901C230.201 87.8165 230.534 87.4429 230.907 87.0829C232.463 85.4324 234.059 83.8159 235.662 82.2061C243.819 74.0809 252.51 66.5089 261.676 59.5405C262.036 59.2552 262.403 58.9836 262.763 58.7119C264.488 57.4146 266.24 56.1308 267.993 54.8675C277.631 47.9527 287.707 41.6681 298.157 36.0531C298.877 35.6387 299.61 35.2516 300.351 34.8712C309.719 29.915 319.354 25.4797 329.211 21.5857C334.583 19.4597 340.078 17.4628 345.607 15.6357C349.289 14.4267 352.984 13.2788 356.726 12.1988C362.576 10.5143 368.467 9.00421 374.399 7.66841C391.875 3.74717 409.654 1.32487 427.542 0.427913C432.975 0.151697 438.47 0.00906222 444.026 5.94167e-06C470.835 -0.035486 497.54 3.34249 523.495 10.0525C523.763 10.458 524.131 10.7887 524.562 11.0132C524.993 11.2378 525.475 11.3489 525.961 11.3362H528.243C529.235 11.6079 530.219 11.8796 531.211 12.1649C536.749 13.7588 542.208 15.4998 547.587 17.3881L548.946 17.8771C562.223 22.5983 575.141 28.2733 587.6 34.8576C598.831 40.7788 609.644 47.4597 619.965 54.8539C621.554 55.995 623.121 57.1451 624.665 58.3043C626.54 57.1044 628.446 55.9542 630.384 54.8539C637.869 50.5914 645.818 47.2025 654.075 44.7539C671.34 39.6449 689.607 38.9305 707.218 42.6755C729.802 47.464 750.246 59.3503 766.758 76.2561C773.481 83.1732 779.466 90.7717 784.615 98.9285C784.988 99.5127 785.362 100.104 785.722 100.701C790.147 107.921 793.951 115.503 797.092 123.367C797.208 123.659 797.323 123.931 797.425 124.216C800.325 131.579 802.663 139.152 804.421 146.868C804.502 147.262 804.598 147.649 804.679 148.043C806.323 155.511 807.44 163.084 808.021 170.709C808.021 170.98 808.021 171.259 808.075 171.544C808.36 175.488 808.505 179.473 808.51 183.498C808.51 187.098 808.388 190.671 808.163 194.216C808.163 194.604 808.109 195.004 808.075 195.405C808.014 196.431 807.926 197.443 807.837 198.475C813.025 202.66 817.88 207.24 822.359 212.175C824.338 214.335 826.253 216.576 828.105 218.899C833.747 225.969 838.704 233.559 842.912 241.565C854.398 263.246 861 288.75 861 316.048Z" fill="#F50000"/>
<path opacity="0.1" d="M784.248 479.353C784.248 483.992 768.266 488.34 740.377 492.075H212.867C189.397 492.125 166.332 485.959 146.018 474.205L145.706 474.028C153.72 471.108 168.188 468.384 187.878 465.925L188.761 465.817C197.591 464.737 207.46 463.711 218.246 462.74C218.518 462.74 218.797 462.699 219.068 462.665C227.626 461.904 236.73 461.191 246.38 460.525C246.685 460.525 246.984 460.471 247.29 460.457C251.012 460.19 254.811 459.937 258.687 459.697L260.182 459.602C288.403 457.849 320.483 456.45 355.272 455.526H355.313C360.186 455.39 365.11 455.27 370.086 455.166C375.62 455.035 381.221 454.92 386.89 454.82C391.217 454.725 395.598 454.657 399.992 454.589H400.094C419.921 454.29 440.406 454.141 461.353 454.141C513.151 454.141 562.109 455.085 605.491 456.783H605.613C612.283 457.041 618.831 457.326 625.215 457.618L630.649 457.876C637.853 458.221 644.872 458.59 651.705 458.984C732.057 463.555 784.248 470.979 784.248 479.353Z" fill="#F50000"/>
<g opacity="0.2">
<path opacity="0.2" d="M523.06 451.023C523.039 451.756 522.955 452.485 522.809 453.203C518.082 452.452 513.327 451.773 508.545 451.166C508.545 450.976 508.545 450.779 508.545 450.582C508.59 448.545 509.176 446.557 510.244 444.822C511.643 442.608 513.769 441.222 516.112 441.297C518.455 441.371 520.486 442.886 521.743 445.175C522.693 446.973 523.148 448.991 523.06 451.023V451.023Z" fill="#3F3D56"/>
<path opacity="0.2" d="M523.451 439.416C523.617 434.164 520.499 429.803 516.487 429.676C512.475 429.549 509.089 433.704 508.923 438.957C508.757 444.21 511.874 448.571 515.886 448.698C519.898 448.825 523.285 444.669 523.451 439.416Z" fill="#3F3D56"/>
<path opacity="0.2" d="M523.821 427.788C523.987 422.535 520.87 418.174 516.858 418.047C512.846 417.92 509.459 422.076 509.293 427.329C509.127 432.582 512.245 436.943 516.257 437.069C520.268 437.196 523.655 433.041 523.821 427.788Z" fill="#3F3D56"/>
<path opacity="0.2" d="M524.185 416.159C524.351 410.906 521.233 406.545 517.221 406.419C513.21 406.292 509.823 410.447 509.657 415.7C509.491 420.953 512.609 425.314 516.62 425.441C520.632 425.568 524.019 421.412 524.185 416.159Z" fill="#3F3D56"/>
<path opacity="0.2" d="M524.549 404.531C524.715 399.278 521.597 394.917 517.585 394.79C513.573 394.663 510.187 398.819 510.021 404.072C509.855 409.324 512.972 413.686 516.984 413.812C520.996 413.939 524.383 409.784 524.549 404.531Z" fill="#3F3D56"/>
<path opacity="0.2" d="M492.563 323.846C491.607 322.551 490.744 321.189 489.982 319.77L509.177 317.237L488.515 316.741C486.671 312.368 485.739 307.664 485.775 302.918C485.811 298.171 486.815 293.482 488.726 289.138L515.976 304.386L491.015 284.797C493.533 280.725 496.864 277.215 500.799 274.487C504.735 271.76 509.19 269.873 513.888 268.944C518.585 268.016 523.423 268.066 528.101 269.092C532.778 270.118 537.193 272.097 541.071 274.905C544.949 277.714 548.206 281.292 550.639 285.417C553.072 289.541 554.629 294.122 555.212 298.875C555.794 303.628 555.391 308.449 554.026 313.039C552.662 317.629 550.366 321.888 547.281 325.551C548.769 327.565 550.033 329.735 551.051 332.024L525.859 344.114L552.573 336.078C554.255 341.629 554.526 347.512 553.361 353.194C552.197 358.877 549.633 364.178 545.903 368.62C549.781 373.882 552.1 380.13 552.595 386.648C553.09 393.166 551.741 399.692 548.701 405.479C545.662 411.267 541.055 416.082 535.408 419.375C529.761 422.667 523.301 424.304 516.767 424.098C510.233 423.892 503.889 421.852 498.461 418.21C493.032 414.568 488.738 409.472 486.069 403.505C483.4 397.537 482.465 390.939 483.369 384.465C484.274 377.991 486.982 371.902 491.185 366.895C486.551 360.606 484.166 352.943 484.412 345.135C484.658 337.328 487.522 329.83 492.543 323.846H492.563Z" fill="#F50000"/>
<path opacity="0.1" d="M554.053 347.333C553.815 355.145 550.943 362.647 545.903 368.62C549.781 373.882 552.1 380.13 552.595 386.648C553.09 393.166 551.741 399.692 548.701 405.479C545.662 411.267 541.055 416.082 535.408 419.375C529.761 422.667 523.301 424.304 516.767 424.098C510.233 423.892 503.889 421.852 498.461 418.21C493.032 414.568 488.738 409.472 486.069 403.505C483.4 397.537 482.465 390.939 483.369 384.465C484.274 377.991 486.982 371.902 491.185 366.895C486.722 360.829 554.175 343.428 554.053 347.333Z" fill="black"/>
</g>
<g opacity="0.2">
<path opacity="0.2" d="M419.819 451.023C419.797 451.756 419.713 452.485 419.568 453.203C414.84 452.452 410.086 451.773 405.304 451.166C405.304 450.976 405.304 450.779 405.304 450.582C405.348 448.545 405.934 446.557 407.002 444.822C408.401 442.608 410.527 441.222 412.87 441.297C415.214 441.371 417.245 442.886 418.501 445.175C419.452 446.973 419.906 448.991 419.819 451.023V451.023Z" fill="#3F3D56"/>
<path opacity="0.2" d="M420.202 439.419C420.368 434.166 417.25 429.805 413.238 429.679C409.226 429.552 405.839 433.707 405.673 438.96C405.507 444.213 408.625 448.574 412.637 448.701C416.649 448.828 420.036 444.672 420.202 439.419Z" fill="#3F3D56"/>
<path opacity="0.2" d="M420.572 427.791C420.738 422.538 417.62 418.177 413.609 418.05C409.597 417.923 406.21 422.079 406.044 427.332C405.878 432.584 408.996 436.945 413.008 437.072C417.019 437.199 420.406 433.044 420.572 427.791Z" fill="#3F3D56"/>
<path opacity="0.2" d="M420.936 416.162C421.102 410.909 417.984 406.548 413.972 406.421C409.961 406.295 406.574 410.45 406.408 415.703C406.242 420.956 409.36 425.317 413.371 425.444C417.383 425.571 420.77 421.415 420.936 416.162Z" fill="#3F3D56"/>
<path opacity="0.2" d="M421.3 404.534C421.466 399.281 418.348 394.92 414.336 394.793C410.324 394.666 406.938 398.822 406.772 404.074C406.606 409.327 409.723 413.688 413.735 413.815C417.747 413.942 421.134 409.786 421.3 404.534Z" fill="#3F3D56"/>
<path opacity="0.2" d="M389.322 323.846C388.365 322.551 387.503 321.189 386.741 319.77L405.936 317.237L385.274 316.741C383.43 312.368 382.497 307.664 382.534 302.918C382.57 298.171 383.574 293.482 385.484 289.138L412.735 304.386L387.773 284.797C390.291 280.725 393.622 277.215 397.558 274.487C401.493 271.76 405.949 269.873 410.646 268.944C415.343 268.016 420.182 268.066 424.859 269.092C429.536 270.118 433.952 272.097 437.83 274.905C441.708 277.714 444.965 281.292 447.398 285.417C449.831 289.541 451.387 294.122 451.97 298.875C452.553 303.628 452.149 308.449 450.785 313.039C449.42 317.629 447.124 321.888 444.04 325.551C445.528 327.565 446.792 329.735 447.81 332.024L422.617 344.114L449.331 336.078C451.013 341.629 451.284 347.512 450.12 353.194C448.955 358.877 446.391 364.178 442.661 368.62C446.539 373.882 448.859 380.13 449.354 386.648C449.849 393.166 448.499 399.692 445.46 405.479C442.421 411.267 437.814 416.082 432.167 419.375C426.519 422.667 420.059 424.304 413.526 424.098C406.992 423.892 400.648 421.852 395.219 418.21C389.791 414.568 385.496 409.472 382.828 403.505C380.159 397.537 379.223 390.939 380.128 384.465C381.033 377.991 383.741 371.902 387.943 366.895C383.309 360.606 380.924 352.943 381.171 345.135C381.417 337.328 384.281 329.83 389.301 323.846H389.322Z" fill="#F50000"/>
<path opacity="0.1" d="M450.812 347.333C450.574 355.145 447.701 362.647 442.661 368.62C446.539 373.882 448.859 380.13 449.354 386.648C449.849 393.166 448.499 399.692 445.46 405.479C442.421 411.267 437.814 416.082 432.167 419.375C426.519 422.667 420.059 424.304 413.526 424.098C406.992 423.892 400.648 421.852 395.219 418.21C389.791 414.568 385.496 409.472 382.828 403.505C380.159 397.537 379.223 390.939 380.128 384.465C381.033 377.991 383.741 371.902 387.943 366.895C383.481 360.829 450.934 343.428 450.812 347.333Z" fill="black"/>
</g>
<g opacity="0.2">
<path opacity="0.2" d="M701.831 458.454C701.78 459.842 701.614 461.223 701.336 462.583C692.234 461.13 683.067 459.83 673.834 458.685C673.834 458.318 673.834 457.944 673.834 457.564C673.92 453.642 675.05 449.813 677.108 446.472C679.825 442.214 683.9 439.544 688.403 439.68C692.906 439.816 696.825 442.743 699.271 447.152C701.115 450.624 701.999 454.526 701.831 458.454V458.454Z" fill="#3F3D56"/>
<path opacity="0.2" d="M702.57 436.091C702.89 425.976 696.885 417.577 689.158 417.333C681.43 417.089 674.907 425.091 674.587 435.207C674.267 445.323 680.272 453.721 688 453.966C695.727 454.21 702.251 446.207 702.57 436.091Z" fill="#3F3D56"/>
<path opacity="0.2" d="M703.276 413.704C703.596 403.588 697.591 395.19 689.863 394.946C682.136 394.701 675.613 402.704 675.293 412.82C674.973 422.935 680.978 431.334 688.706 431.578C696.433 431.822 702.957 423.82 703.276 413.704Z" fill="#3F3D56"/>
<path opacity="0.2" d="M703.989 391.317C704.309 381.201 698.304 372.803 690.576 372.558C682.849 372.314 676.325 380.317 676.006 390.432C675.686 400.548 681.691 408.947 689.419 409.191C697.146 409.435 703.669 401.433 703.989 391.317Z" fill="#3F3D56"/>
<path opacity="0.2" d="M703.899 367.911C704.202 357.79 698.181 349.397 690.45 349.165C682.718 348.933 676.205 356.95 675.901 367.071C675.598 377.191 681.619 385.584 689.35 385.816C697.081 386.048 703.595 378.031 703.899 367.911Z" fill="#3F3D56"/>
<path opacity="0.2" d="M643.113 213.622C641.28 211.128 639.621 208.512 638.148 205.79L675.097 200.914L635.329 199.956C631.777 191.537 629.979 182.482 630.047 173.344C630.115 164.207 632.046 155.179 635.723 146.814L688.193 176.163L640.145 138.452C645.003 130.63 651.42 123.893 658.996 118.66C666.572 113.427 675.145 109.81 684.18 108.035C693.215 106.26 702.519 106.366 711.512 108.344C720.505 110.323 728.994 114.132 736.45 119.535C743.906 124.938 750.169 131.819 754.849 139.748C759.53 147.678 762.527 156.487 763.653 165.625C764.78 174.764 764.012 184.037 761.399 192.866C758.785 201.695 754.38 209.891 748.46 216.943C751.321 220.825 753.756 225.003 755.721 229.407L707.218 252.697L758.641 237.211C761.882 247.885 762.41 259.198 760.177 270.127C757.943 281.056 753.02 291.255 745.852 299.801C753.317 309.932 757.78 321.959 758.732 334.507C759.684 347.054 757.086 359.617 751.234 370.758C745.383 381.898 736.514 391.168 725.643 397.506C714.772 403.844 702.336 406.994 689.759 406.598C677.181 406.201 664.969 402.273 654.518 395.263C644.068 388.253 635.801 378.443 630.663 366.956C625.525 355.469 623.723 342.768 625.463 330.305C627.204 317.842 632.416 306.12 640.505 296.48C631.589 284.374 627 269.623 627.473 254.596C627.946 239.569 633.454 225.136 643.113 213.615V213.622Z" fill="#F50000"/>
<path opacity="0.1" d="M761.501 258.831C761.055 273.861 755.551 288.301 745.879 299.815C753.344 309.945 757.808 321.972 758.759 334.52C759.711 347.068 757.113 359.63 751.262 370.771C745.41 381.912 736.542 391.181 725.67 397.519C714.799 403.857 702.364 407.008 689.786 406.611C677.208 406.215 664.996 402.287 654.545 395.277C644.095 388.267 635.828 378.457 630.69 366.97C625.552 355.483 623.75 342.781 625.491 330.318C627.231 317.855 632.443 306.134 640.532 296.494C631.878 284.804 761.739 251.312 761.501 258.831Z" fill="black"/>
</g>
<path d="M168.195 459.649L175.32 459.629H185.365L198.067 253.295L323.852 43.3954L318.384 37.527V22.6656L182.35 248.432L168.195 459.649Z" fill="#F1C0C0"/>
<path opacity="0.1" d="M176.08 459.629H185.365L198.067 253.295L323.852 43.3954L318.384 37.527L188.639 250.15L176.08 459.629Z" fill="black"/>
<path d="M147.2 461.368L473.124 486.309L473.403 486.329L788.826 466.93L789.064 466.917V453.597L441.506 447.219L151.54 446.941H149.421L149.19 448.435L147.2 461.368Z" fill="#F1C0C0"/>
<path opacity="0.1" d="M147.2 461.368L473.124 486.309L473.403 486.329L788.826 466.93L789.064 466.672V453.876H788.785L473.124 464.417L151.54 446.941H151.493L150.922 447.315L149.19 448.435L147.2 461.368Z" fill="black"/>
<path opacity="0.1" d="M147.2 461.368L473.124 486.309V464.417L150.922 447.315L149.19 448.435L147.2 461.368Z" fill="black"/>
<path d="M318.343 37.2485L462.032 191.472L457.59 462.753L469.796 464.227L470 464.254H482.205L483.666 203.121L752.725 292.996L757.263 453.02L767.084 454.12L770.412 454.494L762.71 281.897L481.445 183.152L327.221 22.8218H318.343V37.2485Z" fill="#F1C0C0"/>
<path opacity="0.1" d="M482.559 198.129L483.666 203.121L752.725 292.996L757.263 453.02L767.084 454.12L759.382 289.667L482.559 198.129Z" fill="black"/>
<path opacity="0.1" d="M318.343 37.2485L462.032 191.472L457.59 462.753L469.796 464.227L473.124 182.595L318.343 22.8218V37.2485Z" fill="black"/>
<path d="M483.081 307.001L581.766 326.434L581.799 326.44L754.641 360.49L762.554 357.318L762.527 356.761L762.01 345.723L483.183 289.382L483.081 307.001Z" fill="#F1C0C0"/>
<path opacity="0.1" d="M581.799 326.44L754.641 360.49L762.554 357.318L762.527 356.761L581.799 326.44Z" fill="black"/>
<path d="M588.408 238.108L591.078 385.05L592.456 460.437L604.608 460.03L612.256 459.771L609.878 240.234L604.608 238.481L603.453 238.108H588.408Z" fill="#F1C0C0"/>
<path opacity="0.1" d="M588.517 238.074V238.108L591.078 385.05L592.456 460.437L604.608 460.029V238.074H588.517Z" fill="black"/>
<path d="M398.07 275.635C398.783 276.022 399.464 276.465 400.108 276.959C400.869 277.625 401.552 278.375 402.145 279.194C405.059 282.963 407.749 287.344 407.464 292.099C407.47 292.791 407.339 293.477 407.079 294.118C406.819 294.759 406.435 295.343 405.949 295.835C404.747 296.86 403.022 296.908 401.446 296.908C399.734 296.908 397.934 296.908 396.454 296.025C394.973 295.142 393.737 293.423 391.984 293.464C391.737 293.505 391.485 293.505 391.237 293.464C390.633 293.267 390.51 292.473 390.117 291.97C389.437 291.067 388.004 291.291 386.938 291.685C385.871 292.079 384.69 292.67 383.637 292.214C383.026 291.892 382.526 291.392 382.204 290.781C379.684 286.706 379.147 281.809 378.672 277.075C378.38 274.195 376.152 264.373 382.299 266.608C385.016 267.586 387.556 269.542 390.028 270.975L398.07 275.635Z" fill="#3F3D56"/>
<path d="M391.998 276.606C392.547 277.001 393.212 277.201 393.888 277.174C394.564 277.147 395.211 276.894 395.727 276.456C396.738 275.543 397.383 274.292 397.54 272.938C398.22 272.728 398.566 273.617 399.001 274.161C399.762 275.084 401.31 275.071 402.003 276.056C402.485 276.735 402.377 277.679 402.716 278.447C403.158 279.438 404.251 279.954 404.998 280.756C405.704 281.632 406.213 282.648 406.493 283.738L407.607 287.08C408.14 288.469 408.482 289.925 408.625 291.406C408.696 292.147 408.618 292.894 408.396 293.604C408.175 294.314 407.814 294.973 407.335 295.543C405.841 297.152 403.389 297.322 401.222 297.275C400.498 297.29 399.776 297.205 399.075 297.023C397.153 296.426 395.924 294.49 395.415 292.54C394.905 290.591 394.959 288.547 394.661 286.55C394.338 284.588 393.767 282.676 392.963 280.858C392.365 279.445 390.721 277.339 390.748 275.838C391.237 275.838 391.59 276.287 391.998 276.606Z" fill="#3F3D56"/>
<path d="M394.436 269.725C394.119 268.761 393.934 267.758 393.886 266.744C393.886 264.706 394.817 262.791 395.754 260.97L387.991 262.023C387.053 262.152 386.007 262.342 385.477 263.123C385.276 263.51 385.171 263.94 385.171 264.377C385.171 264.813 385.276 265.243 385.477 265.63C385.867 266.405 386.176 267.217 386.401 268.055C386.419 268.787 386.503 269.517 386.653 270.235C386.894 270.762 387.233 271.239 387.651 271.641C389.872 274.1 391.536 277 393.193 279.873C393.146 279.791 397.873 276.13 397.683 274.935C397.574 274.256 396.209 273.441 395.774 272.789C395.174 271.842 394.723 270.809 394.436 269.725V269.725Z" fill="#BE6F72"/>
<path d="M461 243.188V249.879L346.436 272.225L340.493 275.825H319.987V272.055L432.547 244.859L461 243.188Z" fill="#F1C0C0"/>
<path opacity="0.1" d="M461 249.879L346.436 272.225L340.493 275.825H319.987L433.383 251.556L461 249.879Z" fill="black"/>
<path d="M369.02 433.112C367.743 431.566 365.981 430.498 364.02 430.081C362.06 429.664 360.015 429.923 358.22 430.816C357.836 430.997 357.497 431.262 357.229 431.591C356.549 432.541 356.984 433.852 357.045 435.027C357.201 437.894 354.919 440.223 352.868 442.227C351.768 443.3 350.647 444.448 350.151 445.909C349.655 447.369 350.022 449.223 351.353 449.984C351.934 450.275 352.566 450.45 353.214 450.5C355.386 450.924 357.612 450.986 359.803 450.683C361.97 450.269 364.096 449.04 365.033 447.043C365.214 446.501 365.513 446.007 365.909 445.596C367.105 444.652 368.938 445.759 370.297 445.087C371.418 444.53 371.465 443.654 371.479 442.499C371.519 439.307 371.044 435.693 369.02 433.112Z" fill="#F50000"/>
<path d="M385.321 432.99C386.157 435.19 386.272 437.588 386.381 439.938C386.442 441.297 386.483 442.75 385.749 443.898C385.016 445.046 383.582 445.65 382.21 445.936C379.378 446.52 376.097 445.97 374.27 443.721C372.871 442.003 372.579 439.646 372.837 437.418C373.054 435.591 373.516 433.452 372.205 432.154C371.866 431.808 371.424 431.563 371.112 431.19C370.433 430.361 370.541 429.111 370.908 428.093C371.386 427.118 371.744 426.09 371.975 425.029C372.029 424.527 381.171 425.383 382.013 425.797C383.161 426.361 382.985 427.305 383.331 428.446C383.813 430.035 384.737 431.468 385.321 432.99Z" fill="#F50000"/>
<path d="M386.999 335.413C388.792 336.574 389.485 338.857 389.763 340.976C390.531 346.783 389.186 352.652 389.084 358.513C388.989 366.725 391.366 375.086 389.335 383.04C388.12 387.794 389.152 393.228 388.011 398.03C387.671 399.457 387.046 400.802 386.72 402.228C386.041 405.318 386.754 408.551 387.712 411.574C388.018 412.389 388.212 413.241 388.289 414.108C388.243 415.442 387.905 416.749 387.298 417.938L383.222 427.576C382.767 428.656 380.974 428.833 379.826 428.976C377.666 429.234 375.255 429.417 373.537 428.079C371.818 426.741 371.404 424.5 371.139 422.408C370.631 418.391 370.404 414.345 370.46 410.297C370.535 409.241 370.441 408.179 370.181 407.152C369.808 405.991 368.986 404.986 368.762 403.756C368.477 402.167 369.285 400.605 369.584 399.002C369.789 397.538 369.766 396.051 369.516 394.593C369.251 392.42 368.945 390.246 368.599 388.087C368.11 385.064 368.809 382.082 369.278 379.053C369.719 376.207 369.156 373.307 368.599 370.481C368.647 372.774 368.361 375.062 367.75 377.273C367.39 378.353 366.874 379.386 366.561 380.486C365.169 385.424 368.137 390.606 367.716 395.721C367.519 398.112 366.582 400.476 366.846 402.832C367.03 404.558 367.831 406.14 368.381 407.784C368.932 409.428 369.217 411.309 368.381 412.844C366.174 417.015 367.824 422.686 369.801 426.965C370.202 427.724 370.552 428.509 370.847 429.315C371.431 431.244 370.942 433.316 371.098 435.326C370.529 435.419 369.947 435.382 369.395 435.216C368.843 435.05 368.336 434.76 367.913 434.369C367.614 434.056 367.369 433.689 367.077 433.363C366.261 432.586 365.295 431.982 364.238 431.591C363.618 431.243 362.911 431.081 362.201 431.122C361.454 431.331 360.783 431.748 360.265 432.324C359.593 432.915 358.88 433.457 358.132 433.948C357.813 434.192 357.441 434.358 357.045 434.43C356.846 434.461 356.643 434.428 356.464 434.336C356.284 434.245 356.139 434.099 356.047 433.92C356.004 433.807 355.979 433.688 355.972 433.567C355.72 431.516 355.586 429.453 355.571 427.386C355.571 423.834 351.319 421.389 350.783 417.877C350.355 415.045 351.15 412.158 350.885 409.305C350.756 407.838 350.348 406.398 350.375 404.931C350.375 403.98 350.593 403.05 350.667 402.106C350.73 401.058 350.714 400.007 350.62 398.961L350.409 395.68C350.205 392.44 349.981 389.133 348.704 386.171C347.19 382.713 346.294 379.017 346.055 375.249C345.92 372.872 346.008 370.495 345.736 368.111C345.492 365.957 344.948 363.818 345.105 361.658C345.234 359.987 345.784 358.371 345.913 356.7C346.178 353.487 344.955 350.363 343.997 347.286C343.04 344.209 342.333 340.799 343.59 337.831C343.769 337.344 344.068 336.909 344.459 336.568C344.941 336.249 345.489 336.044 346.062 335.97C357.716 333.522 369.661 332.76 381.531 333.708C383.466 333.818 385.344 334.403 386.999 335.413Z" fill="#3F3D56"/>
<path d="M348.439 263.273C354.449 263.273 359.321 258.401 359.321 252.392C359.321 246.382 354.449 241.511 348.439 241.511C342.43 241.511 337.558 246.382 337.558 252.392C337.558 258.401 342.43 263.273 348.439 263.273Z" fill="#BE6F72"/>
<path d="M346.334 265.983C346.49 266.605 346.49 267.256 346.334 267.878C346.163 268.313 345.922 268.716 345.621 269.073C344.567 270.432 343.402 271.7 342.136 272.863C342.781 274.303 343.942 275.45 345.39 276.076C346.828 276.688 348.336 277.119 349.879 277.36C350.65 277.562 351.452 277.618 352.243 277.523C352.972 277.34 353.662 277.027 354.281 276.599L360.326 272.979C361.238 272.485 362.083 271.875 362.839 271.165C363.948 270.026 364.575 268.503 364.591 266.913C364.619 266.629 364.542 266.343 364.374 266.112C364.142 265.91 363.852 265.789 363.545 265.766C361.419 265.297 359.742 263.572 358.791 261.616C357.931 259.61 357.375 257.488 357.14 255.319L350.695 258.715C349.737 259.225 348.786 259.734 347.794 260.176C347.163 260.461 345.886 260.699 345.437 261.276C344.582 262.342 346.11 264.699 346.334 265.983Z" fill="#BE6F72"/>
<path d="M342.177 270.887C341.259 271.639 340.543 272.608 340.092 273.706C339.671 275.064 340.092 276.497 340.472 277.842C342.255 283.574 343.617 289.429 344.548 295.359C345.118 299.435 345.329 303.571 345.607 307.694C346.178 316.103 347.006 329.51 348.114 337.865C352.189 338.048 356.162 336.86 360.204 336.425C367.757 335.623 375.534 337.457 382.93 335.746C381.137 328.661 379.344 316.564 377.551 309.487C376.757 306.698 376.208 303.846 375.907 300.963C375.751 298.891 375.846 296.813 375.873 294.728C375.934 290.652 375.71 286.577 375.486 282.502C375.228 277.747 374.97 272.992 373.842 268.34C373.764 267.747 373.486 267.198 373.055 266.784C372.375 266.289 371.492 266.465 370.684 266.574C368.209 266.888 365.704 266.294 363.634 264.903C362.737 264.292 361.535 263.544 360.699 264.224C360.343 264.633 360.108 265.134 360.02 265.67C359.651 266.631 359.08 267.502 358.347 268.225C357.614 268.948 356.734 269.506 355.768 269.861C353.833 270.562 351.806 270.979 349.75 271.097C349.121 271.232 348.466 271.159 347.883 270.887C346.918 270.296 346.85 268.17 345.634 268.027C344.568 267.905 342.897 270.201 342.177 270.887Z" fill="#3F3D56"/>
<path d="M358.247 287.473C355.741 285.076 354.641 281.598 352.814 278.644C351.57 276.657 349.98 274.909 348.12 273.482C347.185 272.864 346.328 272.137 345.566 271.315C344.921 270.52 344.432 269.461 343.454 269.155C343.05 269.067 342.63 269.078 342.232 269.189C341.833 269.299 341.467 269.504 341.165 269.787C340.566 270.357 339.999 270.96 339.467 271.593C336.587 274.575 331.527 274.989 329.245 278.44C328.629 279.171 328.211 280.048 328.029 280.987C327.372 286.009 328.67 291.091 331.656 295.183C332.234 296.131 333.122 296.851 334.169 297.22C334.027 298.487 334.195 299.769 334.658 300.956C335.916 305.255 337.461 309.464 339.284 313.556C338.848 315.156 338.543 316.789 338.373 318.439C337.898 322.589 338.34 326.8 337.891 330.957C337.524 334.353 336.533 337.661 336.499 341.064C336.499 341.607 336.546 342.253 337.015 342.531C337.264 342.659 337.544 342.718 337.823 342.701L346.178 342.952C351.027 343.095 355.925 343.238 360.699 342.341C361.335 342.247 361.952 342.052 362.527 341.764C364.143 340.86 364.68 338.823 364.938 337.009C365.275 334.657 365.409 332.28 365.339 329.904C366.351 333.104 367.553 336.411 370.609 337.797C372.226 338.531 374.073 338.476 375.846 338.429C379.667 338.258 383.475 337.866 387.25 337.254C387.483 337.282 387.719 337.256 387.94 337.178C388.161 337.099 388.36 336.969 388.522 336.8C388.683 336.63 388.803 336.425 388.871 336.2C388.94 335.976 388.954 335.739 388.914 335.508L388.955 331.799C389.037 324.267 387.169 317.067 386.442 309.569C386.211 307.205 386.231 304.814 385.654 302.498C385.416 301.527 385.07 300.576 384.859 299.598C384.678 298.64 384.565 297.671 384.52 296.697L383.99 289.226C383.739 285.769 383.379 282.434 383.114 278.983C382.968 275.623 382.481 272.287 381.66 269.026C381.069 266.988 379.84 264.679 377.714 264.427C376.58 264.298 375.479 264.794 374.399 265.141C371.745 265.976 368.896 265.964 366.249 265.107C365.431 264.784 364.578 264.556 363.708 264.427C363.27 264.368 362.825 264.426 362.416 264.595C362.008 264.765 361.652 265.04 361.385 265.392C361.122 265.923 360.998 266.512 361.025 267.104C360.706 273.889 360.115 280.878 358.247 287.473Z" fill="#F50000"/>
<path d="M347.319 287.677C344.188 284.376 340.975 281.014 336.94 278.915C335.351 278.087 333.544 277.462 331.785 277.774C330.026 278.087 328.389 279.615 328.47 281.401C328.525 282.508 329.197 283.486 329.408 284.573C329.652 285.796 329.299 287.1 329.679 288.282C329.988 289.061 330.45 289.77 331.038 290.367L335.847 296.066C337.884 298.443 339.922 300.854 342.544 302.498C345.166 304.142 348.562 304.909 351.442 303.741C353.491 302.788 355.194 301.225 356.318 299.265C357.514 297.363 358.356 295.284 359.477 293.322C361.221 290.185 363.523 287.393 366.269 285.083C364.856 284.716 363.084 284.2 362.194 283.045C361.94 282.678 361.724 282.287 361.548 281.877L360.448 279.499C360.074 279.48 359.7 279.538 359.349 279.67C358.998 279.802 358.679 280.005 358.41 280.267C357.939 280.812 357.433 281.327 356.896 281.809C355.938 282.529 354.641 282.726 353.771 283.548C353.435 283.9 353.13 284.282 352.861 284.689C352.204 285.553 351.369 286.267 350.413 286.782C349.457 287.298 348.402 287.603 347.319 287.677V287.677Z" fill="#3F3D56"/>
<path d="M366.52 273.475C368.877 269.175 368.769 264.02 369.441 259.164C369.514 257.877 369.965 256.642 370.738 255.611C372.097 254.076 374.494 254.056 376.546 254.253C377.15 254.321 377.904 254.606 377.87 255.21C377.822 255.427 377.717 255.627 377.564 255.788C375.576 258.354 374.407 261.459 374.209 264.699C375.276 265.44 376.926 263.918 377.952 264.699C378.631 265.27 378.318 266.397 377.911 267.212C376.965 269.101 375.989 270.975 374.983 272.836C374.181 274.477 373.134 275.986 371.879 277.312C371.017 278.141 370.005 278.793 369.129 279.608C367.091 281.517 365.861 284.213 363.756 286.074C363.578 286.267 363.337 286.39 363.077 286.421C362.809 286.402 362.556 286.289 362.364 286.101C361.312 285.246 360.439 284.191 359.796 282.997C358.995 281.517 359.117 281.082 360.38 280.036C362.744 278.168 365.046 276.164 366.52 273.475Z" fill="#BE6F72"/>
<path d="M343.379 284.757C343.787 285.008 344.29 285.293 344.738 285.083C344.921 284.972 345.077 284.821 345.193 284.641C345.969 283.605 346.617 282.478 347.122 281.286C347.209 281.117 347.257 280.932 347.264 280.742C347.264 280.308 346.877 279.988 346.517 279.737C344.588 278.508 342.515 277.522 340.343 276.803C338.55 276.124 336.675 275.533 334.774 275.703C334.059 275.751 333.362 275.943 332.723 276.267C332.085 276.592 331.518 277.042 331.058 277.591C329.7 279.336 331.975 279.866 333.402 280.498C336.703 281.999 340.275 282.868 343.379 284.757Z" fill="#F50000"/>
<path opacity="0.1" d="M341.24 296.303C341.217 296.458 341.231 296.617 341.28 296.765C341.33 296.914 341.414 297.049 341.525 297.159C341.722 296.195 341.464 295.176 341.668 294.205C341.967 292.744 343.386 291.644 343.508 290.177C340.907 289.667 341.26 294.728 341.24 296.303Z" fill="black"/>
<path opacity="0.2" d="M461 243.188V249.879L433.383 251.556L432.547 244.859L461 243.188Z" fill="black"/>
<path d="M338.645 254.008C340.37 252.602 339.372 249.654 340.54 247.766C341.219 246.734 342.367 246.19 343.495 245.729C344.856 245.092 346.313 244.688 347.808 244.533C348.556 244.461 349.311 244.559 350.017 244.819C350.722 245.079 351.36 245.494 351.883 246.034C352.325 246.537 352.624 247.148 353.038 247.671C353.551 248.281 354.22 248.741 354.973 249.002C355.727 249.263 356.536 249.314 357.317 249.152C358.22 248.948 359.158 248.262 359.096 247.338C358.994 246.776 358.708 246.265 358.281 245.885L356.339 243.732C354.131 241.286 351.679 238.692 348.44 238.081C346.185 237.653 343.875 238.257 341.702 238.984C340.825 239.276 339.841 239.711 339.596 240.6C339.433 241.212 339.678 241.877 339.535 242.495C339.256 243.725 337.681 244.139 336.947 245.172C336.214 246.204 336.438 247.427 336.227 248.568C336.017 249.709 335.405 250.823 335.331 252.005C335.283 252.718 335.643 254.042 336.444 254.3C337.246 254.558 338.149 253.159 338.645 254.008Z" fill="#3F3D56"/>
<path d="M358.438 246.36C357.865 243.372 356.63 240.55 354.824 238.101C353.218 235.813 350.984 234.039 348.392 232.993C347.096 232.487 345.703 232.281 344.316 232.39C342.929 232.499 341.584 232.922 340.384 233.625C338.602 234.897 337.215 236.646 336.383 238.671C334.624 242.461 333.972 247.094 336.017 250.734C336.832 249.743 338.231 250.191 339.467 249.831C341.016 249.39 342.327 248.357 343.801 247.712C348.249 245.749 353.683 247.338 358.438 246.36Z" fill="#FED253"/>
<path opacity="0.1" d="M337.056 246.15C336.9 244.927 336.798 243.507 337.667 242.638C337.71 242.585 337.765 242.542 337.828 242.514C337.89 242.486 337.958 242.472 338.027 242.475C338.088 242.495 338.144 242.527 338.191 242.569C338.239 242.611 338.278 242.662 338.306 242.72C338.807 243.512 339.235 244.348 339.582 245.219C339.076 245.102 338.547 245.14 338.062 245.328C337.578 245.516 337.161 245.845 336.866 246.272" fill="black"/>
<path opacity="0.1" d="M352.929 242.699L352.685 240.274C352.645 240.075 352.662 239.868 352.732 239.677C352.835 239.517 352.993 239.4 353.176 239.35C353.359 239.3 353.554 239.32 353.724 239.405C354.058 239.59 354.333 239.866 354.519 240.2C355.084 241.068 355.553 241.995 355.918 242.964C354.824 242.753 353.698 242.767 352.61 243.005" fill="black"/>
<path opacity="0.1" d="M359.008 341.112V346.654L354.328 346.966H329.713V341.112H359.008Z" fill="black"/>
<path d="M359.008 341.112V346.966H329.713L251.888 249.478V244.873H268.203L359.008 341.112Z" fill="#F1C0C0"/>
<path opacity="0.1" d="M359.008 341.112V346.966H329.713L251.888 249.478V244.873H268.203L359.008 341.112Z" fill="black"/>
<path opacity="0.1" d="M359.008 341.112V346.966H329.713L251.888 249.478V244.873L330.135 341.112H359.008Z" fill="black"/>
<path d="M262.09 438.824C262.141 439.1 262.135 439.383 262.072 439.656C262.009 439.929 261.89 440.186 261.723 440.411C261.556 440.636 261.344 440.824 261.101 440.964C260.858 441.103 260.589 441.191 260.311 441.222C258.422 441.86 256.419 442.492 255.081 443.939C253.743 445.386 253.478 448.068 255.081 449.244C255.9 449.738 256.841 449.994 257.797 449.984C260.874 450.194 264.08 450.154 266.872 448.85C268.869 447.926 270.75 446.35 272.944 446.493C274.078 446.561 275.287 447.09 276.299 446.574C277.311 446.058 277.597 444.618 277.604 443.416C277.629 440.906 277.251 438.409 276.483 436.019C276.381 435.693 272.061 435.442 271.545 435.34L266.308 434.661C265.316 434.532 263.177 433.784 262.396 434.613C261.615 435.442 262.09 437.839 262.09 438.824Z" fill="#F50000"/>
<path d="M293.341 421.871C293.563 423.094 293.923 424.288 294.414 425.43C295.141 427.278 296.072 429.24 297.851 430.137C299.468 430.945 301.451 430.653 303.095 429.886C303.781 429.602 304.382 429.145 304.84 428.561C305.371 427.637 305.607 426.573 305.52 425.512C305.52 422.883 305.363 420.166 304.161 417.83C303.129 415.792 301.329 414.04 301.302 411.784L295.114 412.98C294.783 413.012 294.467 413.137 294.204 413.34C294.008 413.546 293.872 413.802 293.81 414.08C293.149 416.622 292.99 419.268 293.341 421.871V421.871Z" fill="#F50000"/>
<path d="M219.449 357.345C219.191 359.532 219.299 361.875 220.44 363.764C221.581 365.652 223.986 366.902 226.064 366.148C226.171 366.12 226.271 366.072 226.358 366.006C226.446 365.939 226.519 365.856 226.574 365.76C226.629 365.531 226.598 365.289 226.485 365.081C225.568 362.632 225.643 359.922 226.696 357.528C226.832 357.216 227.124 356.849 227.443 356.971C227.577 357.039 227.684 357.149 227.749 357.284C228.078 357.853 228.242 358.502 228.224 359.158C228.128 359.754 228.11 360.359 228.17 360.958C228.299 361.543 228.924 362.093 229.467 361.841C229.624 361.745 229.76 361.617 229.866 361.467C229.973 361.316 230.047 361.146 230.085 360.965C231.6 356.584 230.914 351.796 230.221 347.211C230.227 347.106 230.21 347 230.17 346.903C230.131 346.805 230.07 346.717 229.993 346.645C229.916 346.573 229.824 346.519 229.724 346.486C229.624 346.454 229.517 346.444 229.413 346.457C226.207 346.138 224.455 345.37 222.621 348.352C221.045 350.865 219.449 354.322 219.449 357.345Z" fill="#F50000"/>
<path d="M256.928 346.199C255.977 350.152 255.019 354.153 254.958 358.214C254.975 360.744 255.166 363.27 255.529 365.774L256.242 371.656C256.487 373.639 256.724 375.616 257.071 377.579C257.292 378.59 257.412 379.621 257.431 380.656C257.364 381.676 257.203 382.688 256.948 383.678C256.521 385.758 256.283 387.872 256.235 389.995C256.161 393.391 256.582 396.787 256.847 400.183C257.375 406.951 257.296 413.752 256.609 420.506C256.335 422.329 256.73 424.189 257.723 425.743C258.125 426.232 258.457 426.777 258.708 427.359C259.217 428.914 258.028 430.47 257.723 432.066C257.527 433.311 257.834 434.582 258.575 435.601C259.316 436.62 260.431 437.303 261.676 437.5C267.11 438.145 272.693 437.853 277.59 440.339C278.106 438.831 276.979 437.119 277.495 435.584C277.821 434.634 278.717 434.015 279.329 433.214C280.15 431.993 280.559 430.541 280.497 429.071C280.521 427.151 280.18 425.245 279.492 423.454C278.914 421.959 278.086 420.485 278.133 418.882C278.133 418.094 278.412 417.266 278.093 416.539C277.874 416.122 277.576 415.75 277.216 415.445C275.186 413.222 273.939 410.395 273.664 407.397C273.399 404.421 273.495 401.424 273.949 398.472C274.282 395.66 274.73 392.692 276.517 390.498C275.688 383.845 276.175 377.095 277.95 370.63C278.127 370.033 278.405 369.34 279.016 369.197C279.259 369.172 279.504 369.206 279.731 369.296C279.958 369.386 280.16 369.529 280.32 369.714C281.387 370.712 281.896 372.159 282.358 373.544C282.868 375.045 283.384 376.648 282.997 378.183C282.834 378.863 282.508 379.46 282.317 380.112C281.904 381.423 281.976 382.838 282.521 384.099C282.787 384.56 282.953 385.072 283.01 385.601C282.947 386.055 282.809 386.495 282.603 386.905C282.351 387.708 282.271 388.556 282.368 389.393C282.465 390.23 282.737 391.036 283.166 391.761C284.032 393.203 285.1 394.514 286.338 395.653C285.747 398.26 285.9 400.981 286.78 403.505C286.843 403.619 286.884 403.744 286.899 403.873C286.914 404.002 286.904 404.133 286.868 404.259C286.746 404.517 286.433 404.612 286.189 404.795C285.51 405.352 285.931 406.405 286.386 407.132C287.633 409.127 289.01 411.037 290.509 412.851C291.867 414.474 291.745 417.605 293.769 418.19C294.62 418.373 295.5 418.373 296.35 418.19C298.347 417.884 300.575 417.307 301.553 415.541C301.954 414.814 302.117 413.931 302.742 413.387C303.366 412.844 304.175 412.749 304.521 412.097C304.867 411.445 304.48 410.589 304.596 409.835C304.711 409.081 305.37 408.477 305.581 407.682C306.083 405.848 303.944 404.34 303.652 402.466C303.231 399.749 306.654 397.711 306.511 394.994C306.212 389.092 306.022 383.162 305.717 377.26C305.333 371.973 305.278 366.667 305.554 361.373C305.791 358.078 306.233 354.628 305.024 351.565C303.285 347.245 298.49 344.82 293.851 344.358C289.211 343.896 284.586 344.997 279.988 345.717C272.356 346.893 264.602 347.055 256.928 346.199V346.199Z" fill="#3F3D56"/>
<path d="M270.716 281.279C276.726 281.279 281.597 276.407 281.597 270.398C281.597 264.388 276.726 259.517 270.716 259.517C264.707 259.517 259.835 264.388 259.835 270.398C259.835 276.407 264.707 281.279 270.716 281.279Z" fill="#FBBEBE"/>
<path d="M266.288 283.31C265.918 284.171 265.297 284.899 264.505 285.4C263.713 285.901 262.789 286.15 261.852 286.115C261.458 287.745 262.403 289.389 263.483 290.673C265.725 293.282 268.623 295.246 271.878 296.363C275.132 297.479 278.626 297.707 281.998 297.023C283.31 296.788 284.555 296.269 285.646 295.502C287.115 294.275 288.102 292.566 288.43 290.679C288.743 288.806 288.832 286.902 288.695 285.008C288.733 284.634 288.626 284.259 288.396 283.962C288.125 283.752 287.789 283.641 287.446 283.649C285.15 283.446 282.752 283.357 280.735 282.23C278.718 281.102 277.284 278.555 278.256 276.463C278.099 276.789 274.133 276.946 273.61 277.013C271.973 277.244 270.336 277.503 268.706 277.801C267.922 277.844 267.148 277.991 266.403 278.236C265.418 278.745 265.785 278.494 266.016 279.418C266.362 280.831 266.872 281.843 266.288 283.31Z" fill="#FBBEBE"/>
<path d="M274.567 289.925C273.102 289.942 271.64 289.78 270.214 289.443C268.774 289.107 267.504 288.26 266.641 287.059C266.138 286.298 265.812 285.341 265.011 284.913C263.7 284.234 262.206 285.382 261.16 286.434C260.207 287.473 259.104 288.361 257.886 289.07C256.432 289.837 254.734 290.109 253.362 291.012C252.29 291.822 251.37 292.816 250.645 293.947L241.021 307.055C237.156 312.326 233.794 317.984 230.35 323.547C227.368 328.363 225.806 333.905 223.558 339.101C223.38 339.419 223.306 339.785 223.347 340.147C223.429 340.5 223.857 340.786 224.156 340.582C223.144 341.587 224.033 343.299 223.796 344.711C223.525 345.7 222.962 346.583 222.179 347.245C223.674 347.05 225.192 347.121 226.662 347.455C228.181 347.886 229.615 348.575 230.9 349.493C231.722 349.364 231.647 347.904 232.259 347.36C232.626 347.041 233.169 347.082 233.651 346.987C235.465 346.634 236.185 344.453 237.577 343.224C238.739 342.198 240.382 341.865 241.612 340.901C243.609 339.332 244.036 336.54 245.082 334.224C245.972 332.261 247.371 330.55 248.153 328.539C248.662 327.235 248.906 325.822 249.633 324.62C250.795 322.678 252.982 321.645 255.067 320.715C256.385 320.124 257.784 319.512 259.203 319.607C259.129 322.766 258.728 325.877 259.414 328.96C259.652 330.047 259.985 331.107 260.27 332.187C261.567 337.05 261.873 342.117 261.934 347.129C265.055 346.415 268.242 346.033 271.443 345.988C273.963 345.914 276.476 346.24 278.996 346.192C281.985 346.138 284.939 345.56 287.928 345.357C290.916 345.153 294.041 345.357 296.683 346.715C296.468 342.411 296.589 338.096 297.043 333.81L297.763 327.059C297.925 325.097 298.227 323.149 298.666 321.231C299.06 319.682 299.631 318.188 300.065 316.646C301.594 311.212 301.315 305.412 301.023 299.754C300.874 296.847 299.753 293.987 298.435 291.399C297.958 290.438 297.414 289.512 296.805 288.628C295.213 286.434 293.091 284.679 290.637 283.527C288.183 282.375 285.478 281.864 282.772 282.04C282.427 282.05 282.086 282.124 281.767 282.257C281.194 282.624 280.746 283.157 280.483 283.785C279.078 286.311 277.039 288.427 274.567 289.925Z" fill="#3F3D56"/>
<path d="M261.146 274.005C261.452 273.325 262.274 273.074 262.776 272.531C263.741 271.498 263.306 269.848 263.455 268.455C263.7 266.418 265.391 264.713 267.327 263.986C269.301 263.352 271.402 263.219 273.44 263.599C274.421 263.67 275.369 263.986 276.198 264.516C276.551 264.774 276.877 265.107 277.21 265.344C277.816 265.711 278.542 265.826 279.233 265.665C279.923 265.504 280.523 265.079 280.905 264.482C278.5 261.588 275.838 258.532 272.183 257.642C270.93 257.386 269.652 257.266 268.373 257.282C266.682 257.248 264.936 257.221 263.374 257.866C261.248 258.742 259.754 260.76 258.986 262.933C258.315 265.136 257.956 267.423 257.92 269.725C257.78 271.262 257.78 272.808 257.92 274.344C258.182 276.442 258.962 278.442 260.188 280.165C260.354 280.433 260.589 280.651 260.868 280.797C263.965 282.155 260.895 274.568 261.146 274.005Z" fill="#3F3D56"/>
<path d="M280.551 262.804C280.178 259.605 277.896 256.963 275.471 254.837C273.516 252.994 271.188 251.592 268.645 250.728C266.084 249.974 263.136 250.137 260.942 251.665C259.176 252.894 258.056 254.85 257.193 256.82C256.06 259.145 255.499 261.706 255.556 264.292C255.726 266.859 256.976 269.461 259.203 270.758C260.005 269.576 261.397 268.965 262.735 268.482C268.567 266.27 274.515 264.374 280.551 262.804V262.804Z" fill="#FED253"/>
<path opacity="0.1" d="M259.951 261.473C260.168 261.473 260.311 261.697 260.419 261.88C260.972 262.742 261.447 263.651 261.839 264.597C261.044 264.767 259.679 264.957 259.285 264.258C259.074 263.905 259.326 261.439 259.951 261.473Z" fill="black"/>
<path opacity="0.1" d="M275.43 259.938C275.267 260.094 275.077 259.775 275.077 259.544V256.909C275.072 256.835 275.089 256.762 275.124 256.698C275.153 256.666 275.187 256.64 275.225 256.621C275.264 256.602 275.306 256.591 275.349 256.589C275.899 256.528 276.354 256.997 276.707 257.445C277.243 258.172 277.709 258.947 278.099 259.761L275.226 259.673" fill="black"/>
<path d="M311.286 303.578C311.911 302.984 312.579 302.437 313.283 301.941C315.164 300.684 317.44 300.188 319.552 299.387C321.665 298.586 323.811 297.288 324.633 295.183C325.044 293.866 325.178 292.478 325.027 291.107C325.046 290.533 324.945 289.962 324.728 289.43C324.469 288.96 324.101 288.559 323.655 288.261C320.788 286.142 316.944 285.972 313.385 286.19C305.538 286.676 297.847 288.596 290.692 291.854C290.314 291.979 289.982 292.216 289.741 292.534C289.602 292.828 289.539 293.153 289.558 293.478C289.431 295.481 289.692 297.489 290.325 299.394C291.263 301.812 293.192 303.761 294 306.227C294.367 307.334 294.489 308.509 294.808 309.623C295.07 310.773 295.75 311.785 296.717 312.462C299.4 314.065 301.933 311.912 303.794 310.241L311.286 303.578Z" fill="#3F3D56"/>
<path d="M276.15 312.985L272.706 305.473C272.201 304.432 271.766 303.359 271.402 302.26C271.008 300.949 270.818 299.591 270.451 298.273C269.242 293.885 266.193 290.231 264.705 285.932C264.611 285.543 264.419 285.186 264.148 284.892C263.931 284.739 263.683 284.635 263.421 284.588C263.159 284.541 262.89 284.552 262.634 284.621C260.555 284.981 258.932 286.563 257.03 287.46C256.147 287.867 255.196 288.139 254.313 288.608C253.872 288.817 253.481 289.119 253.166 289.492C252.852 289.866 252.623 290.304 252.493 290.774C252.282 291.814 252.798 292.812 253.233 293.824C255.081 297.995 255.502 302.654 255.583 307.218C255.644 310.289 255.488 313.583 253.675 316.048C250.19 320.803 252.418 327.785 253.722 333.538C253.878 334.217 254.062 334.951 254.17 335.671C254.285 336.572 254.338 337.48 254.327 338.388C254.327 341.438 254.157 344.582 252.88 347.347C254.141 348.018 255.53 348.411 256.955 348.501C260.899 349.004 264.859 349.357 268.835 349.561C270.08 349.678 271.336 349.614 272.564 349.371C274.021 348.977 275.306 348.109 276.215 346.903C277.124 345.698 277.605 344.224 277.583 342.715C277.801 344.596 278.201 346.64 279.567 347.945C280.932 349.249 282.922 349.446 284.776 349.547C290.009 349.825 295.257 349.677 300.466 349.106C300.799 349.091 301.126 349.015 301.431 348.882C302.436 348.379 302.49 346.994 302.409 345.88C302.259 343.794 302.103 341.709 301.852 339.638C301.639 338.317 301.53 336.982 301.526 335.644C301.629 334.268 301.857 332.904 302.205 331.568C303.115 327.33 303.835 323.004 303.529 318.663C303.409 317.606 303.365 316.541 303.4 315.478C303.577 313.08 304.84 310.798 304.603 308.414C303.923 301.404 303.373 294.211 301.417 287.446C301.064 286.237 300.616 284.94 299.563 284.247C298.204 283.337 296.296 283.812 294.74 283.235C294.01 282.895 293.316 282.484 292.669 282.006C291.261 281.125 289.648 280.629 287.989 280.566C286.739 280.518 285.347 280.797 284.593 281.802C284.244 282.368 284.013 282.999 283.914 283.656C282.929 287.799 281.774 291.895 280.619 295.991L279.512 299.917L276.544 310.458C276.252 311.579 276.449 311.925 276.15 312.985Z" fill="#F50000"/>
<path d="M293.518 271.858L359.219 340.901V346.756H329.924L280.551 282.318" fill="#F1C0C0"/>
<path opacity="0.1" d="M293.518 271.858L359.219 340.901V346.756H329.924L280.551 282.318" fill="black"/>
<path opacity="0.1" d="M281.597 281.408L281.808 281.483L330.345 340.901H359.219V346.756H329.924L280.551 282.318L281.597 281.408Z" fill="black"/>
<path d="M289.157 282.862C286.78 283.901 284.138 285.232 283.424 287.732C283.284 288.17 283.253 288.637 283.336 289.09C283.51 289.623 283.841 290.091 284.286 290.431C284.731 290.772 285.269 290.97 285.829 290.999C286.947 291.026 288.06 290.822 289.096 290.401L303.122 285.769C303.502 285.646 303.937 285.463 304.032 285.089C304.056 284.854 304.009 284.618 303.896 284.41C303.462 283.351 303.034 281.184 302.123 280.444C301.376 279.846 299.896 280.056 298.992 280.07C295.515 280.097 292.248 281.503 289.157 282.862Z" fill="#F50000"/>
<path d="M301.662 286.319C304.024 286.312 306.374 286.676 308.624 287.399C310.883 288.132 312.885 289.5 314.39 291.338C314.829 291.852 315.14 292.462 315.3 293.118C315.436 293.797 317.65 294.205 317.161 294.666C318.649 294.429 318.296 295.128 319.804 295.115C321.311 295.101 322.942 294.714 323.845 293.512C324.473 292.524 324.752 291.355 324.64 290.19C324.659 289.384 324.507 288.583 324.191 287.84C323.512 286.414 321.95 285.646 320.51 284.988L308.379 279.438C307.675 279.064 306.92 278.796 306.138 278.644C305.479 278.581 304.816 278.597 304.161 278.691L298.666 279.323C299.868 280.1 300.846 281.178 301.505 282.449C302.163 283.719 302.48 285.14 302.422 286.57" fill="#3F3D56"/>
</g>
<path d="M33.1825 537.032C33.8865 536.712 34.9745 536.36 36.4465 535.976C37.9825 535.528 39.5185 535.304 41.0545 535.304C43.7425 535.304 45.9825 535.72 47.7745 536.552C49.5665 537.32 50.6545 538.472 51.0385 540.008C51.7425 542.632 52.3825 545.096 52.9585 547.4C53.5985 549.64 54.2065 551.816 54.7825 553.928C55.3585 555.976 55.9025 558.024 56.4145 560.072C56.9905 562.12 57.5345 564.264 58.0465 566.504H58.5265C59.1025 562.6 59.6145 558.888 60.0625 555.368C60.5105 551.784 60.9265 548.296 61.3105 544.904C61.6945 541.448 62.0785 538.056 62.4625 534.728C62.8465 531.336 63.2305 527.912 63.6145 524.456C65.9825 523.112 68.5105 522.44 71.1985 522.44C73.5665 522.44 75.6145 522.952 77.3425 523.976C79.0705 525 79.9345 526.728 79.9345 529.16C79.9345 530.568 79.7745 532.584 79.4545 535.208C79.1985 537.768 78.8145 540.648 78.3025 543.848C77.8545 547.048 77.3105 550.408 76.6705 553.928C76.0305 557.448 75.3585 560.808 74.6545 564.008C73.9505 567.208 73.2145 570.12 72.4465 572.744C71.7425 575.304 71.0705 577.288 70.4305 578.696C69.4705 579.592 67.9025 580.328 65.7265 580.904C63.5505 581.48 61.3105 581.768 59.0065 581.768C55.9985 581.768 53.4385 581.384 51.3265 580.616C49.2785 579.784 48.0305 578.632 47.5825 577.16C46.7505 574.6 45.8545 571.56 44.8945 568.04C43.9345 564.52 42.9105 560.648 41.8225 556.424C40.9265 560.584 39.9985 564.648 39.0385 568.616C38.0785 572.584 37.2145 575.944 36.4465 578.696C35.4865 579.592 34.0465 580.328 32.1265 580.904C30.2065 581.48 28.0945 581.768 25.7905 581.768C22.9105 581.768 20.2865 581.384 17.9185 580.616C15.6145 579.784 14.1105 578.632 13.4065 577.16C12.8305 576.008 12.1905 574.312 11.4865 572.072C10.8465 569.768 10.1745 567.176 9.4705 564.296C8.7665 561.352 8.0305 558.184 7.2625 554.792C6.5585 551.4 5.8865 548.008 5.2465 544.616C4.6705 541.224 4.1265 537.928 3.6145 534.728C3.1025 531.464 2.7185 528.488 2.4625 525.8C3.3585 524.968 4.6065 524.2 6.2065 523.496C7.8065 522.792 9.5345 522.44 11.3905 522.44C13.8225 522.44 15.8065 522.984 17.3425 524.072C18.9425 525.096 19.9345 526.856 20.3185 529.352C21.3425 535.88 22.1745 541.32 22.8145 545.672C23.5185 550.024 24.0625 553.608 24.4465 556.424C24.8945 559.176 25.2145 561.32 25.4065 562.856C25.5985 564.392 25.7905 565.608 25.9825 566.504H26.4625C27.0385 563.944 27.5825 561.576 28.0945 559.4C28.6065 557.224 29.1185 555.048 29.6305 552.872C30.2065 550.632 30.7825 548.264 31.3585 545.768C31.9345 543.208 32.5425 540.296 33.1825 537.032ZM111.664 582.536C107.888 582.536 104.368 582.024 101.104 581C97.904 579.912 95.088 578.312 92.656 576.2C90.288 574.088 88.4 571.432 86.992 568.232C85.648 565.032 84.976 561.288 84.976 557C84.976 552.776 85.648 549.16 86.992 546.152C88.4 543.08 90.224 540.584 92.464 538.664C94.704 536.68 97.264 535.24 100.144 534.344C103.024 533.384 105.968 532.904 108.976 532.904C112.368 532.904 115.44 533.416 118.192 534.44C121.008 535.464 123.408 536.872 125.392 538.664C127.44 540.456 129.008 542.6 130.096 545.096C131.248 547.592 131.824 550.312 131.824 553.256C131.824 555.432 131.216 557.096 130 558.248C128.784 559.4 127.088 560.136 124.912 560.456L101.2 564.008C101.904 566.12 103.344 567.72 105.52 568.808C107.696 569.832 110.192 570.344 113.008 570.344C115.632 570.344 118.096 570.024 120.4 569.384C122.768 568.68 124.688 567.88 126.16 566.984C127.184 567.624 128.048 568.52 128.752 569.672C129.456 570.824 129.808 572.04 129.808 573.32C129.808 576.2 128.464 578.344 125.776 579.752C123.728 580.84 121.424 581.576 118.864 581.96C116.304 582.344 113.904 582.536 111.664 582.536ZM108.976 544.808C107.44 544.808 106.096 545.064 104.944 545.576C103.856 546.088 102.96 546.76 102.256 547.592C101.552 548.36 101.008 549.256 100.624 550.28C100.304 551.24 100.112 552.232 100.048 553.256L116.464 550.568C116.272 549.288 115.568 548.008 114.352 546.728C113.136 545.448 111.344 544.808 108.976 544.808ZM178.866 570.632C179.954 570.632 181.138 570.536 182.418 570.344C183.762 570.088 184.754 569.768 185.394 569.384V561.704L178.482 562.28C176.69 562.408 175.218 562.792 174.066 563.432C172.914 564.072 172.338 565.032 172.338 566.312C172.338 567.592 172.818 568.648 173.778 569.48C174.802 570.248 176.498 570.632 178.866 570.632ZM178.098 532.904C181.554 532.904 184.69 533.256 187.506 533.96C190.386 534.664 192.818 535.752 194.802 537.224C196.85 538.632 198.418 540.456 199.506 542.696C200.594 544.872 201.138 547.464 201.138 550.472V571.976C201.138 573.64 200.658 575.016 199.698 576.104C198.802 577.128 197.714 578.024 196.434 578.792C192.274 581.288 186.418 582.536 178.866 582.536C175.474 582.536 172.402 582.216 169.65 581.576C166.962 580.936 164.626 579.976 162.642 578.696C160.722 577.416 159.218 575.784 158.13 573.8C157.106 571.816 156.594 569.512 156.594 566.888C156.594 562.472 157.906 559.08 160.53 556.712C163.154 554.344 167.218 552.872 172.722 552.296L185.298 550.952V550.28C185.298 548.424 184.466 547.112 182.802 546.344C181.202 545.512 178.866 545.096 175.794 545.096C173.362 545.096 170.994 545.352 168.69 545.864C166.386 546.376 164.306 547.016 162.45 547.784C161.618 547.208 160.914 546.344 160.338 545.192C159.762 543.976 159.474 542.728 159.474 541.448C159.474 539.784 159.858 538.472 160.626 537.512C161.458 536.488 162.706 535.624 164.37 534.92C166.226 534.216 168.402 533.704 170.898 533.384C173.458 533.064 175.858 532.904 178.098 532.904ZM227.437 580.904C226.797 581.096 225.773 581.288 224.365 581.48C223.021 581.672 221.613 581.768 220.141 581.768C218.733 581.768 217.453 581.672 216.301 581.48C215.213 581.288 214.285 580.904 213.517 580.328C212.749 579.752 212.141 578.984 211.693 578.024C211.309 577 211.117 575.688 211.117 574.088V545.288C211.117 543.816 211.373 542.568 211.885 541.544C212.461 540.456 213.261 539.496 214.285 538.664C215.309 537.832 216.557 537.096 218.029 536.456C219.565 535.752 221.197 535.144 222.925 534.632C224.653 534.12 226.445 533.736 228.301 533.48C230.157 533.16 232.013 533 233.869 533C236.941 533 239.373 533.608 241.165 534.824C242.957 535.976 243.853 537.896 243.853 540.584C243.853 541.48 243.725 542.376 243.469 543.272C243.213 544.104 242.893 544.872 242.509 545.576C241.165 545.576 239.789 545.64 238.381 545.768C236.973 545.896 235.597 546.088 234.253 546.344C232.909 546.6 231.629 546.888 230.413 547.208C229.261 547.464 228.269 547.784 227.437 548.168V580.904ZM273.477 582.536C269.701 582.536 266.181 582.024 262.917 581C259.717 579.912 256.901 578.312 254.469 576.2C252.101 574.088 250.213 571.432 248.805 568.232C247.461 565.032 246.789 561.288 246.789 557C246.789 552.776 247.461 549.16 248.805 546.152C250.213 543.08 252.037 540.584 254.277 538.664C256.517 536.68 259.077 535.24 261.957 534.344C264.837 533.384 267.781 532.904 270.789 532.904C274.181 532.904 277.253 533.416 280.005 534.44C282.821 535.464 285.221 536.872 287.205 538.664C289.253 540.456 290.821 542.6 291.909 545.096C293.061 547.592 293.637 550.312 293.637 553.256C293.637 555.432 293.029 557.096 291.812 558.248C290.597 559.4 288.901 560.136 286.725 560.456L263.013 564.008C263.717 566.12 265.157 567.72 267.333 568.808C269.509 569.832 272.005 570.344 274.821 570.344C277.445 570.344 279.909 570.024 282.213 569.384C284.581 568.68 286.501 567.88 287.973 566.984C288.997 567.624 289.861 568.52 290.565 569.672C291.269 570.824 291.621 572.04 291.621 573.32C291.621 576.2 290.277 578.344 287.589 579.752C285.541 580.84 283.237 581.576 280.677 581.96C278.117 582.344 275.717 582.536 273.477 582.536ZM270.789 544.808C269.253 544.808 267.909 545.064 266.757 545.576C265.669 546.088 264.773 546.76 264.069 547.592C263.365 548.36 262.821 549.256 262.437 550.28C262.117 551.24 261.925 552.232 261.861 553.256L278.277 550.568C278.085 549.288 277.381 548.008 276.165 546.728C274.949 545.448 273.157 544.808 270.789 544.808ZM347.303 579.56C346.407 580.328 345.191 580.936 343.655 581.384C342.119 581.896 340.295 582.152 338.183 582.152C335.559 582.152 333.287 581.768 331.367 581C329.447 580.296 328.167 579.272 327.527 577.928C326.823 576.392 325.991 573.96 325.031 570.632C324.135 567.304 323.239 563.656 322.343 559.688C321.447 555.72 320.583 551.688 319.751 547.592C318.983 543.496 318.375 539.88 317.927 536.744C318.823 535.848 320.007 535.08 321.479 534.44C323.015 533.736 324.679 533.384 326.471 533.384C328.711 533.384 330.535 533.896 331.943 534.92C333.415 535.88 334.311 537.576 334.631 540.008C335.271 544.872 335.815 548.904 336.263 552.104C336.711 555.24 337.063 557.832 337.319 559.88C337.639 561.864 337.863 563.4 337.991 564.488C338.183 565.512 338.343 566.344 338.471 566.984H338.855C339.047 565.96 339.367 564.488 339.815 562.568C340.327 560.584 340.903 558.344 341.543 555.848C342.183 553.352 342.855 550.664 343.559 547.784C344.263 544.84 344.967 541.928 345.671 539.048C346.951 538.344 348.199 537.8 349.415 537.416C350.695 537.032 352.263 536.84 354.119 536.84C356.359 536.84 358.279 537.192 359.879 537.896C361.479 538.6 362.503 539.688 362.951 541.16C363.719 543.976 364.455 546.728 365.159 549.416C365.863 552.04 366.503 554.504 367.079 556.808C367.655 559.048 368.167 561.064 368.615 562.856C369.063 564.584 369.383 565.96 369.575 566.984H370.055C370.759 562.056 371.431 556.936 372.071 551.624C372.775 546.312 373.415 540.904 373.991 535.4C375.143 534.696 376.359 534.184 377.639 533.864C378.919 533.544 380.199 533.384 381.479 533.384C383.719 533.384 385.575 533.864 387.047 534.824C388.519 535.784 389.255 537.448 389.255 539.816C389.255 540.84 389.095 542.376 388.775 544.424C388.455 546.472 388.039 548.776 387.527 551.336C387.015 553.896 386.407 556.584 385.703 559.4C385.063 562.216 384.391 564.936 383.687 567.56C383.047 570.184 382.407 572.552 381.767 574.664C381.191 576.776 380.679 578.408 380.231 579.56C379.335 580.328 377.959 580.936 376.103 581.384C374.247 581.896 372.263 582.152 370.151 582.152C364.775 582.152 361.607 580.808 360.647 578.12C360.263 576.968 359.783 575.528 359.207 573.8C358.631 572.008 358.023 570.056 357.383 567.944C356.743 565.832 356.135 563.656 355.559 561.416C354.983 559.112 354.503 556.904 354.119 554.792C353.671 557.032 353.127 559.368 352.487 561.8C351.847 564.168 351.175 566.504 350.471 568.808C349.831 571.048 349.223 573.128 348.647 575.048C348.071 576.904 347.623 578.408 347.303 579.56ZM444.936 557.672C444.936 561.64 444.328 565.192 443.112 568.328C441.896 571.4 440.168 573.992 437.928 576.104C435.752 578.216 433.128 579.816 430.056 580.904C426.984 581.992 423.56 582.536 419.784 582.536C416.008 582.536 412.584 581.96 409.512 580.808C406.44 579.656 403.784 578.024 401.544 575.912C399.368 573.736 397.672 571.112 396.456 568.04C395.24 564.968 394.632 561.512 394.632 557.672C394.632 553.896 395.24 550.472 396.456 547.4C397.672 544.328 399.368 541.736 401.544 539.624C403.784 537.448 406.44 535.784 409.512 534.632C412.584 533.48 416.008 532.904 419.784 532.904C423.56 532.904 426.984 533.512 430.056 534.728C433.128 535.88 435.752 537.544 437.928 539.72C440.168 541.832 441.896 544.424 443.112 547.496C444.328 550.568 444.936 553.96 444.936 557.672ZM411.336 557.672C411.336 561.576 412.072 564.584 413.544 566.696C415.08 568.744 417.192 569.768 419.88 569.768C422.568 569.768 424.616 568.712 426.024 566.6C427.496 564.488 428.232 561.512 428.232 557.672C428.232 553.832 427.496 550.888 426.024 548.84C424.552 546.728 422.472 545.672 419.784 545.672C417.096 545.672 415.016 546.728 413.544 548.84C412.072 550.888 411.336 553.832 411.336 557.672ZM469.218 580.904C468.578 581.096 467.554 581.288 466.146 581.48C464.802 581.672 463.394 581.768 461.922 581.768C460.514 581.768 459.234 581.672 458.082 581.48C456.994 581.288 456.066 580.904 455.298 580.328C454.53 579.752 453.922 578.984 453.474 578.024C453.09 577 452.898 575.688 452.898 574.088V545.288C452.898 543.816 453.154 542.568 453.666 541.544C454.242 540.456 455.042 539.496 456.066 538.664C457.09 537.832 458.338 537.096 459.81 536.456C461.346 535.752 462.978 535.144 464.706 534.632C466.434 534.12 468.226 533.736 470.082 533.48C471.938 533.16 473.794 533 475.65 533C478.722 533 481.154 533.608 482.946 534.824C484.738 535.976 485.634 537.896 485.634 540.584C485.634 541.48 485.506 542.376 485.25 543.272C484.994 544.104 484.674 544.872 484.29 545.576C482.946 545.576 481.57 545.64 480.162 545.768C478.754 545.896 477.378 546.088 476.034 546.344C474.69 546.6 473.41 546.888 472.194 547.208C471.042 547.464 470.05 547.784 469.218 548.168V580.904ZM537.967 572.552C537.647 575.56 536.751 577.864 535.279 579.464C533.871 581.064 531.791 581.864 529.039 581.864C526.991 581.864 525.167 581.384 523.567 580.424C521.967 579.4 520.239 577.704 518.383 575.336L508.879 563.432V580.904C508.175 581.032 507.119 581.192 505.711 581.384C504.367 581.64 502.991 581.768 501.583 581.768C500.175 581.768 498.895 581.672 497.743 581.48C496.655 581.288 495.727 580.904 494.959 580.328C494.191 579.752 493.583 578.984 493.135 578.024C492.751 577 492.559 575.688 492.559 574.088V518.504C493.263 518.312 494.287 518.12 495.631 517.928C497.039 517.672 498.447 517.544 499.855 517.544C501.263 517.544 502.511 517.64 503.599 517.832C504.751 518.024 505.711 518.408 506.479 518.984C507.247 519.56 507.823 520.36 508.207 521.384C508.655 522.344 508.879 523.624 508.879 525.224V550.568L525.391 533.672C528.719 533.672 531.375 534.408 533.359 535.88C535.407 537.352 536.431 539.208 536.431 541.448C536.431 542.408 536.271 543.304 535.951 544.136C535.631 544.904 535.119 545.704 534.415 546.536C533.775 547.368 532.911 548.264 531.823 549.224C530.799 550.12 529.583 551.176 528.175 552.392L522.607 557.192L537.967 572.552ZM545.233 521.384C545.233 518.952 546.033 516.904 547.633 515.24C549.297 513.576 551.473 512.744 554.161 512.744C556.849 512.744 558.993 513.576 560.593 515.24C562.257 516.904 563.089 518.952 563.089 521.384C563.089 523.816 562.257 525.864 560.593 527.528C558.993 529.192 556.849 530.024 554.161 530.024C551.473 530.024 549.297 529.192 547.633 527.528C546.033 525.864 545.233 523.816 545.233 521.384ZM562.321 580.904C561.617 581.032 560.561 581.192 559.153 581.384C557.809 581.64 556.433 581.768 555.025 581.768C553.617 581.768 552.337 581.672 551.185 581.48C550.097 581.288 549.169 580.904 548.401 580.328C547.633 579.752 547.025 578.984 546.577 578.024C546.193 577 546.001 575.688 546.001 574.088V535.016C546.705 534.888 547.729 534.728 549.073 534.536C550.481 534.28 551.889 534.152 553.297 534.152C554.705 534.152 555.953 534.248 557.041 534.44C558.193 534.632 559.153 535.016 559.921 535.592C560.689 536.168 561.265 536.968 561.649 537.992C562.097 538.952 562.321 540.232 562.321 541.832V580.904ZM602.279 551.432C602.279 549.448 601.703 548.008 600.551 547.112C599.463 546.152 597.959 545.672 596.039 545.672C594.759 545.672 593.479 545.832 592.199 546.152C590.983 546.472 589.927 546.952 589.031 547.592V580.904C588.391 581.096 587.367 581.288 585.959 581.48C584.615 581.672 583.207 581.768 581.735 581.768C580.327 581.768 579.047 581.672 577.895 581.48C576.807 581.288 575.879 580.904 575.111 580.328C574.343 579.752 573.735 578.984 573.287 578.024C572.903 577 572.711 575.688 572.711 574.088V545.288C572.711 543.56 573.063 542.152 573.767 541.064C574.535 539.976 575.559 538.984 576.839 538.088C579.015 536.552 581.735 535.304 584.999 534.344C588.327 533.384 592.007 532.904 596.039 532.904C603.271 532.904 608.839 534.504 612.743 537.704C616.647 540.84 618.599 545.224 618.599 550.856V580.904C617.959 581.096 616.935 581.288 615.527 581.48C614.183 581.672 612.775 581.768 611.303 581.768C609.895 581.768 608.615 581.672 607.463 581.48C606.375 581.288 605.447 580.904 604.679 580.328C603.911 579.752 603.303 578.984 602.855 578.024C602.471 577 602.279 575.688 602.279 574.088V551.432ZM651.432 532.904C655.08 532.904 658.376 533.384 661.32 534.344C664.328 535.24 666.856 536.424 668.904 537.896C670.184 538.792 671.176 539.784 671.88 540.872C672.648 541.96 673.031 543.368 673.031 545.096V578.696C673.031 582.088 672.392 585 671.112 587.432C669.832 589.928 668.072 591.976 665.832 593.576C663.656 595.24 661.064 596.456 658.056 597.224C655.112 597.992 651.944 598.376 648.552 598.376C642.728 598.376 638.152 597.576 634.824 595.976C631.496 594.44 629.832 591.912 629.832 588.392C629.832 586.92 630.12 585.608 630.696 584.456C631.336 583.368 632.04 582.536 632.808 581.96C634.664 582.984 636.744 583.848 639.048 584.552C641.416 585.256 643.848 585.608 646.344 585.608C649.8 585.608 652.552 585.032 654.6 583.88C656.648 582.728 657.672 580.872 657.672 578.312V576.776C655.048 577.928 651.848 578.504 648.072 578.504C645.192 578.504 642.44 578.088 639.816 577.256C637.256 576.36 634.984 575.016 633 573.224C631.08 571.368 629.512 569 628.296 566.12C627.144 563.24 626.568 559.816 626.568 555.848C626.568 551.944 627.176 548.552 628.392 545.672C629.672 542.792 631.4 540.424 633.576 538.568C635.816 536.648 638.44 535.24 641.448 534.344C644.52 533.384 647.848 532.904 651.432 532.904ZM657.384 546.824C656.936 546.568 656.264 546.312 655.368 546.056C654.536 545.8 653.48 545.672 652.2 545.672C649.064 545.672 646.696 546.568 645.096 548.36C643.56 550.088 642.792 552.584 642.792 555.848C642.792 559.56 643.56 562.248 645.096 563.912C646.696 565.512 648.712 566.312 651.144 566.312C653.768 566.312 655.848 565.704 657.384 564.488V546.824ZM750.655 557.672C750.655 561.64 750.047 565.192 748.831 568.328C747.615 571.4 745.887 573.992 743.647 576.104C741.471 578.216 738.847 579.816 735.775 580.904C732.703 581.992 729.279 582.536 725.503 582.536C721.727 582.536 718.303 581.96 715.231 580.808C712.159 579.656 709.503 578.024 707.263 575.912C705.087 573.736 703.391 571.112 702.175 568.04C700.959 564.968 700.351 561.512 700.351 557.672C700.351 553.896 700.959 550.472 702.175 547.4C703.391 544.328 705.087 541.736 707.263 539.624C709.503 537.448 712.159 535.784 715.231 534.632C718.303 533.48 721.727 532.904 725.503 532.904C729.279 532.904 732.703 533.512 735.775 534.728C738.847 535.88 741.471 537.544 743.647 539.72C745.887 541.832 747.615 544.424 748.831 547.496C750.047 550.568 750.655 553.96 750.655 557.672ZM717.055 557.672C717.055 561.576 717.791 564.584 719.263 566.696C720.799 568.744 722.911 569.768 725.599 569.768C728.287 569.768 730.335 568.712 731.743 566.6C733.215 564.488 733.951 561.512 733.951 557.672C733.951 553.832 733.215 550.888 731.743 548.84C730.271 546.728 728.191 545.672 725.503 545.672C722.815 545.672 720.735 546.728 719.263 548.84C717.791 550.888 717.055 553.832 717.055 557.672ZM788.185 551.432C788.185 549.448 787.609 548.008 786.457 547.112C785.369 546.152 783.865 545.672 781.945 545.672C780.665 545.672 779.385 545.832 778.105 546.152C776.889 546.472 775.833 546.952 774.937 547.592V580.904C774.297 581.096 773.273 581.288 771.865 581.48C770.521 581.672 769.113 581.768 767.641 581.768C766.233 581.768 764.953 581.672 763.801 581.48C762.713 581.288 761.785 580.904 761.017 580.328C760.249 579.752 759.641 578.984 759.193 578.024C758.809 577 758.617 575.688 758.617 574.088V545.288C758.617 543.56 758.969 542.152 759.673 541.064C760.441 539.976 761.465 538.984 762.745 538.088C764.921 536.552 767.641 535.304 770.905 534.344C774.233 533.384 777.913 532.904 781.945 532.904C789.177 532.904 794.745 534.504 798.649 537.704C802.553 540.84 804.505 545.224 804.505 550.856V580.904C803.865 581.096 802.841 581.288 801.433 581.48C800.089 581.672 798.681 581.768 797.209 581.768C795.801 581.768 794.521 581.672 793.369 581.48C792.281 581.288 791.353 580.904 790.585 580.328C789.817 579.752 789.209 578.984 788.761 578.024C788.377 577 788.185 575.688 788.185 574.088V551.432ZM833.421 521.384C833.421 518.952 834.221 516.904 835.821 515.24C837.485 513.576 839.661 512.744 842.349 512.744C845.037 512.744 847.181 513.576 848.781 515.24C850.445 516.904 851.277 518.952 851.277 521.384C851.277 523.816 850.445 525.864 848.781 527.528C847.181 529.192 845.037 530.024 842.349 530.024C839.661 530.024 837.485 529.192 835.821 527.528C834.221 525.864 833.421 523.816 833.421 521.384ZM850.509 580.904C849.805 581.032 848.749 581.192 847.341 581.384C845.997 581.64 844.621 581.768 843.213 581.768C841.805 581.768 840.525 581.672 839.373 581.48C838.285 581.288 837.357 580.904 836.589 580.328C835.821 579.752 835.213 578.984 834.765 578.024C834.381 577 834.189 575.688 834.189 574.088V535.016C834.893 534.888 835.917 534.728 837.261 534.536C838.669 534.28 840.077 534.152 841.484 534.152C842.893 534.152 844.141 534.248 845.229 534.44C846.381 534.632 847.341 535.016 848.109 535.592C848.877 536.168 849.453 536.968 849.837 537.992C850.285 538.952 850.509 540.232 850.509 541.832V580.904ZM877.218 564.968C877.218 566.632 877.73 567.816 878.754 568.52C879.842 569.224 881.346 569.576 883.266 569.576C884.226 569.576 885.218 569.512 886.242 569.384C887.266 569.192 888.162 568.968 888.93 568.712C889.506 569.416 889.986 570.216 890.37 571.112C890.818 571.944 891.042 572.968 891.042 574.184C891.042 576.616 890.114 578.6 888.258 580.136C886.466 581.672 883.266 582.44 878.658 582.44C873.026 582.44 868.674 581.16 865.602 578.6C862.594 576.04 861.09 571.88 861.09 566.12V525.032C861.794 524.84 862.786 524.648 864.066 524.456C865.41 524.2 866.818 524.072 868.29 524.072C871.106 524.072 873.282 524.584 874.818 525.608C876.418 526.568 877.218 528.648 877.218 531.848V537.992H889.794C890.178 538.696 890.53 539.592 890.85 540.68C891.234 541.704 891.426 542.856 891.426 544.136C891.426 546.376 890.914 548.008 889.89 549.032C888.93 549.992 887.618 550.472 885.954 550.472H877.218V564.968ZM917.096 525.32C917.096 526.792 917.064 528.936 917 531.752C916.936 534.504 916.808 537.512 916.616 540.776C916.424 543.976 916.168 547.208 915.848 550.472C915.528 553.672 915.144 556.456 914.696 558.824C914.44 559.016 914.056 559.208 913.544 559.4C913.032 559.592 912.488 559.752 911.912 559.88C911.336 560.008 910.76 560.104 910.184 560.168C909.608 560.232 909.096 560.264 908.648 560.264C906.792 560.264 905.224 559.976 903.944 559.4C902.728 558.824 901.96 557.704 901.64 556.04C901.32 554.568 901.032 552.328 900.776 549.32C900.584 546.312 900.392 543.048 900.2 539.528C900.008 536.008 899.848 532.52 899.72 529.064C899.656 525.608 899.624 522.664 899.624 520.232C900.904 519.528 902.344 518.984 903.944 518.6C905.608 518.152 907.24 517.928 908.84 517.928C911.464 517.928 913.48 518.536 914.888 519.752C916.36 520.968 917.096 522.824 917.096 525.32ZM899.432 573.704C899.432 571.08 900.232 568.936 901.832 567.272C903.496 565.544 905.768 564.68 908.648 564.68C911.528 564.68 913.768 565.544 915.368 567.272C917.032 568.936 917.864 571.08 917.864 573.704C917.864 576.328 917.032 578.504 915.368 580.232C913.768 581.896 911.528 582.728 908.648 582.728C905.768 582.728 903.496 581.896 901.832 580.232C900.232 578.504 899.432 576.328 899.432 573.704Z" fill="#3F3D56"/>
<defs>
<clipPath id="clip0">
<rect x="61" width="800" height="492.075" fill="white"/>
</clipPath>
</defs>
</svg>
