<svg width="96" height="30" viewBox="0 0 96 30" fill="none" xmlns="http://www.w3.org/2000/svg">
<path d="M33.9369 14H31.8509C31.6735 14 31.5429 13.9627 31.4589 13.888C31.3842 13.804 31.3469 13.6733 31.3469 13.496V4.424C31.3469 4.24667 31.3842 4.12067 31.4589 4.046C31.5429 3.962 31.6735 3.92 31.8509 3.92H34.1049C34.2542 3.92 34.3755 3.95267 34.4689 4.018C34.5715 4.08333 34.6649 4.19067 34.7489 4.34L36.0089 6.622C36.0555 6.706 36.0929 6.76667 36.1209 6.804C36.1582 6.84133 36.2049 6.86 36.2609 6.86H36.3869C36.4429 6.86 36.4849 6.84133 36.5129 6.804C36.5502 6.76667 36.5922 6.706 36.6389 6.622L37.8849 4.34C37.9689 4.19067 38.0575 4.08333 38.1509 4.018C38.2535 3.95267 38.3795 3.92 38.5289 3.92H40.7969C40.9742 3.92 41.1002 3.962 41.1749 4.046C41.2589 4.12067 41.3009 4.24667 41.3009 4.424V13.496C41.3009 13.6733 41.2589 13.804 41.1749 13.888C41.1002 13.9627 40.9742 14 40.7969 14H38.6409C38.4635 14 38.3329 13.9627 38.2489 13.888C38.1742 13.804 38.1369 13.6733 38.1369 13.496V8.568L37.3109 10.094C37.2269 10.2527 37.1242 10.3693 37.0029 10.444C36.8909 10.5093 36.7462 10.542 36.5689 10.542H36.0089C35.8315 10.542 35.6822 10.5093 35.5609 10.444C35.4489 10.3693 35.3509 10.2527 35.2669 10.094L34.4409 8.568V13.496C34.4409 13.6733 34.3989 13.804 34.3149 13.888C34.2402 13.9627 34.1142 14 33.9369 14ZM43.5077 14C43.3304 14 43.1997 13.9627 43.1157 13.888C43.0411 13.804 43.0037 13.6733 43.0037 13.496V11.83C43.0037 11.6527 43.0411 11.5267 43.1157 11.452C43.1997 11.368 43.3304 11.326 43.5077 11.326H44.8937V6.622H43.5077C43.3304 6.622 43.1997 6.58467 43.1157 6.51C43.0411 6.426 43.0037 6.29533 43.0037 6.118V4.424C43.0037 4.24667 43.0411 4.12067 43.1157 4.046C43.1997 3.962 43.3304 3.92 43.5077 3.92H49.4717C49.6491 3.92 49.7751 3.962 49.8497 4.046C49.9337 4.12067 49.9757 4.24667 49.9757 4.424V6.118C49.9757 6.29533 49.9337 6.426 49.8497 6.51C49.7751 6.58467 49.6491 6.622 49.4717 6.622H48.1137V11.326H49.4717C49.6491 11.326 49.7751 11.368 49.8497 11.452C49.9337 11.5267 49.9757 11.6527 49.9757 11.83V13.496C49.9757 13.6733 49.9337 13.804 49.8497 13.888C49.7751 13.9627 49.6491 14 49.4717 14H43.5077ZM54.3083 14H52.2083C52.0309 14 51.9003 13.9627 51.8163 13.888C51.7416 13.804 51.7043 13.6733 51.7043 13.496V4.424C51.7043 4.24667 51.7416 4.12067 51.8163 4.046C51.9003 3.962 52.0309 3.92 52.2083 3.92H53.6643C53.8416 3.92 53.9909 3.948 54.1123 4.004C54.2429 4.06 54.3689 4.158 54.4903 4.298L57.2063 7.406V4.424C57.2063 4.24667 57.2436 4.12067 57.3183 4.046C57.4023 3.962 57.5329 3.92 57.7103 3.92H59.8103C59.9876 3.92 60.1136 3.962 60.1883 4.046C60.2723 4.12067 60.3143 4.24667 60.3143 4.424V13.496C60.3143 13.6733 60.2723 13.804 60.1883 13.888C60.1136 13.9627 59.9876 14 59.8103 14H57.7103C57.5329 14 57.4023 13.9627 57.3183 13.888C57.2436 13.804 57.2063 13.6733 57.2063 13.496V11.774L54.8123 8.876V13.496C54.8123 13.6733 54.7703 13.804 54.6863 13.888C54.6116 13.9627 54.4856 14 54.3083 14ZM67.4673 14H62.7493C62.572 14 62.4413 13.9627 62.3573 13.888C62.2826 13.804 62.2453 13.6733 62.2453 13.496V4.424C62.2453 4.24667 62.2826 4.12067 62.3573 4.046C62.4413 3.962 62.572 3.92 62.7493 3.92H67.4673C68.634 3.92 69.4973 4.15333 70.0573 4.62C70.6266 5.08667 70.9113 5.80533 70.9113 6.776V11.144C70.9113 12.1147 70.6266 12.8333 70.0573 13.3C69.4973 13.7667 68.634 14 67.4673 14ZM65.4233 6.594V11.354H67.0893C67.3133 11.354 67.4766 11.298 67.5793 11.186C67.6913 11.074 67.7473 10.9013 67.7473 10.668V7.266C67.7473 7.03267 67.6913 6.86467 67.5793 6.762C67.4766 6.65 67.3133 6.594 67.0893 6.594H65.4233ZM80.3206 14H73.1946C73.0173 14 72.8866 13.9627 72.8026 13.888C72.7279 13.804 72.6906 13.6733 72.6906 13.496V4.424C72.6906 4.24667 72.7279 4.12067 72.8026 4.046C72.8866 3.962 73.0173 3.92 73.1946 3.92H75.3646C75.5419 3.92 75.6679 3.962 75.7426 4.046C75.8266 4.12067 75.8686 4.24667 75.8686 4.424V11.354H77.7866V9.086C77.7866 8.90867 77.8239 8.78267 77.8986 8.708C77.9826 8.624 78.1133 8.582 78.2906 8.582H80.3206C80.4979 8.582 80.6239 8.624 80.6986 8.708C80.7826 8.78267 80.8246 8.90867 80.8246 9.086V13.496C80.8246 13.6733 80.7826 13.804 80.6986 13.888C80.6239 13.9627 80.4979 14 80.3206 14ZM89.425 14H82.929C82.7517 14 82.621 13.9627 82.537 13.888C82.4623 13.804 82.425 13.6733 82.425 13.496V4.424C82.425 4.24667 82.4623 4.12067 82.537 4.046C82.621 3.962 82.7517 3.92 82.929 3.92H89.425C89.6023 3.92 89.7283 3.962 89.803 4.046C89.887 4.12067 89.929 4.24667 89.929 4.424V6.062C89.929 6.23933 89.887 6.37 89.803 6.454C89.7283 6.52867 89.6023 6.566 89.425 6.566H85.561V7.644H88.291C88.4683 7.644 88.5943 7.686 88.669 7.77C88.753 7.84467 88.795 7.97067 88.795 8.148V9.646C88.795 9.82333 88.753 9.954 88.669 10.038C88.5943 10.1127 88.4683 10.15 88.291 10.15H85.561V11.354H89.425C89.6023 11.354 89.7283 11.396 89.803 11.48C89.887 11.5547 89.929 11.6807 89.929 11.858V13.496C89.929 13.6733 89.887 13.804 89.803 13.888C89.7283 13.9627 89.6023 14 89.425 14Z" fill="#3A3A3A"/>
<path d="M7.47777 26.9912C6.67413 26.9912 6.02049 26.3653 5.97628 25.5747C6.02056 24.7829 6.67547 24.1583 7.4839 24.1583H27.0132V0H6.7211C4.65108 0 2.96511 1.68632 2.9649 3.76113L2.96441 9.0263L4.46879 9.02644H2.96511V25.5749H2.96673C2.96617 25.6034 2.96511 25.6317 2.96511 25.6603H2.96829C3.0582 28.0731 5.04098 30 7.47777 30H27.0356V26.9912H7.47777ZM5.97317 9.02644L5.97367 3.76142C5.97374 3.34803 6.31286 3.00884 6.72103 3.00884H24.0043V21.1495H7.48383C6.95423 21.1495 6.446 21.2402 5.97381 21.4068V9.02644H5.97317Z" fill="url(#paint0_linear)"/>
<defs>
<linearGradient id="paint0_linear" x1="15" y1="0" x2="15" y2="30" gradientUnits="userSpaceOnUse">
<stop stop-color="#43CFD9"/>
<stop offset="1" stop-color="#74D14C"/>
</linearGradient>
</defs>
</svg>
